<?xml version="1.0" encoding="UTF-8"?>
<svg xmlns="http://www.w3.org/2000/svg" xmlns:xlink="http://www.w3.org/1999/xlink" width="240pt" height="107pt" viewBox="0 0 240 107" version="1.1">
<g id="surface1">
<path style="fill:none;stroke-width:15;stroke-linecap:butt;stroke-linejoin:miter;stroke:rgb(0%,53.318787%,80.076599%);stroke-opacity:1;stroke-miterlimit:10;" d="M 1924.453125 952.578125 L 477.148438 113.007812 " transform="matrix(0.1,0,0,-0.1,0,107)"/>
<path style="fill:none;stroke-width:15;stroke-linecap:butt;stroke-linejoin:miter;stroke:rgb(0%,53.318787%,80.076599%);stroke-opacity:1;stroke-miterlimit:10;" d="M 1760.742188 63.203125 L 628.398438 1012.851562 " transform="matrix(0.1,0,0,-0.1,0,107)"/>
<path style="fill-rule:nonzero;fill:rgb(80.076599%,80.076599%,80.076599%);fill-opacity:1;stroke-width:15;stroke-linecap:butt;stroke-linejoin:miter;stroke:rgb(0%,53.318787%,80.076599%);stroke-opacity:1;stroke-miterlimit:10;" d="M 1584.804688 421.328125 L 1585.976562 458.007812 L 1589.53125 494.882812 L 1595.390625 531.796875 L 1603.59375 568.476562 L 1614.023438 604.726562 L 1626.640625 640.3125 L 1641.40625 674.960938 L 1658.125 708.554688 L 1676.796875 740.820312 L 1697.265625 771.5625 L 1719.414062 800.585938 L 1743.085938 827.773438 L 1768.164062 852.851562 L 1794.453125 875.78125 L 1821.835938 896.367188 L 1850.15625 914.453125 L 1879.140625 929.960938 L 1908.710938 942.8125 L 1938.671875 952.890625 L 1968.789062 960.15625 L 1998.945312 964.570312 L 2028.867188 966.054688 L 2058.4375 964.6875 L 2087.460938 960.390625 L 2115.742188 953.242188 L 2143.125 943.28125 L 2169.453125 930.546875 L 2194.492188 915.117188 L 2218.203125 897.148438 L 2240.3125 876.640625 L 2260.78125 853.828125 L 2279.453125 828.789062 L 2296.210938 801.71875 L 2310.9375 772.734375 L 2323.554688 742.070312 L 2333.984375 709.882812 L 2342.1875 676.367188 L 2348.085938 641.71875 L 2351.601562 606.171875 L 2352.8125 569.960938 L 2351.601562 533.28125 L 2348.085938 496.367188 L 2342.1875 459.453125 L 2333.984375 422.773438 L 2323.554688 386.5625 L 2310.9375 350.976562 L 2296.210938 316.289062 L 2279.453125 282.734375 L 2260.78125 250.46875 L 2240.3125 219.726562 L 2218.203125 190.703125 L 2194.492188 163.515625 L 2169.453125 138.398438 L 2143.125 115.507812 L 2115.742188 94.921875 L 2087.460938 76.835938 L 2058.4375 61.328125 L 2028.867188 48.476562 L 1998.945312 38.398438 L 1968.789062 31.132812 L 1938.671875 26.71875 L 1908.710938 25.195312 L 1879.140625 26.601562 L 1850.15625 30.898438 L 1821.835938 38.046875 L 1794.453125 48.007812 L 1768.164062 60.742188 L 1743.085938 76.132812 L 1719.414062 94.140625 L 1697.265625 114.609375 L 1676.796875 137.460938 L 1658.125 162.460938 L 1641.40625 189.570312 L 1626.640625 218.515625 L 1614.023438 249.21875 L 1603.59375 281.40625 L 1595.390625 314.921875 L 1589.53125 349.570312 L 1585.976562 385.117188 L 1584.804688 421.328125 " transform="matrix(0.1,0,0,-0.1,0,107)"/>
<path style="fill:none;stroke-width:15;stroke-linecap:butt;stroke-linejoin:miter;stroke:rgb(0%,53.318787%,80.076599%);stroke-opacity:1;stroke-miterlimit:10;" d="M 499.492188 125.390625 L 462.929688 112.695312 L 426.09375 104.21875 L 389.335938 100.039062 L 352.96875 100.15625 L 317.34375 104.609375 L 282.773438 113.320312 L 249.570312 126.289062 L 218.085938 143.320312 L 188.554688 164.257812 L 161.289062 188.945312 L 136.484375 217.148438 L 114.453125 248.59375 L 95.351562 283.007812 L 79.335938 320.039062 L 66.5625 359.414062 L 57.1875 400.703125 L 51.25 443.515625 L 48.867188 487.539062 L 50 532.304688 L 54.648438 577.421875 L 62.773438 622.460938 L 74.296875 667.03125 L 89.140625 710.703125 L 107.148438 753.085938 L 128.164062 793.789062 L 151.953125 832.421875 L 178.359375 868.632812 L 207.109375 902.070312 L 237.890625 932.460938 L 270.507812 959.53125 L 304.609375 983.007812 L 339.882812 1002.695312 L 376.054688 1018.398438 L 412.695312 1029.960938 L 449.570312 1037.265625 L 486.25 1040.3125 L 522.421875 1038.984375 L 557.8125 1033.359375 L 592.03125 1023.476562 L 624.804688 1009.414062 " transform="matrix(0.1,0,0,-0.1,0,107)"/>
<path style="fill:none;stroke-width:15;stroke-linecap:butt;stroke-linejoin:miter;stroke:rgb(0%,53.318787%,80.076599%);stroke-opacity:1;stroke-dasharray:20,20;stroke-miterlimit:10;" d="M 595.078125 1022.382812 L 637.695312 1002.460938 L 677.070312 975.664062 L 712.5 942.382812 L 743.476562 903.125 L 769.453125 858.554688 L 790.078125 809.375 L 805 756.328125 L 813.945312 700.351562 L 816.796875 642.265625 L 813.515625 583.007812 L 804.140625 523.554688 L 788.828125 464.84375 L 767.851562 407.851562 L 741.484375 353.398438 L 710.195312 302.421875 L 674.453125 255.742188 L 634.882812 214.0625 L 592.03125 178.085938 L 546.679688 148.398438 L 499.492188 125.390625 " transform="matrix(0.1,0,0,-0.1,0,107)"/>
</g>
</svg>
