<?xml version="1.0" encoding="UTF-8"?>
<svg xmlns="http://www.w3.org/2000/svg" xmlns:xlink="http://www.w3.org/1999/xlink" width="190pt" height="144pt" viewBox="0 0 190 144" version="1.1">
<defs>
<clipPath id="clip1">
  <path d="M 20 97 L 174 97 L 174 143.800781 L 20 143.800781 Z M 20 97 "/>
</clipPath>
<clipPath id="clip2">
  <path d="M 0 0 L 96 0 L 96 143.800781 L 0 143.800781 Z M 0 0 "/>
</clipPath>
<clipPath id="clip3">
  <path d="M 127 0 L 190 0 L 190 143.800781 L 127 143.800781 Z M 127 0 "/>
</clipPath>
<clipPath id="clip4">
  <path d="M 98 0 L 161 0 L 161 143.800781 L 98 143.800781 Z M 98 0 "/>
</clipPath>
</defs>
<g id="surface1">
<g clip-path="url(#clip1)" clip-rule="nonzero">
<path style="fill:none;stroke-width:15;stroke-linecap:butt;stroke-linejoin:miter;stroke:rgb(0%,53.318787%,80.076599%);stroke-opacity:1;stroke-miterlimit:10;" d="M 1526.210938 53.984375 L 1415.15625 118.085938 L 1359.609375 146.875 L 1304.0625 173.007812 L 1248.515625 196.132812 L 1192.96875 215.820312 L 1137.421875 231.679688 L 1081.875 243.28125 L 1026.328125 250.390625 L 970.820312 252.8125 L 915.273438 250.390625 L 859.726562 243.28125 L 804.179688 231.679688 L 748.632812 215.820312 L 693.085938 196.132812 L 637.539062 173.007812 L 581.992188 146.875 L 526.445312 118.085938 L 415.351562 53.984375 " transform="matrix(0.1,0,0,-0.1,0,144)"/>
</g>
<path style="fill:none;stroke-width:15;stroke-linecap:butt;stroke-linejoin:miter;stroke:rgb(0%,53.318787%,80.076599%);stroke-opacity:1;stroke-miterlimit:10;" d="M 1488.359375 1401.328125 L 1380.820312 1338.164062 L 1326.914062 1309.804688 L 1272.8125 1284.0625 L 1218.554688 1261.289062 L 1164.101562 1241.914062 L 1109.453125 1226.328125 L 1054.570312 1214.882812 L 999.414062 1207.851562 L 944.023438 1205.507812 L 888.320312 1207.851562 L 832.382812 1214.882812 L 776.210938 1226.328125 L 719.765625 1241.914062 L 663.125 1261.289062 L 606.289062 1284.0625 L 549.296875 1309.804688 L 492.148438 1338.164062 L 377.5 1401.328125 " transform="matrix(0.1,0,0,-0.1,0,144)"/>
<path style=" stroke:none;fill-rule:nonzero;fill:rgb(80.076599%,80.076599%,80.076599%);fill-opacity:1;" d="M 74.265625 70.71875 L 74.164062 65.394531 L 73.863281 60.101562 L 73.363281 54.871094 L 72.664062 49.742188 L 71.773438 44.742188 L 70.699219 39.902344 L 69.441406 35.253906 L 68.015625 30.820312 L 66.425781 26.632812 L 64.679688 22.71875 L 62.792969 19.101562 L 60.773438 15.800781 L 58.636719 12.839844 L 56.394531 10.234375 L 54.0625 8.003906 L 51.652344 6.160156 L 49.175781 4.714844 L 46.65625 3.671875 L 44.105469 3.046875 L 41.535156 2.839844 L 38.96875 3.046875 L 36.417969 3.671875 L 33.898438 4.714844 L 31.421875 6.160156 L 29.011719 8.003906 L 26.679688 10.234375 L 24.4375 12.839844 L 22.300781 15.800781 L 20.28125 19.101562 L 18.394531 22.71875 L 16.648438 26.632812 L 15.058594 30.820312 L 13.632812 35.253906 L 12.375 39.902344 L 11.300781 44.742188 L 10.410156 49.742188 L 9.710938 54.871094 L 9.210938 60.101562 L 8.910156 65.394531 L 8.808594 70.71875 L 8.910156 76.046875 L 9.210938 81.339844 L 9.710938 86.566406 L 10.410156 91.695312 L 11.300781 96.699219 L 12.375 101.539062 L 13.632812 106.1875 L 15.058594 110.621094 L 16.648438 114.804688 L 18.394531 118.71875 L 20.28125 122.339844 L 22.300781 125.636719 L 24.4375 128.597656 L 26.679688 131.203125 L 29.011719 133.433594 L 31.421875 135.28125 L 33.898438 136.726562 L 36.417969 137.765625 L 38.96875 138.394531 L 41.535156 138.601562 L 44.105469 138.394531 L 46.65625 137.765625 L 49.175781 136.726562 L 51.652344 135.28125 L 54.0625 133.433594 L 56.394531 131.203125 L 58.636719 128.597656 L 60.773438 125.636719 L 62.792969 122.339844 L 64.679688 118.71875 L 66.425781 114.804688 L 68.015625 110.621094 L 69.441406 106.1875 L 70.699219 101.539062 L 71.773438 96.699219 L 72.664062 91.695312 L 73.363281 86.566406 L 73.863281 81.339844 L 74.164062 76.046875 L 74.265625 70.71875 "/>
<g clip-path="url(#clip2)" clip-rule="nonzero">
<path style="fill:none;stroke-width:15;stroke-linecap:butt;stroke-linejoin:miter;stroke:rgb(0%,53.318787%,80.076599%);stroke-opacity:1;stroke-miterlimit:10;" d="M 742.65625 732.8125 L 741.640625 786.054688 L 738.632812 838.984375 L 733.632812 891.289062 L 726.640625 942.578125 L 717.734375 992.578125 L 706.992188 1040.976562 L 694.414062 1087.460938 L 680.15625 1131.796875 L 664.257812 1173.671875 L 646.796875 1212.8125 L 627.929688 1248.984375 L 607.734375 1281.992188 L 586.367188 1311.601562 L 563.945312 1337.65625 L 540.625 1359.960938 L 516.523438 1378.398438 L 491.757812 1392.851562 L 466.5625 1403.28125 L 441.054688 1409.53125 L 415.351562 1411.601562 L 389.6875 1409.53125 L 364.179688 1403.28125 L 338.984375 1392.851562 L 314.21875 1378.398438 L 290.117188 1359.960938 L 266.796875 1337.65625 L 244.375 1311.601562 L 223.007812 1281.992188 L 202.8125 1248.984375 L 183.945312 1212.8125 L 166.484375 1173.671875 L 150.585938 1131.796875 L 136.328125 1087.460938 L 123.75 1040.976562 L 113.007812 992.578125 L 104.101562 942.578125 L 97.109375 891.289062 L 92.109375 838.984375 L 89.101562 786.054688 L 88.085938 732.8125 L 89.101562 679.53125 L 92.109375 626.601562 L 97.109375 574.335938 L 104.101562 523.046875 L 113.007812 473.007812 L 123.75 424.609375 L 136.328125 378.125 L 150.585938 333.789062 L 166.484375 291.953125 L 183.945312 252.8125 L 202.8125 216.601562 L 223.007812 183.632812 L 244.375 154.023438 L 266.796875 127.96875 L 290.117188 105.664062 L 314.21875 87.1875 L 338.984375 72.734375 L 364.179688 62.34375 L 389.6875 56.054688 L 415.351562 53.984375 L 441.054688 56.054688 L 466.5625 62.34375 L 491.757812 72.734375 L 516.523438 87.1875 L 540.625 105.664062 L 563.945312 127.96875 L 586.367188 154.023438 L 607.734375 183.632812 L 627.929688 216.601562 L 646.796875 252.8125 L 664.257812 291.953125 L 680.15625 333.789062 L 694.414062 378.125 L 706.992188 424.609375 L 717.734375 473.007812 L 726.640625 523.046875 L 733.632812 574.335938 L 738.632812 626.601562 L 741.640625 679.53125 L 742.65625 732.8125 " transform="matrix(0.1,0,0,-0.1,0,144)"/>
</g>
<g clip-path="url(#clip3)" clip-rule="nonzero">
<path style="fill:none;stroke-width:15;stroke-linecap:butt;stroke-linejoin:miter;stroke:rgb(0%,53.318787%,80.076599%);stroke-opacity:1;stroke-miterlimit:10;" d="M 1526.210938 53.984375 L 1552.890625 56.25 L 1579.414062 63.007812 L 1605.546875 74.21875 L 1631.171875 89.804688 L 1656.09375 109.6875 L 1680.117188 133.710938 L 1703.164062 161.71875 L 1725.039062 193.515625 L 1745.546875 228.945312 L 1764.609375 267.695312 L 1782.109375 309.53125 L 1797.890625 354.179688 L 1811.875 401.367188 L 1823.945312 450.742188 L 1834.023438 502.03125 L 1842.070312 554.804688 L 1848.007812 608.789062 L 1851.796875 663.59375 L 1853.4375 718.867188 L 1852.890625 774.257812 L 1850.195312 829.335938 L 1845.3125 883.789062 L 1838.320312 937.1875 L 1829.257812 989.296875 L 1818.164062 1039.648438 L 1805.15625 1088.007812 L 1790.234375 1133.945312 L 1773.59375 1177.265625 L 1755.3125 1217.578125 L 1735.507812 1254.726562 L 1714.296875 1288.359375 L 1691.835938 1318.28125 L 1668.28125 1344.335938 L 1643.789062 1366.328125 L 1618.515625 1384.101562 L 1592.617188 1397.539062 L 1566.25 1406.523438 L 1539.648438 1411.054688 L 1512.96875 1411.054688 L 1486.328125 1406.5625 " transform="matrix(0.1,0,0,-0.1,0,144)"/>
</g>
<g clip-path="url(#clip4)" clip-rule="nonzero">
<path style="fill:none;stroke-width:15;stroke-linecap:butt;stroke-linejoin:miter;stroke:rgb(0%,53.318787%,80.076599%);stroke-opacity:1;stroke-dasharray:20,20;stroke-miterlimit:10;" d="M 1387.890625 1348.007812 L 1356.445312 1313.125 L 1326.992188 1271.367188 L 1299.882812 1223.164062 L 1275.507812 1169.140625 L 1254.101562 1109.921875 L 1235.9375 1046.25 L 1221.171875 978.828125 L 1210.078125 908.476562 L 1202.734375 836.054688 L 1199.257812 762.421875 L 1199.648438 688.398438 L 1203.90625 614.921875 L 1212.03125 542.851562 L 1223.867188 473.007812 L 1239.296875 406.289062 L 1258.125 343.4375 L 1280.15625 285.234375 L 1305.117188 232.304688 L 1332.695312 185.351562 L 1362.578125 144.921875 " transform="matrix(0.1,0,0,-0.1,0,144)"/>
</g>
</g>
</svg>
