<?xml version="1.0" encoding="UTF-8"?>
<svg xmlns="http://www.w3.org/2000/svg" xmlns:xlink="http://www.w3.org/1999/xlink" width="128pt" height="140pt" viewBox="0 0 128 140" version="1.1">
<g id="surface1">
<rect x="0" y="0" width="128" height="140" style="fill:rgb(100%,100%,100%);fill-opacity:1;stroke:none;"/>
<rect x="0" y="0" width="128" height="140" style="fill:rgb(100%,100%,100%);fill-opacity:1;stroke:none;"/>
<path style="fill:none;stroke-width:5;stroke-linecap:butt;stroke-linejoin:miter;stroke:rgb(0%,0%,0%);stroke-opacity:1;stroke-miterlimit:10;" d="M 702.148438 699.765625 L 693.085938 665.117188 L 670.664062 640.429688 L 639.21875 630.46875 L 607.734375 640.429688 L 585.3125 665.117188 L 576.289062 699.765625 L 585.3125 734.375 L 607.734375 759.0625 L 639.21875 769.023438 L 670.664062 759.0625 L 693.085938 734.375 L 702.148438 699.765625 " transform="matrix(0.1,0,0,-0.1,0,140)"/>
<path style="fill:none;stroke-width:5;stroke-linecap:butt;stroke-linejoin:miter;stroke:rgb(0%,0%,0%);stroke-opacity:1;stroke-miterlimit:10;" d="M 639.21875 561.210938 L 607.734375 565.625 L 576.289062 580.078125 L 556.796875 595.820312 L 544.804688 609.023438 L 530.46875 630.46875 L 517.382812 665.117188 L 513.359375 699.765625 L 517.382812 734.375 L 530.46875 769.023438 L 544.804688 790.46875 L 556.796875 803.671875 L 576.289062 819.414062 L 607.734375 833.867188 L 639.21875 838.320312 L 670.664062 833.867188 L 702.148438 819.414062 L 721.601562 803.671875 L 733.59375 790.46875 L 747.929688 769.023438 L 761.015625 734.375 L 765.078125 699.765625 L 761.015625 665.117188 L 747.929688 630.46875 L 733.59375 609.023438 L 721.601562 595.820312 L 702.148438 580.078125 L 670.664062 565.625 L 639.21875 561.210938 " transform="matrix(0.1,0,0,-0.1,0,140)"/>
<path style="fill:none;stroke-width:5;stroke-linecap:butt;stroke-linejoin:miter;stroke:rgb(0%,0%,0%);stroke-opacity:1;stroke-miterlimit:10;" d="M 639.21875 491.914062 L 607.734375 494.84375 L 576.289062 503.90625 L 544.804688 519.882812 L 535.507812 526.5625 L 513.359375 545.273438 L 498.867188 561.210938 L 481.875 585.585938 L 475.820312 595.820312 L 461.289062 630.46875 L 453.046875 665.117188 L 450.429688 699.765625 L 453.046875 734.375 L 461.289062 769.023438 L 475.820312 803.671875 L 481.875 813.90625 L 498.867188 838.320312 L 513.359375 854.21875 L 535.507812 872.929688 L 544.804688 879.609375 L 576.289062 895.625 L 607.734375 904.648438 L 639.21875 907.578125 L 670.664062 904.648438 L 702.148438 895.625 L 733.59375 879.609375 L 742.890625 872.929688 L 765.078125 854.21875 L 779.53125 838.320312 L 796.523438 813.90625 L 802.578125 803.671875 L 817.109375 769.023438 L 825.351562 734.375 L 827.96875 699.765625 L 825.351562 665.117188 L 817.109375 630.46875 L 802.578125 595.820312 L 796.523438 585.585938 L 779.53125 561.210938 L 765.078125 545.273438 L 742.890625 526.5625 L 733.59375 519.882812 L 702.148438 503.90625 L 670.664062 494.84375 L 639.21875 491.914062 " transform="matrix(0.1,0,0,-0.1,0,140)"/>
<path style="fill:none;stroke-width:5;stroke-linecap:butt;stroke-linejoin:miter;stroke:rgb(0%,0%,0%);stroke-opacity:1;stroke-miterlimit:10;" d="M 639.21875 422.65625 L 607.734375 424.804688 L 576.289062 431.484375 L 544.804688 442.929688 L 517.734375 457.265625 L 513.359375 459.804688 L 481.875 483.632812 L 473.046875 491.914062 L 450.429688 516.835938 L 442.890625 526.5625 L 421.25 561.210938 L 418.945312 566.015625 L 405.9375 595.820312 L 395.507812 630.46875 L 389.453125 665.117188 L 387.5 699.765625 L 389.453125 734.375 L 395.507812 769.023438 L 405.9375 803.671875 L 418.945312 833.476562 L 421.25 838.320312 L 442.890625 872.929688 L 450.429688 882.65625 L 473.046875 907.578125 L 481.875 915.859375 L 513.359375 939.6875 L 517.734375 942.226562 L 544.804688 956.5625 L 576.289062 968.007812 L 607.734375 974.6875 L 639.21875 976.835938 L 670.664062 974.6875 L 702.148438 968.007812 L 733.59375 956.5625 L 760.664062 942.226562 L 765.078125 939.6875 L 796.523438 915.859375 L 805.351562 907.578125 L 827.96875 882.65625 L 835.546875 872.929688 L 857.148438 838.320312 L 859.453125 833.476562 L 872.460938 803.671875 L 882.890625 769.023438 L 888.945312 734.375 L 890.9375 699.765625 L 888.945312 665.117188 L 882.890625 630.46875 L 872.460938 595.820312 L 859.453125 566.015625 L 857.148438 561.210938 L 835.546875 526.5625 L 827.96875 516.835938 L 805.351562 491.914062 L 796.523438 483.632812 L 765.078125 459.804688 L 760.664062 457.265625 L 733.59375 442.929688 L 702.148438 431.484375 L 670.664062 424.804688 L 639.21875 422.65625 " transform="matrix(0.1,0,0,-0.1,0,140)"/>
<path style="fill:none;stroke-width:5;stroke-linecap:butt;stroke-linejoin:miter;stroke:rgb(0%,0%,0%);stroke-opacity:1;stroke-miterlimit:10;" d="M 953.867188 699.765625 L 952.265625 665.117188 L 947.460938 630.46875 L 939.335938 595.820312 L 927.539062 561.210938 L 922.382812 549.492188 L 911.601562 526.5625 L 890.9375 491.914062 L 863.789062 457.265625 L 859.453125 452.539062 L 827.96875 422.65625 L 796.523438 399.882812 L 775.703125 388.007812 L 765.078125 382.34375 L 733.59375 369.375 L 702.148438 360.390625 L 670.664062 355.117188 L 639.21875 353.359375 L 607.734375 355.117188 L 576.289062 360.390625 L 544.804688 369.375 L 513.359375 382.34375 L 502.695312 388.007812 L 481.875 399.882812 L 450.429688 422.65625 L 418.945312 452.539062 L 414.609375 457.265625 L 387.5 491.914062 L 366.796875 526.5625 L 356.015625 549.492188 L 350.859375 561.210938 L 339.101562 595.820312 L 330.9375 630.46875 L 326.132812 665.117188 L 324.570312 699.765625 L 326.132812 734.375 L 330.9375 769.023438 L 339.101562 803.671875 L 350.859375 838.320312 L 356.015625 850.039062 L 366.796875 872.929688 L 387.5 907.578125 L 414.609375 942.226562 L 418.945312 946.992188 L 450.429688 976.835938 L 481.875 999.609375 L 502.695312 1011.484375 L 513.359375 1017.1875 L 544.804688 1030.117188 L 576.289062 1039.101562 L 607.734375 1044.375 L 639.21875 1046.132812 L 670.664062 1044.375 L 702.148438 1039.101562 L 733.59375 1030.117188 L 765.078125 1017.1875 L 775.703125 1011.484375 L 796.523438 999.609375 L 827.96875 976.835938 L 859.453125 946.992188 L 863.789062 942.226562 L 890.9375 907.578125 L 911.601562 872.929688 L 922.382812 850.039062 L 927.539062 838.320312 L 939.335938 803.671875 L 947.460938 769.023438 L 952.265625 734.375 L 953.867188 699.765625 " transform="matrix(0.1,0,0,-0.1,0,140)"/>
<path style="fill:none;stroke-width:5;stroke-linecap:butt;stroke-linejoin:miter;stroke:rgb(0%,0%,0%);stroke-opacity:1;stroke-miterlimit:10;" d="M 488.789062 318.75 L 481.875 321.914062 L 450.429688 339.882812 L 430.898438 353.359375 L 418.945312 362.265625 L 389.53125 388.007812 L 387.5 390 L 357.8125 422.65625 L 356.015625 424.882812 L 332.617188 457.265625 L 324.570312 470.429688 L 312.304688 491.914062 L 295.976562 526.5625 L 293.085938 534.179688 L 283.242188 561.210938 L 273.632812 595.820312 L 266.914062 630.46875 L 262.929688 665.117188 L 261.640625 699.765625 L 262.929688 734.375 L 266.914062 769.023438 L 273.632812 803.671875 L 283.242188 838.320312 L 293.085938 865.3125 L 295.976562 872.929688 L 312.304688 907.578125 L 324.570312 929.0625 L 332.617188 942.226562 L 356.015625 974.609375 L 357.8125 976.835938 L 387.5 1009.492188 L 389.53125 1011.484375 L 418.945312 1037.226562 L 430.898438 1046.132812 L 450.429688 1059.609375 L 481.875 1077.578125 L 488.789062 1080.742188 L 513.359375 1091.601562 L 544.804688 1102.1875 L 576.289062 1109.570312 L 607.734375 1113.945312 L 639.21875 1115.390625 L 670.664062 1113.945312 L 702.148438 1109.570312 L 733.59375 1102.1875 L 765.078125 1091.601562 L 789.609375 1080.742188 L 796.523438 1077.578125 L 827.96875 1059.609375 L 847.539062 1046.132812 L 859.453125 1037.226562 L 888.867188 1011.484375 L 890.9375 1009.492188 L 920.585938 976.835938 L 922.382812 974.609375 L 945.78125 942.226562 L 953.867188 929.0625 L 966.09375 907.578125 L 982.421875 872.929688 L 985.3125 865.3125 L 995.15625 838.320312 L 1004.765625 803.671875 L 1011.484375 769.023438 L 1015.46875 734.375 L 1016.796875 699.765625 L 1015.46875 665.117188 L 1011.484375 630.46875 L 1004.765625 595.820312 L 995.15625 561.210938 L 985.3125 534.179688 L 982.421875 526.5625 L 966.09375 491.914062 L 953.867188 470.429688 L 945.78125 457.265625 L 922.382812 424.882812 L 920.585938 422.65625 L 890.9375 390 L 888.867188 388.007812 L 859.453125 362.265625 L 847.539062 353.359375 L 827.96875 339.882812 L 796.523438 321.914062 L 789.609375 318.75 L 765.078125 307.890625 L 733.59375 297.304688 L 702.148438 289.921875 L 670.664062 285.546875 L 639.21875 284.101562 L 607.734375 285.546875 L 576.289062 289.921875 L 544.804688 297.304688 L 513.359375 307.890625 L 488.789062 318.75 " transform="matrix(0.1,0,0,-0.1,0,140)"/>
<path style="fill:none;stroke-width:5;stroke-linecap:butt;stroke-linejoin:miter;stroke:rgb(0%,0%,0%);stroke-opacity:1;stroke-miterlimit:10;" d="M 639.21875 214.804688 L 607.734375 216.054688 L 576.289062 219.804688 L 544.804688 226.09375 L 513.359375 235.078125 L 481.875 246.796875 L 476.09375 249.453125 L 450.429688 261.679688 L 418.945312 279.84375 L 412.578125 284.101562 L 387.5 301.914062 L 366.953125 318.75 L 356.015625 328.4375 L 331.054688 353.359375 L 324.570312 360.507812 L 301.914062 388.007812 L 293.085938 400.078125 L 277.8125 422.65625 L 261.640625 450.273438 L 257.734375 457.265625 L 241.25 491.914062 L 230.15625 520.195312 L 227.773438 526.5625 L 217.070312 561.210938 L 208.945312 595.820312 L 203.203125 630.46875 L 199.804688 665.117188 L 198.710938 699.765625 L 199.804688 734.375 L 203.203125 769.023438 L 208.945312 803.671875 L 217.070312 838.320312 L 227.773438 872.929688 L 230.15625 879.296875 L 241.25 907.578125 L 257.734375 942.226562 L 261.640625 949.21875 L 277.8125 976.835938 L 293.085938 999.453125 L 301.914062 1011.484375 L 324.570312 1038.984375 L 331.054688 1046.132812 L 356.015625 1071.054688 L 366.953125 1080.742188 L 387.5 1097.578125 L 412.578125 1115.390625 L 418.945312 1119.6875 L 450.429688 1137.8125 L 476.09375 1150.039062 L 481.875 1152.695312 L 513.359375 1164.453125 L 544.804688 1173.398438 L 576.289062 1179.6875 L 607.734375 1183.4375 L 639.21875 1184.6875 L 670.664062 1183.4375 L 702.148438 1179.6875 L 733.59375 1173.398438 L 765.078125 1164.453125 L 796.523438 1152.695312 L 802.304688 1150.039062 L 827.96875 1137.8125 L 859.453125 1119.6875 L 865.859375 1115.390625 L 890.9375 1097.578125 L 911.445312 1080.742188 L 922.382812 1071.054688 L 947.34375 1046.132812 L 953.867188 1038.984375 L 976.484375 1011.484375 L 985.3125 999.453125 L 1000.585938 976.835938 L 1016.796875 949.21875 L 1020.664062 942.226562 L 1037.148438 907.578125 L 1048.242188 879.296875 L 1050.664062 872.929688 L 1061.328125 838.320312 L 1069.453125 803.671875 L 1075.195312 769.023438 L 1078.59375 734.375 L 1079.726562 699.765625 L 1078.59375 665.117188 L 1075.195312 630.46875 L 1069.453125 595.820312 L 1061.328125 561.210938 L 1050.664062 526.5625 L 1048.242188 520.195312 L 1037.148438 491.914062 L 1020.664062 457.265625 L 1016.796875 450.273438 L 1000.585938 422.65625 L 985.3125 400.078125 L 976.484375 388.007812 L 953.867188 360.507812 L 947.34375 353.359375 L 922.382812 328.4375 L 911.445312 318.75 L 890.9375 301.914062 L 865.859375 284.101562 L 859.453125 279.84375 L 827.96875 261.679688 L 802.304688 249.453125 L 796.523438 246.796875 L 765.078125 235.078125 L 733.59375 226.09375 L 702.148438 219.804688 L 670.664062 216.054688 L 639.21875 214.804688 " transform="matrix(0.1,0,0,-0.1,0,140)"/>
<path style="fill:none;stroke-width:5;stroke-linecap:butt;stroke-linejoin:miter;stroke:rgb(0%,0%,0%);stroke-opacity:1;stroke-miterlimit:10;" d="M 639.21875 145.546875 L 607.734375 146.640625 L 576.289062 149.882812 L 544.804688 155.390625 L 513.359375 163.164062 L 481.875 173.320312 L 464.648438 180.195312 L 450.429688 186.015625 L 418.945312 201.445312 L 395.78125 214.804688 L 387.5 219.84375 L 356.015625 241.601562 L 345.9375 249.453125 L 324.570312 267.265625 L 306.40625 284.101562 L 293.085938 297.460938 L 273.75 318.75 L 261.640625 333.398438 L 246.328125 353.359375 L 230.15625 376.953125 L 223.007812 388.007812 L 203.242188 422.65625 L 198.710938 431.796875 L 186.5625 457.265625 L 172.539062 491.914062 L 167.226562 507.578125 L 160.976562 526.5625 L 151.757812 561.210938 L 144.6875 595.820312 L 139.726562 630.46875 L 136.757812 665.117188 L 135.78125 699.765625 L 136.757812 734.375 L 139.726562 769.023438 L 144.6875 803.671875 L 151.757812 838.320312 L 160.976562 872.929688 L 167.226562 891.914062 L 172.539062 907.578125 L 186.5625 942.226562 L 198.710938 967.695312 L 203.242188 976.835938 L 223.007812 1011.484375 L 230.15625 1022.578125 L 246.328125 1046.132812 L 261.640625 1066.09375 L 273.75 1080.742188 L 293.085938 1102.03125 L 306.40625 1115.390625 L 324.570312 1132.226562 L 345.9375 1150.039062 L 356.015625 1157.890625 L 387.5 1179.648438 L 395.78125 1184.6875 L 418.945312 1198.046875 L 450.429688 1213.476562 L 464.648438 1219.296875 L 481.875 1226.171875 L 513.359375 1236.328125 L 544.804688 1244.101562 L 576.289062 1249.609375 L 607.734375 1252.851562 L 639.21875 1253.945312 L 670.664062 1252.851562 L 702.148438 1249.609375 L 733.59375 1244.101562 L 765.078125 1236.328125 L 796.523438 1226.171875 L 813.789062 1219.296875 L 827.96875 1213.476562 L 859.453125 1198.046875 L 882.617188 1184.6875 L 890.9375 1179.648438 L 922.382812 1157.890625 L 932.460938 1150.039062 L 953.867188 1132.226562 L 971.992188 1115.390625 L 985.3125 1102.03125 L 1004.648438 1080.742188 L 1016.796875 1066.09375 L 1032.070312 1046.132812 L 1048.242188 1022.578125 L 1055.390625 1011.484375 L 1075.15625 976.835938 L 1079.726562 967.695312 L 1091.835938 942.226562 L 1105.898438 907.578125 L 1111.171875 891.914062 L 1117.421875 872.929688 L 1126.640625 838.320312 L 1133.710938 803.671875 L 1138.671875 769.023438 L 1141.640625 734.375 L 1142.65625 699.765625 L 1141.640625 665.117188 L 1138.671875 630.46875 L 1133.710938 595.820312 L 1126.640625 561.210938 L 1117.421875 526.5625 L 1111.171875 507.578125 L 1105.898438 491.914062 L 1091.835938 457.265625 L 1079.726562 431.796875 L 1075.15625 422.65625 L 1055.390625 388.007812 L 1048.242188 376.953125 L 1032.070312 353.359375 L 1016.796875 333.398438 L 1004.648438 318.75 L 985.3125 297.460938 L 971.992188 284.101562 L 953.867188 267.265625 L 932.460938 249.453125 L 922.382812 241.601562 L 890.9375 219.84375 L 882.617188 214.804688 L 859.453125 201.445312 L 827.96875 186.015625 L 813.789062 180.195312 L 796.523438 173.320312 L 765.078125 163.164062 L 733.59375 155.390625 L 702.148438 149.882812 L 670.664062 146.640625 L 639.21875 145.546875 " transform="matrix(0.1,0,0,-0.1,0,140)"/>
<path style="fill:none;stroke-width:5;stroke-linecap:butt;stroke-linejoin:miter;stroke:rgb(0%,0%,0%);stroke-opacity:1;stroke-miterlimit:10;" d="M 639.21875 76.289062 L 607.734375 77.226562 L 576.289062 80.117188 L 544.804688 85 L 513.359375 91.875 L 481.875 100.820312 L 453.242188 110.898438 L 450.429688 111.953125 L 418.945312 125.390625 L 387.5 141.25 L 380 145.546875 L 356.015625 159.882812 L 326.171875 180.195312 L 324.570312 181.367188 L 293.085938 206.328125 L 283.398438 214.804688 L 261.640625 235.195312 L 247.617188 249.453125 L 230.15625 268.710938 L 217.1875 284.101562 L 198.710938 308.046875 L 190.976562 318.75 L 168.28125 353.359375 L 167.226562 355.15625 L 148.789062 388.007812 L 135.78125 414.414062 L 131.875 422.65625 L 117.460938 457.265625 L 105.234375 491.914062 L 104.296875 495.039062 L 95.117188 526.5625 L 86.992188 561.210938 L 80.742188 595.820312 L 76.328125 630.46875 L 73.710938 665.117188 L 72.851562 699.765625 L 73.710938 734.375 L 76.328125 769.023438 L 80.742188 803.671875 L 86.992188 838.320312 L 95.117188 872.929688 L 104.296875 904.453125 L 105.234375 907.578125 L 117.460938 942.226562 L 131.875 976.835938 L 135.78125 985.078125 L 148.789062 1011.484375 L 167.226562 1044.335938 L 168.28125 1046.132812 L 190.976562 1080.742188 L 198.710938 1091.445312 L 217.1875 1115.390625 L 230.15625 1130.78125 L 247.617188 1150.039062 L 261.640625 1164.335938 L 283.398438 1184.6875 L 293.085938 1193.164062 L 324.570312 1218.125 L 326.171875 1219.296875 L 356.015625 1239.648438 L 380 1253.945312 L 387.5 1258.242188 L 418.945312 1274.101562 L 450.429688 1287.578125 L 453.242188 1288.59375 L 481.875 1298.671875 L 513.359375 1307.617188 L 544.804688 1314.492188 L 576.289062 1319.375 L 607.734375 1322.265625 L 639.21875 1323.203125 L 670.664062 1322.265625 L 702.148438 1319.375 L 733.59375 1314.492188 L 765.078125 1307.617188 L 796.523438 1298.671875 L 825.15625 1288.59375 L 827.96875 1287.578125 L 859.453125 1274.101562 L 890.9375 1258.242188 L 898.398438 1253.945312 L 922.382812 1239.648438 L 952.226562 1219.296875 L 953.867188 1218.125 L 985.3125 1193.164062 L 995 1184.6875 L 1016.796875 1164.335938 L 1030.78125 1150.039062 L 1048.242188 1130.78125 L 1061.210938 1115.390625 L 1079.726562 1091.445312 L 1087.421875 1080.742188 L 1110.117188 1046.132812 L 1111.171875 1044.335938 L 1129.648438 1011.484375 L 1142.65625 985.078125 L 1146.523438 976.835938 L 1160.9375 942.226562 L 1173.164062 907.578125 L 1174.101562 904.453125 L 1183.28125 872.929688 L 1191.40625 838.320312 L 1197.65625 803.671875 L 1202.070312 769.023438 L 1204.6875 734.375 L 1205.585938 699.765625 L 1204.6875 665.117188 L 1202.070312 630.46875 L 1197.65625 595.820312 L 1191.40625 561.210938 L 1183.28125 526.5625 L 1174.101562 495.039062 L 1173.164062 491.914062 L 1160.9375 457.265625 L 1146.523438 422.65625 L 1142.65625 414.414062 L 1129.648438 388.007812 L 1111.171875 355.15625 L 1110.117188 353.359375 L 1087.421875 318.75 L 1079.726562 308.046875 L 1061.210938 284.101562 L 1048.242188 268.710938 L 1030.78125 249.453125 L 1016.796875 235.195312 L 995 214.804688 L 985.3125 206.328125 L 953.867188 181.367188 L 952.226562 180.195312 L 922.382812 159.882812 L 898.398438 145.546875 L 890.9375 141.25 L 859.453125 125.390625 L 827.96875 111.953125 L 825.15625 110.898438 L 796.523438 100.820312 L 765.078125 91.875 L 733.59375 85 L 702.148438 80.117188 L 670.664062 77.226562 L 639.21875 76.289062 " transform="matrix(0.1,0,0,-0.1,0,140)"/>
<path style="fill:none;stroke-width:5;stroke-linecap:butt;stroke-linejoin:miter;stroke:rgb(0%,0%,0%);stroke-opacity:1;stroke-miterlimit:10;" d="M 1268.515625 699.765625 L 1267.695312 665.117188 L 1265.351562 630.46875 L 1261.367188 595.820312 L 1255.78125 561.210938 L 1248.515625 526.5625 L 1239.492188 491.914062 L 1237.03125 483.867188 L 1228.671875 457.265625 L 1215.9375 422.65625 L 1205.585938 398.125 L 1201.171875 388.007812 L 1184.140625 353.359375 L 1174.101562 335.117188 L 1164.726562 318.75 L 1142.65625 284.101562 L 1117.34375 249.453125 L 1111.171875 241.679688 L 1088.515625 214.804688 L 1079.726562 205.15625 L 1055.3125 180.195312 L 1048.242188 173.398438 L 1016.796875 145.546875 L 985.3125 121.25 L 970.429688 110.898438 L 953.867188 99.882812 L 922.382812 81.132812 L 913.203125 76.289062 L 890.9375 64.882812 L 859.453125 50.820312 L 835.3125 41.640625 L 827.96875 38.90625 L 796.523438 29.023438 L 765.078125 21.015625 L 733.59375 14.84375 L 702.148438 10.46875 L 670.664062 7.851562 L 639.21875 6.992188 L 607.734375 7.851562 L 576.289062 10.46875 L 544.804688 14.84375 L 513.359375 21.015625 L 481.875 29.023438 L 450.429688 38.90625 L 443.085938 41.640625 L 418.945312 50.820312 L 387.5 64.882812 L 365.195312 76.289062 L 356.015625 81.132812 L 324.570312 99.882812 L 307.96875 110.898438 L 293.085938 121.25 L 261.640625 145.546875 L 230.15625 173.398438 L 223.085938 180.195312 L 198.710938 205.15625 L 189.882812 214.804688 L 167.226562 241.679688 L 161.054688 249.453125 L 135.78125 284.101562 L 113.710938 318.75 L 104.296875 335.117188 L 94.257812 353.359375 L 77.226562 388.007812 L 72.851562 398.125 L 62.460938 422.65625 L 49.726562 457.265625 L 41.367188 483.867188 L 38.90625 491.914062 L 29.882812 526.5625 L 22.617188 561.210938 L 17.03125 595.820312 L 13.046875 630.46875 L 10.703125 665.117188 L 9.921875 699.765625 L 10.703125 734.375 L 13.046875 769.023438 L 17.03125 803.671875 L 22.617188 838.320312 L 29.882812 872.929688 L 38.90625 907.578125 L 41.367188 915.625 L 49.726562 942.226562 L 62.460938 976.835938 L 72.851562 1001.367188 L 77.226562 1011.484375 L 94.257812 1046.132812 L 104.296875 1064.375 L 113.710938 1080.742188 L 135.78125 1115.390625 L 161.054688 1150.039062 L 167.226562 1157.8125 L 189.882812 1184.6875 L 198.710938 1194.335938 L 223.085938 1219.296875 L 230.15625 1226.132812 L 261.640625 1253.945312 L 293.085938 1278.242188 L 307.96875 1288.59375 L 324.570312 1299.648438 L 356.015625 1318.359375 L 365.195312 1323.203125 L 387.5 1334.648438 L 418.945312 1348.671875 L 443.085938 1357.851562 L 450.429688 1360.585938 L 481.875 1370.507812 L 513.359375 1378.515625 L 544.804688 1384.648438 L 576.289062 1389.023438 L 607.734375 1391.640625 L 639.21875 1392.5 L 670.664062 1391.640625 L 702.148438 1389.023438 L 733.59375 1384.648438 L 765.078125 1378.515625 L 796.523438 1370.507812 L 827.96875 1360.585938 L 835.3125 1357.851562 L 859.453125 1348.671875 L 890.9375 1334.648438 L 913.203125 1323.203125 L 922.382812 1318.359375 L 953.867188 1299.648438 L 970.429688 1288.59375 L 985.3125 1278.242188 L 1016.796875 1253.945312 L 1048.242188 1226.132812 L 1055.3125 1219.296875 L 1079.726562 1194.335938 L 1088.515625 1184.6875 L 1111.171875 1157.8125 L 1117.34375 1150.039062 L 1142.65625 1115.390625 L 1164.726562 1080.742188 L 1174.101562 1064.375 L 1184.140625 1046.132812 L 1201.171875 1011.484375 L 1205.585938 1001.367188 L 1215.9375 976.835938 L 1228.671875 942.226562 L 1237.03125 915.625 L 1239.492188 907.578125 L 1248.515625 872.929688 L 1255.78125 838.320312 L 1261.367188 803.671875 L 1265.351562 769.023438 L 1267.695312 734.375 L 1268.515625 699.765625 " transform="matrix(0.1,0,0,-0.1,0,140)"/>
<path style="fill:none;stroke-width:5;stroke-linecap:butt;stroke-linejoin:miter;stroke:rgb(0%,0%,0%);stroke-opacity:1;stroke-miterlimit:10;" d="M 9.921875 382.5 L 22.65625 353.359375 L 39.726562 318.75 L 41.367188 315.703125 L 59.0625 284.101562 L 72.851562 261.835938 L 80.820312 249.453125 L 104.296875 216.09375 L 105.234375 214.804688 L 132.851562 180.195312 L 135.78125 176.796875 L 164.140625 145.546875 L 167.226562 142.34375 L 198.710938 111.953125 L 199.84375 110.898438 L 230.15625 85.078125 L 241.40625 76.289062 L 261.640625 61.132812 L 290.3125 41.640625 L 293.085938 39.84375 L 324.570312 21.054688 L 351.015625 6.992188 " transform="matrix(0.1,0,0,-0.1,0,140)"/>
<path style="fill:none;stroke-width:5;stroke-linecap:butt;stroke-linejoin:miter;stroke:rgb(0%,0%,0%);stroke-opacity:1;stroke-miterlimit:10;" d="M 9.921875 1016.992188 L 22.65625 1046.132812 L 39.726562 1080.742188 L 41.367188 1083.828125 L 59.0625 1115.390625 L 72.851562 1137.65625 L 80.820312 1150.039062 L 104.296875 1183.398438 L 105.234375 1184.6875 L 132.851562 1219.296875 L 135.78125 1222.695312 L 164.140625 1253.945312 L 167.226562 1257.148438 L 198.710938 1287.578125 L 199.84375 1288.59375 L 230.15625 1314.453125 L 241.40625 1323.203125 L 261.640625 1338.359375 L 290.3125 1357.851562 L 293.085938 1359.6875 L 324.570312 1378.476562 L 351.015625 1392.5 " transform="matrix(0.1,0,0,-0.1,0,140)"/>
<path style="fill:none;stroke-width:5;stroke-linecap:butt;stroke-linejoin:miter;stroke:rgb(0%,0%,0%);stroke-opacity:1;stroke-miterlimit:10;" d="M 1268.515625 382.5 L 1255.742188 353.359375 L 1238.671875 318.75 L 1237.03125 315.703125 L 1219.335938 284.101562 L 1205.585938 261.835938 L 1197.578125 249.453125 L 1174.101562 216.09375 L 1173.164062 214.804688 L 1145.546875 180.195312 L 1142.65625 176.796875 L 1114.257812 145.546875 L 1111.171875 142.34375 L 1079.726562 111.953125 L 1078.554688 110.898438 L 1048.242188 85.078125 L 1036.992188 76.289062 L 1016.796875 61.132812 L 988.085938 41.640625 L 985.3125 39.84375 L 953.867188 21.054688 L 927.382812 6.992188 " transform="matrix(0.1,0,0,-0.1,0,140)"/>
<path style="fill:none;stroke-width:5;stroke-linecap:butt;stroke-linejoin:miter;stroke:rgb(0%,0%,0%);stroke-opacity:1;stroke-miterlimit:10;" d="M 1268.515625 1016.992188 L 1255.742188 1046.132812 L 1238.671875 1080.742188 L 1237.03125 1083.828125 L 1219.335938 1115.390625 L 1205.585938 1137.65625 L 1197.578125 1150.039062 L 1174.101562 1183.398438 L 1173.164062 1184.6875 L 1145.546875 1219.296875 L 1142.65625 1222.695312 L 1114.257812 1253.945312 L 1111.171875 1257.148438 L 1079.726562 1287.578125 L 1078.554688 1288.59375 L 1048.242188 1314.453125 L 1036.992188 1323.203125 L 1016.796875 1338.359375 L 988.085938 1357.851562 L 985.3125 1359.6875 L 953.867188 1378.476562 L 927.382812 1392.5 " transform="matrix(0.1,0,0,-0.1,0,140)"/>
<path style="fill:none;stroke-width:5;stroke-linecap:butt;stroke-linejoin:miter;stroke:rgb(0%,0%,0%);stroke-opacity:1;stroke-miterlimit:10;" d="M 9.921875 240.390625 L 25.898438 214.804688 L 41.367188 192.03125 L 49.765625 180.195312 L 72.851562 149.960938 L 76.367188 145.546875 L 104.296875 112.96875 L 106.171875 110.898438 L 135.78125 80.195312 L 139.765625 76.289062 L 167.226562 50.898438 L 177.96875 41.640625 L 198.710938 24.609375 L 221.914062 6.992188 " transform="matrix(0.1,0,0,-0.1,0,140)"/>
<path style="fill:none;stroke-width:5;stroke-linecap:butt;stroke-linejoin:miter;stroke:rgb(0%,0%,0%);stroke-opacity:1;stroke-miterlimit:10;" d="M 9.921875 1159.101562 L 25.898438 1184.6875 L 41.367188 1207.460938 L 49.765625 1219.296875 L 72.851562 1249.53125 L 76.367188 1253.945312 L 104.296875 1286.523438 L 106.171875 1288.59375 L 135.78125 1319.335938 L 139.765625 1323.203125 L 167.226562 1348.59375 L 177.96875 1357.851562 L 198.710938 1374.882812 L 221.914062 1392.5 " transform="matrix(0.1,0,0,-0.1,0,140)"/>
<path style="fill:none;stroke-width:5;stroke-linecap:butt;stroke-linejoin:miter;stroke:rgb(0%,0%,0%);stroke-opacity:1;stroke-miterlimit:10;" d="M 1268.515625 240.390625 L 1252.5 214.804688 L 1237.03125 192.03125 L 1228.632812 180.195312 L 1205.585938 149.960938 L 1202.03125 145.546875 L 1174.101562 112.96875 L 1172.226562 110.898438 L 1142.65625 80.195312 L 1138.632812 76.289062 L 1111.171875 50.898438 L 1100.429688 41.640625 L 1079.726562 24.609375 L 1056.484375 6.992188 " transform="matrix(0.1,0,0,-0.1,0,140)"/>
<path style="fill:none;stroke-width:5;stroke-linecap:butt;stroke-linejoin:miter;stroke:rgb(0%,0%,0%);stroke-opacity:1;stroke-miterlimit:10;" d="M 1268.515625 1159.101562 L 1252.5 1184.6875 L 1237.03125 1207.460938 L 1228.632812 1219.296875 L 1205.585938 1249.53125 L 1202.03125 1253.945312 L 1174.101562 1286.523438 L 1172.226562 1288.59375 L 1142.65625 1319.335938 L 1138.632812 1323.203125 L 1111.171875 1348.59375 L 1100.429688 1357.851562 L 1079.726562 1374.882812 L 1056.484375 1392.5 " transform="matrix(0.1,0,0,-0.1,0,140)"/>
<path style="fill:none;stroke-width:5;stroke-linecap:butt;stroke-linejoin:miter;stroke:rgb(0%,0%,0%);stroke-opacity:1;stroke-miterlimit:10;" d="M 9.921875 124.453125 L 20.3125 110.898438 L 41.367188 85.117188 L 48.945312 76.289062 L 72.851562 49.960938 L 80.859375 41.640625 L 104.296875 18.4375 L 116.601562 6.992188 " transform="matrix(0.1,0,0,-0.1,0,140)"/>
<path style="fill:none;stroke-width:5;stroke-linecap:butt;stroke-linejoin:miter;stroke:rgb(0%,0%,0%);stroke-opacity:1;stroke-miterlimit:10;" d="M 9.921875 1275.039062 L 20.3125 1288.59375 L 41.367188 1314.414062 L 48.945312 1323.203125 L 72.851562 1349.53125 L 80.859375 1357.851562 L 104.296875 1381.054688 L 116.601562 1392.5 " transform="matrix(0.1,0,0,-0.1,0,140)"/>
<path style="fill:none;stroke-width:5;stroke-linecap:butt;stroke-linejoin:miter;stroke:rgb(0%,0%,0%);stroke-opacity:1;stroke-miterlimit:10;" d="M 1268.515625 124.453125 L 1258.125 110.898438 L 1237.03125 85.117188 L 1229.453125 76.289062 L 1205.585938 49.960938 L 1197.578125 41.640625 L 1174.101562 18.4375 L 1161.796875 6.992188 " transform="matrix(0.1,0,0,-0.1,0,140)"/>
<path style="fill:none;stroke-width:5;stroke-linecap:butt;stroke-linejoin:miter;stroke:rgb(0%,0%,0%);stroke-opacity:1;stroke-miterlimit:10;" d="M 1268.515625 1275.039062 L 1258.125 1288.59375 L 1237.03125 1314.414062 L 1229.453125 1323.203125 L 1205.585938 1349.53125 L 1197.578125 1357.851562 L 1174.101562 1381.054688 L 1161.796875 1392.5 " transform="matrix(0.1,0,0,-0.1,0,140)"/>
<path style="fill:none;stroke-width:5;stroke-linecap:butt;stroke-linejoin:miter;stroke:rgb(0%,0%,0%);stroke-opacity:1;stroke-miterlimit:10;" d="M 9.921875 21.09375 L 22.734375 6.992188 " transform="matrix(0.1,0,0,-0.1,0,140)"/>
<path style="fill:none;stroke-width:5;stroke-linecap:butt;stroke-linejoin:miter;stroke:rgb(0%,0%,0%);stroke-opacity:1;stroke-miterlimit:10;" d="M 9.921875 1378.398438 L 22.734375 1392.5 " transform="matrix(0.1,0,0,-0.1,0,140)"/>
<path style="fill:none;stroke-width:5;stroke-linecap:butt;stroke-linejoin:miter;stroke:rgb(0%,0%,0%);stroke-opacity:1;stroke-miterlimit:10;" d="M 1268.515625 21.09375 L 1255.703125 6.992188 " transform="matrix(0.1,0,0,-0.1,0,140)"/>
<path style="fill:none;stroke-width:5;stroke-linecap:butt;stroke-linejoin:miter;stroke:rgb(0%,0%,0%);stroke-opacity:1;stroke-miterlimit:10;" d="M 1268.515625 1378.398438 L 1255.703125 1392.5 " transform="matrix(0.1,0,0,-0.1,0,140)"/>
</g>
</svg>
