<?xml version="1.0" encoding="UTF-8"?>
<svg xmlns="http://www.w3.org/2000/svg" xmlns:xlink="http://www.w3.org/1999/xlink" width="128pt" height="140pt" viewBox="0 0 128 140" version="1.1">
<g id="surface1">
<rect x="0" y="0" width="128" height="140" style="fill:rgb(100%,100%,100%);fill-opacity:1;stroke:none;"/>
<rect x="0" y="0" width="128" height="140" style="fill:rgb(100%,100%,100%);fill-opacity:1;stroke:none;"/>
<path style="fill:none;stroke-width:5;stroke-linecap:butt;stroke-linejoin:miter;stroke:rgb(0%,0%,0%);stroke-opacity:1;stroke-miterlimit:10;" d="M 576.289062 491.914062 L 544.804688 507.65625 L 517.851562 526.5625 L 513.359375 530.390625 L 485.390625 561.210938 L 481.875 566.132812 L 464.726562 595.820312 L 450.429688 630.46875 L 443.164062 665.117188 L 440.742188 699.765625 L 443.164062 734.375 L 450.429688 769.023438 L 464.726562 803.671875 L 481.875 833.359375 L 485.390625 838.320312 L 513.359375 869.101562 L 517.851562 872.929688 L 544.804688 891.835938 L 576.289062 907.578125 L 607.734375 915.585938 L 639.21875 918.242188 L 670.664062 915.585938 L 702.148438 907.578125 L 733.59375 891.835938 L 760.585938 872.929688 L 765.078125 869.101562 L 793.046875 838.320312 L 796.523438 833.359375 L 813.671875 803.671875 L 827.96875 769.023438 L 835.234375 734.375 L 837.65625 699.765625 L 835.234375 665.117188 L 827.96875 630.46875 L 813.671875 595.820312 L 796.523438 566.132812 L 793.046875 561.210938 L 765.078125 530.390625 L 760.585938 526.5625 L 733.59375 507.65625 L 702.148438 491.914062 L 670.664062 483.945312 L 639.21875 481.25 L 607.734375 483.945312 L 576.289062 491.914062 " transform="matrix(0.1,0,0,-0.1,0,140)"/>
<path style="fill:none;stroke-width:5;stroke-linecap:butt;stroke-linejoin:miter;stroke:rgb(0%,0%,0%);stroke-opacity:1;stroke-miterlimit:10;" d="M 920.546875 699.765625 L 918.671875 665.117188 L 913.125 630.46875 L 903.867188 595.820312 L 890.9375 561.210938 L 872.03125 526.5625 L 859.453125 507.65625 L 847.34375 491.914062 L 827.96875 470.625 L 813.671875 457.265625 L 796.523438 443.4375 L 765.078125 422.65625 L 733.59375 408.398438 L 702.148438 398.203125 L 670.664062 392.070312 L 639.21875 390.039062 L 607.734375 392.070312 L 576.289062 398.203125 L 544.804688 408.398438 L 513.359375 422.65625 L 481.875 443.4375 L 464.726562 457.265625 L 450.429688 470.625 L 431.054688 491.914062 L 418.945312 507.65625 L 406.367188 526.5625 L 387.5 561.210938 L 374.53125 595.820312 L 365.273438 630.46875 L 359.726562 665.117188 L 357.851562 699.765625 L 359.726562 734.375 L 365.273438 769.023438 L 374.53125 803.671875 L 387.5 838.320312 L 406.367188 872.929688 L 418.945312 891.835938 L 431.054688 907.578125 L 450.429688 928.90625 L 464.726562 942.226562 L 481.875 956.054688 L 513.359375 976.835938 L 544.804688 991.09375 L 576.289062 1001.289062 L 607.734375 1007.421875 L 639.21875 1009.453125 L 670.664062 1007.421875 L 702.148438 1001.289062 L 733.59375 991.09375 L 765.078125 976.835938 L 796.523438 956.054688 L 813.671875 942.226562 L 827.96875 928.90625 L 847.34375 907.578125 L 859.453125 891.835938 L 872.03125 872.929688 L 890.9375 838.320312 L 903.867188 803.671875 L 913.125 769.023438 L 918.671875 734.375 L 920.546875 699.765625 " transform="matrix(0.1,0,0,-0.1,0,140)"/>
<path style="fill:none;stroke-width:5;stroke-linecap:butt;stroke-linejoin:miter;stroke:rgb(0%,0%,0%);stroke-opacity:1;stroke-miterlimit:10;" d="M 983.828125 699.765625 L 982.304688 665.117188 L 977.8125 630.46875 L 970.3125 595.820312 L 959.84375 561.210938 L 953.867188 545.820312 L 945.585938 526.5625 L 927.34375 491.914062 L 922.382812 483.945312 L 903.867188 457.265625 L 890.9375 441.132812 L 874.140625 422.65625 L 859.453125 408.398438 L 835.234375 388.007812 L 827.96875 382.539062 L 796.523438 362.5 L 779.0625 353.359375 L 765.078125 346.757812 L 733.59375 335.234375 L 702.148438 326.992188 L 670.664062 322.03125 L 639.21875 320.390625 L 607.734375 322.03125 L 576.289062 326.992188 L 544.804688 335.234375 L 513.359375 346.757812 L 499.375 353.359375 L 481.875 362.5 L 450.429688 382.539062 L 443.164062 388.007812 L 418.945312 408.398438 L 404.257812 422.65625 L 387.5 441.132812 L 374.53125 457.265625 L 356.015625 483.945312 L 351.054688 491.914062 L 332.851562 526.5625 L 324.570312 545.820312 L 318.554688 561.210938 L 308.085938 595.820312 L 300.585938 630.46875 L 296.09375 665.117188 L 294.570312 699.765625 L 296.09375 734.375 L 300.585938 769.023438 L 308.085938 803.671875 L 318.554688 838.320312 L 324.570312 853.671875 L 332.851562 872.929688 L 351.054688 907.578125 L 356.015625 915.585938 L 374.53125 942.226562 L 387.5 958.398438 L 404.257812 976.835938 L 418.945312 991.09375 L 443.164062 1011.484375 L 450.429688 1016.953125 L 481.875 1036.992188 L 499.375 1046.132812 L 513.359375 1052.734375 L 544.804688 1064.257812 L 576.289062 1072.539062 L 607.734375 1077.460938 L 639.21875 1079.101562 L 670.664062 1077.460938 L 702.148438 1072.539062 L 733.59375 1064.257812 L 765.078125 1052.734375 L 779.0625 1046.132812 L 796.523438 1036.992188 L 827.96875 1016.953125 L 835.234375 1011.484375 L 859.453125 991.09375 L 874.140625 976.835938 L 890.9375 958.398438 L 903.867188 942.226562 L 922.382812 915.585938 L 927.34375 907.578125 L 945.585938 872.929688 L 953.867188 853.671875 L 959.84375 838.320312 L 970.3125 803.671875 L 977.8125 769.023438 L 982.304688 734.375 L 983.828125 699.765625 " transform="matrix(0.1,0,0,-0.1,0,140)"/>
<path style="fill:none;stroke-width:5;stroke-linecap:butt;stroke-linejoin:miter;stroke:rgb(0%,0%,0%);stroke-opacity:1;stroke-miterlimit:10;" d="M 1036.914062 699.765625 L 1035.664062 665.117188 L 1031.875 630.46875 L 1025.585938 595.820312 L 1016.796875 561.210938 L 1004.453125 526.5625 L 989.414062 491.914062 L 985.3125 483.945312 L 970.3125 457.265625 L 953.867188 431.875 L 947.226562 422.65625 L 922.382812 392.070312 L 918.671875 388.007812 L 890.9375 360.664062 L 882.539062 353.359375 L 859.453125 335.234375 L 835.234375 318.75 L 827.96875 314.21875 L 796.523438 297.65625 L 765.078125 284.101562 L 733.59375 274.414062 L 702.148438 267.460938 L 670.664062 263.320312 L 639.21875 261.953125 L 607.734375 263.320312 L 576.289062 267.460938 L 544.804688 274.414062 L 513.359375 284.101562 L 481.875 297.65625 L 450.429688 314.21875 L 443.164062 318.75 L 418.945312 335.234375 L 395.859375 353.359375 L 387.5 360.664062 L 359.726562 388.007812 L 356.015625 392.070312 L 331.171875 422.65625 L 324.570312 431.875 L 308.085938 457.265625 L 293.085938 483.945312 L 288.984375 491.914062 L 273.945312 526.5625 L 261.640625 561.210938 L 252.8125 595.820312 L 246.523438 630.46875 L 242.734375 665.117188 L 241.484375 699.765625 L 242.734375 734.375 L 246.523438 769.023438 L 252.8125 803.671875 L 261.640625 838.320312 L 273.945312 872.929688 L 288.984375 907.578125 L 293.085938 915.585938 L 308.085938 942.226562 L 324.570312 967.617188 L 331.171875 976.835938 L 356.015625 1007.421875 L 359.726562 1011.484375 L 387.5 1038.828125 L 395.859375 1046.132812 L 418.945312 1064.257812 L 443.164062 1080.742188 L 450.429688 1085.273438 L 481.875 1101.835938 L 513.359375 1115.390625 L 544.804688 1125.117188 L 576.289062 1132.03125 L 607.734375 1136.171875 L 639.21875 1137.578125 L 670.664062 1136.171875 L 702.148438 1132.03125 L 733.59375 1125.117188 L 765.078125 1115.390625 L 796.523438 1101.835938 L 827.96875 1085.273438 L 835.234375 1080.742188 L 859.453125 1064.257812 L 882.539062 1046.132812 L 890.9375 1038.828125 L 918.671875 1011.484375 L 922.382812 1007.421875 L 947.226562 976.835938 L 953.867188 967.617188 L 970.3125 942.226562 L 985.3125 915.585938 L 989.414062 907.578125 L 1004.453125 872.929688 L 1016.796875 838.320312 L 1025.585938 803.671875 L 1031.875 769.023438 L 1035.664062 734.375 L 1036.914062 699.765625 " transform="matrix(0.1,0,0,-0.1,0,140)"/>
<path style="fill:none;stroke-width:5;stroke-linecap:butt;stroke-linejoin:miter;stroke:rgb(0%,0%,0%);stroke-opacity:1;stroke-miterlimit:10;" d="M 576.289062 214.804688 L 544.804688 221.25 L 513.359375 230.234375 L 481.875 241.757812 L 464.726562 249.453125 L 450.429688 256.40625 L 418.945312 274.414062 L 404.257812 284.101562 L 387.5 296.132812 L 359.726562 318.75 L 356.015625 322.03125 L 324.570312 353.359375 L 296.09375 388.007812 L 293.085938 392.070312 L 272.578125 422.65625 L 261.640625 441.132812 L 252.8125 457.265625 L 236.445312 491.914062 L 230.15625 507.65625 L 223.164062 526.5625 L 212.695312 561.210938 L 204.53125 595.820312 L 198.710938 630.46875 L 195.429688 665.117188 L 194.335938 699.765625 L 195.429688 734.375 L 198.710938 769.023438 L 204.53125 803.671875 L 212.695312 838.320312 L 223.164062 872.929688 L 230.15625 891.835938 L 236.445312 907.578125 L 252.8125 942.226562 L 261.640625 958.398438 L 272.578125 976.835938 L 293.085938 1007.421875 L 296.09375 1011.484375 L 324.570312 1046.132812 L 356.015625 1077.460938 L 359.726562 1080.742188 L 387.5 1103.359375 L 404.257812 1115.390625 L 418.945312 1125.117188 L 450.429688 1143.125 L 464.726562 1150.039062 L 481.875 1157.734375 L 513.359375 1169.296875 L 544.804688 1178.242188 L 576.289062 1184.6875 L 607.734375 1188.242188 L 639.21875 1189.453125 L 670.664062 1188.242188 L 702.148438 1184.6875 L 733.59375 1178.242188 L 765.078125 1169.296875 L 796.523438 1157.734375 L 813.671875 1150.039062 L 827.96875 1143.125 L 859.453125 1125.117188 L 874.140625 1115.390625 L 890.9375 1103.359375 L 918.671875 1080.742188 L 922.382812 1077.460938 L 953.867188 1046.132812 L 982.304688 1011.484375 L 985.3125 1007.421875 L 1005.859375 976.835938 L 1016.796875 958.398438 L 1025.585938 942.226562 L 1041.953125 907.578125 L 1048.242188 891.835938 L 1055.234375 872.929688 L 1065.742188 838.320312 L 1073.867188 803.671875 L 1079.726562 769.023438 L 1082.96875 734.375 L 1084.0625 699.765625 L 1082.96875 665.117188 L 1079.726562 630.46875 L 1073.867188 595.820312 L 1065.742188 561.210938 L 1055.234375 526.5625 L 1048.242188 507.65625 L 1041.953125 491.914062 L 1025.585938 457.265625 L 1016.796875 441.132812 L 1005.859375 422.65625 L 985.3125 392.070312 L 982.304688 388.007812 L 953.867188 353.359375 L 922.382812 322.03125 L 918.671875 318.75 L 890.9375 296.132812 L 874.140625 284.101562 L 859.453125 274.414062 L 827.96875 256.40625 L 813.671875 249.453125 L 796.523438 241.757812 L 765.078125 230.234375 L 733.59375 221.25 L 702.148438 214.804688 L 670.664062 211.25 L 639.21875 210.039062 L 607.734375 211.25 L 576.289062 214.804688 " transform="matrix(0.1,0,0,-0.1,0,140)"/>
<path style="fill:none;stroke-width:5;stroke-linecap:butt;stroke-linejoin:miter;stroke:rgb(0%,0%,0%);stroke-opacity:1;stroke-miterlimit:10;" d="M 517.851562 180.195312 L 513.359375 181.367188 L 481.875 192.148438 L 450.429688 205.273438 L 431.054688 214.804688 L 418.945312 221.25 L 387.5 240.46875 L 374.53125 249.453125 L 356.015625 263.320312 L 331.171875 284.101562 L 324.570312 290.117188 L 296.09375 318.75 L 293.085938 322.03125 L 267.109375 353.359375 L 261.640625 360.664062 L 242.734375 388.007812 L 230.15625 408.398438 L 221.992188 422.65625 L 204.53125 457.265625 L 198.710938 470.625 L 190 491.914062 L 178.085938 526.5625 L 168.320312 561.210938 L 167.226562 566.132812 L 161.132812 595.820312 L 156.054688 630.46875 L 153.007812 665.117188 L 151.992188 699.765625 L 153.007812 734.375 L 156.054688 769.023438 L 161.132812 803.671875 L 167.226562 833.359375 L 168.320312 838.320312 L 178.085938 872.929688 L 190 907.578125 L 198.710938 928.90625 L 204.53125 942.226562 L 221.992188 976.835938 L 230.15625 991.09375 L 242.734375 1011.484375 L 261.640625 1038.828125 L 267.109375 1046.132812 L 293.085938 1077.460938 L 296.09375 1080.742188 L 324.570312 1109.375 L 331.171875 1115.390625 L 356.015625 1136.171875 L 374.53125 1150.039062 L 387.5 1159.023438 L 418.945312 1178.242188 L 431.054688 1184.6875 L 450.429688 1194.21875 L 481.875 1207.382812 L 513.359375 1218.125 L 517.851562 1219.296875 L 544.804688 1226.015625 L 576.289062 1231.601562 L 607.734375 1234.960938 L 639.21875 1236.054688 L 670.664062 1234.960938 L 702.148438 1231.601562 L 733.59375 1226.015625 L 760.585938 1219.296875 L 765.078125 1218.125 L 796.523438 1207.382812 L 827.96875 1194.21875 L 847.34375 1184.6875 L 859.453125 1178.242188 L 890.9375 1159.023438 L 903.867188 1150.039062 L 922.382812 1136.171875 L 947.226562 1115.390625 L 953.867188 1109.375 L 982.304688 1080.742188 L 985.3125 1077.460938 L 1011.328125 1046.132812 L 1016.796875 1038.828125 L 1035.664062 1011.484375 L 1048.242188 991.09375 L 1056.40625 976.835938 L 1073.867188 942.226562 L 1079.726562 928.90625 L 1088.398438 907.578125 L 1100.3125 872.929688 L 1110.078125 838.320312 L 1111.171875 833.359375 L 1117.265625 803.671875 L 1122.34375 769.023438 L 1125.390625 734.375 L 1126.40625 699.765625 L 1125.390625 665.117188 L 1122.34375 630.46875 L 1117.265625 595.820312 L 1111.171875 566.132812 L 1110.078125 561.210938 L 1100.3125 526.5625 L 1088.398438 491.914062 L 1079.726562 470.625 L 1073.867188 457.265625 L 1056.40625 422.65625 L 1048.242188 408.398438 L 1035.664062 388.007812 L 1016.796875 360.664062 L 1011.328125 353.359375 L 985.3125 322.03125 L 982.304688 318.75 L 953.867188 290.117188 L 947.226562 284.101562 L 922.382812 263.320312 L 903.867188 249.453125 L 890.9375 240.46875 L 859.453125 221.25 L 847.34375 214.804688 L 827.96875 205.273438 L 796.523438 192.148438 L 765.078125 181.367188 L 760.585938 180.195312 L 733.59375 173.476562 L 702.148438 167.890625 L 670.664062 164.53125 L 639.21875 163.4375 L 607.734375 164.53125 L 576.289062 167.890625 L 544.804688 173.476562 L 517.851562 180.195312 " transform="matrix(0.1,0,0,-0.1,0,140)"/>
<path style="fill:none;stroke-width:5;stroke-linecap:butt;stroke-linejoin:miter;stroke:rgb(0%,0%,0%);stroke-opacity:1;stroke-miterlimit:10;" d="M 1165.507812 699.765625 L 1164.570312 665.117188 L 1161.71875 630.46875 L 1156.953125 595.820312 L 1150.273438 561.210938 L 1142.65625 530.390625 L 1141.640625 526.5625 L 1130.46875 491.914062 L 1117.265625 457.265625 L 1111.171875 443.4375 L 1101.40625 422.65625 L 1082.96875 388.007812 L 1079.726562 382.539062 L 1061.054688 353.359375 L 1048.242188 335.234375 L 1035.664062 318.75 L 1016.796875 296.132812 L 1005.859375 284.101562 L 985.3125 263.320312 L 970.3125 249.453125 L 953.867188 235.351562 L 927.34375 214.804688 L 922.382812 211.25 L 890.9375 190.9375 L 872.03125 180.195312 L 859.453125 173.476562 L 827.96875 158.945312 L 796.523438 146.679688 L 793.046875 145.546875 L 765.078125 137.148438 L 733.59375 129.804688 L 702.148438 124.570312 L 670.664062 121.40625 L 639.21875 120.351562 L 607.734375 121.40625 L 576.289062 124.570312 L 544.804688 129.804688 L 513.359375 137.148438 L 485.390625 145.546875 L 481.875 146.679688 L 450.429688 158.945312 L 418.945312 173.476562 L 406.367188 180.195312 L 387.5 190.9375 L 356.015625 211.25 L 351.054688 214.804688 L 324.570312 235.351562 L 308.085938 249.453125 L 293.085938 263.320312 L 272.578125 284.101562 L 261.640625 296.132812 L 242.734375 318.75 L 230.15625 335.234375 L 217.34375 353.359375 L 198.710938 382.539062 L 195.429688 388.007812 L 176.992188 422.65625 L 167.226562 443.4375 L 161.132812 457.265625 L 147.929688 491.914062 L 136.796875 526.5625 L 135.78125 530.390625 L 128.125 561.210938 L 121.484375 595.820312 L 116.679688 630.46875 L 113.828125 665.117188 L 112.890625 699.765625 L 113.828125 734.375 L 116.679688 769.023438 L 121.484375 803.671875 L 128.125 838.320312 L 135.78125 869.101562 L 136.796875 872.929688 L 147.929688 907.578125 L 161.132812 942.226562 L 167.226562 956.054688 L 176.992188 976.835938 L 195.429688 1011.484375 L 198.710938 1016.953125 L 217.34375 1046.132812 L 230.15625 1064.257812 L 242.734375 1080.742188 L 261.640625 1103.359375 L 272.578125 1115.390625 L 293.085938 1136.171875 L 308.085938 1150.039062 L 324.570312 1164.140625 L 351.054688 1184.6875 L 356.015625 1188.242188 L 387.5 1208.554688 L 406.367188 1219.296875 L 418.945312 1226.015625 L 450.429688 1240.546875 L 481.875 1252.8125 L 485.390625 1253.945312 L 513.359375 1262.34375 L 544.804688 1269.6875 L 576.289062 1274.921875 L 607.734375 1278.085938 L 639.21875 1279.140625 L 670.664062 1278.085938 L 702.148438 1274.921875 L 733.59375 1269.6875 L 765.078125 1262.34375 L 793.046875 1253.945312 L 796.523438 1252.8125 L 827.96875 1240.546875 L 859.453125 1226.015625 L 872.03125 1219.296875 L 890.9375 1208.554688 L 922.382812 1188.242188 L 927.34375 1184.6875 L 953.867188 1164.140625 L 970.3125 1150.039062 L 985.3125 1136.171875 L 1005.859375 1115.390625 L 1016.796875 1103.359375 L 1035.664062 1080.742188 L 1048.242188 1064.257812 L 1061.054688 1046.132812 L 1079.726562 1016.953125 L 1082.96875 1011.484375 L 1101.40625 976.835938 L 1111.171875 956.054688 L 1117.265625 942.226562 L 1130.46875 907.578125 L 1141.640625 872.929688 L 1142.65625 869.101562 L 1150.273438 838.320312 L 1156.953125 803.671875 L 1161.71875 769.023438 L 1164.570312 734.375 L 1165.507812 699.765625 " transform="matrix(0.1,0,0,-0.1,0,140)"/>
<path style="fill:none;stroke-width:5;stroke-linecap:butt;stroke-linejoin:miter;stroke:rgb(0%,0%,0%);stroke-opacity:1;stroke-miterlimit:10;" d="M 1201.953125 699.765625 L 1201.09375 665.117188 L 1198.398438 630.46875 L 1193.867188 595.820312 L 1187.578125 561.210938 L 1179.492188 526.5625 L 1174.101562 507.65625 L 1169.335938 491.914062 L 1156.953125 457.265625 L 1142.65625 422.65625 L 1125.390625 388.007812 L 1111.171875 362.5 L 1105.742188 353.359375 L 1082.96875 318.75 L 1079.726562 314.21875 L 1056.40625 284.101562 L 1048.242188 274.414062 L 1025.585938 249.453125 L 1016.796875 240.46875 L 989.414062 214.804688 L 985.3125 211.25 L 953.867188 186.171875 L 945.585938 180.195312 L 922.382812 164.53125 L 890.9375 145.546875 L 859.453125 129.804688 L 827.96875 116.171875 L 813.671875 110.898438 L 796.523438 104.960938 L 765.078125 96.054688 L 733.59375 89.140625 L 702.148438 84.179688 L 670.664062 81.210938 L 639.21875 80.234375 L 607.734375 81.210938 L 576.289062 84.179688 L 544.804688 89.140625 L 513.359375 96.054688 L 481.875 104.960938 L 464.726562 110.898438 L 450.429688 116.171875 L 418.945312 129.804688 L 387.5 145.546875 L 356.015625 164.53125 L 332.851562 180.195312 L 324.570312 186.171875 L 293.085938 211.25 L 288.984375 214.804688 L 261.640625 240.46875 L 252.8125 249.453125 L 230.15625 274.414062 L 221.992188 284.101562 L 198.710938 314.21875 L 195.429688 318.75 L 172.65625 353.359375 L 167.226562 362.5 L 153.007812 388.007812 L 135.78125 422.65625 L 121.484375 457.265625 L 109.0625 491.914062 L 104.296875 507.65625 L 98.90625 526.5625 L 90.820312 561.210938 L 84.53125 595.820312 L 80.039062 630.46875 L 77.34375 665.117188 L 76.445312 699.765625 L 77.34375 734.375 L 80.039062 769.023438 L 84.53125 803.671875 L 90.820312 838.320312 L 98.90625 872.929688 L 104.296875 891.835938 L 109.0625 907.578125 L 121.484375 942.226562 L 135.78125 976.835938 L 153.007812 1011.484375 L 167.226562 1036.992188 L 172.65625 1046.132812 L 195.429688 1080.742188 L 198.710938 1085.273438 L 221.992188 1115.390625 L 230.15625 1125.117188 L 252.8125 1150.039062 L 261.640625 1159.023438 L 288.984375 1184.6875 L 293.085938 1188.242188 L 324.570312 1213.359375 L 332.851562 1219.296875 L 356.015625 1234.960938 L 387.5 1253.945312 L 418.945312 1269.6875 L 450.429688 1283.359375 L 464.726562 1288.59375 L 481.875 1294.53125 L 513.359375 1303.4375 L 544.804688 1310.351562 L 576.289062 1315.3125 L 607.734375 1318.28125 L 639.21875 1319.257812 L 670.664062 1318.28125 L 702.148438 1315.3125 L 733.59375 1310.351562 L 765.078125 1303.4375 L 796.523438 1294.53125 L 813.671875 1288.59375 L 827.96875 1283.359375 L 859.453125 1269.6875 L 890.9375 1253.945312 L 922.382812 1234.960938 L 945.585938 1219.296875 L 953.867188 1213.359375 L 985.3125 1188.242188 L 989.414062 1184.6875 L 1016.796875 1159.023438 L 1025.585938 1150.039062 L 1048.242188 1125.117188 L 1056.40625 1115.390625 L 1079.726562 1085.273438 L 1082.96875 1080.742188 L 1105.742188 1046.132812 L 1111.171875 1036.992188 L 1125.390625 1011.484375 L 1142.65625 976.835938 L 1156.953125 942.226562 L 1169.335938 907.578125 L 1174.101562 891.835938 L 1179.492188 872.929688 L 1187.578125 838.320312 L 1193.867188 803.671875 L 1198.398438 769.023438 L 1201.09375 734.375 L 1201.953125 699.765625 " transform="matrix(0.1,0,0,-0.1,0,140)"/>
<path style="fill:none;stroke-width:5;stroke-linecap:butt;stroke-linejoin:miter;stroke:rgb(0%,0%,0%);stroke-opacity:1;stroke-miterlimit:10;" d="M 1236.171875 699.765625 L 1235.3125 665.117188 L 1232.773438 630.46875 L 1228.515625 595.820312 L 1222.578125 561.210938 L 1214.921875 526.5625 L 1205.585938 491.914062 L 1193.867188 457.265625 L 1180.390625 422.65625 L 1174.101562 408.398438 L 1164.570312 388.007812 L 1146.445312 353.359375 L 1142.65625 346.757812 L 1125.390625 318.75 L 1111.171875 297.65625 L 1101.40625 284.101562 L 1079.726562 256.40625 L 1073.867188 249.453125 L 1048.242188 221.25 L 1041.953125 214.804688 L 1016.796875 190.9375 L 1004.453125 180.195312 L 985.3125 164.53125 L 959.84375 145.546875 L 953.867188 141.367188 L 922.382812 121.40625 L 903.867188 110.898438 L 890.9375 103.984375 L 859.453125 89.140625 L 827.96875 76.289062 L 796.523438 65.976562 L 765.078125 57.539062 L 733.59375 51.015625 L 702.148438 46.328125 L 670.664062 43.515625 L 639.21875 42.578125 L 607.734375 43.515625 L 576.289062 46.328125 L 544.804688 51.015625 L 513.359375 57.539062 L 481.875 65.976562 L 450.429688 76.289062 L 418.945312 89.140625 L 387.5 103.984375 L 374.53125 110.898438 L 356.015625 121.40625 L 324.570312 141.367188 L 318.554688 145.546875 L 293.085938 164.53125 L 273.945312 180.195312 L 261.640625 190.9375 L 236.445312 214.804688 L 230.15625 221.25 L 204.53125 249.453125 L 198.710938 256.40625 L 176.992188 284.101562 L 167.226562 297.65625 L 153.007812 318.75 L 135.78125 346.757812 L 131.953125 353.359375 L 113.828125 388.007812 L 104.296875 408.398438 L 98.007812 422.65625 L 84.53125 457.265625 L 72.851562 491.914062 L 63.476562 526.5625 L 55.820312 561.210938 L 49.882812 595.820312 L 45.625 630.46875 L 43.085938 665.117188 L 42.226562 699.765625 L 43.085938 734.375 L 45.625 769.023438 L 49.882812 803.671875 L 55.820312 838.320312 L 63.476562 872.929688 L 72.851562 907.578125 L 84.53125 942.226562 L 98.007812 976.835938 L 104.296875 991.09375 L 113.828125 1011.484375 L 131.953125 1046.132812 L 135.78125 1052.734375 L 153.007812 1080.742188 L 167.226562 1101.835938 L 176.992188 1115.390625 L 198.710938 1143.125 L 204.53125 1150.039062 L 230.15625 1178.242188 L 236.445312 1184.6875 L 261.640625 1208.554688 L 273.945312 1219.296875 L 293.085938 1234.960938 L 318.554688 1253.945312 L 324.570312 1258.164062 L 356.015625 1278.085938 L 374.53125 1288.59375 L 387.5 1295.507812 L 418.945312 1310.351562 L 450.429688 1323.203125 L 481.875 1333.515625 L 513.359375 1341.953125 L 544.804688 1348.515625 L 576.289062 1353.164062 L 607.734375 1355.976562 L 639.21875 1356.914062 L 670.664062 1355.976562 L 702.148438 1353.164062 L 733.59375 1348.515625 L 765.078125 1341.953125 L 796.523438 1333.515625 L 827.96875 1323.203125 L 859.453125 1310.351562 L 890.9375 1295.507812 L 903.867188 1288.59375 L 922.382812 1278.085938 L 953.867188 1258.164062 L 959.84375 1253.945312 L 985.3125 1234.960938 L 1004.453125 1219.296875 L 1016.796875 1208.554688 L 1041.953125 1184.6875 L 1048.242188 1178.242188 L 1073.867188 1150.039062 L 1079.726562 1143.125 L 1101.40625 1115.390625 L 1111.171875 1101.835938 L 1125.390625 1080.742188 L 1142.65625 1052.734375 L 1146.445312 1046.132812 L 1164.570312 1011.484375 L 1174.101562 991.09375 L 1180.390625 976.835938 L 1193.867188 942.226562 L 1205.585938 907.578125 L 1214.921875 872.929688 L 1222.578125 838.320312 L 1228.515625 803.671875 L 1232.773438 769.023438 L 1235.3125 734.375 L 1236.171875 699.765625 " transform="matrix(0.1,0,0,-0.1,0,140)"/>
<path style="fill:none;stroke-width:5;stroke-linecap:butt;stroke-linejoin:miter;stroke:rgb(0%,0%,0%);stroke-opacity:1;stroke-miterlimit:10;" d="M 1268.515625 699.765625 L 1267.695312 665.117188 L 1265.273438 630.46875 L 1261.25 595.820312 L 1255.585938 561.210938 L 1248.320312 526.5625 L 1239.453125 491.914062 L 1237.03125 483.945312 L 1228.515625 457.265625 L 1215.78125 422.65625 L 1205.585938 398.203125 L 1201.09375 388.007812 L 1183.984375 353.359375 L 1174.101562 335.234375 L 1164.570312 318.75 L 1142.65625 284.101562 L 1117.265625 249.453125 L 1111.171875 241.757812 L 1088.398438 214.804688 L 1079.726562 205.273438 L 1055.234375 180.195312 L 1048.242188 173.476562 L 1016.796875 145.546875 L 985.3125 121.40625 L 970.3125 110.898438 L 953.867188 100.039062 L 922.382812 81.210938 L 913.125 76.289062 L 890.9375 65.039062 L 859.453125 51.015625 L 835.234375 41.640625 L 827.96875 38.984375 L 796.523438 29.21875 L 765.078125 21.210938 L 733.59375 15 L 702.148438 10.546875 L 670.664062 7.890625 L 639.21875 6.992188 L 607.734375 7.890625 L 576.289062 10.546875 L 544.804688 15 L 513.359375 21.210938 L 481.875 29.21875 L 450.429688 38.984375 L 443.164062 41.640625 L 418.945312 51.015625 L 387.5 65.039062 L 365.273438 76.289062 L 356.015625 81.210938 L 324.570312 100.039062 L 308.085938 110.898438 L 293.085938 121.40625 L 261.640625 145.546875 L 230.15625 173.476562 L 223.164062 180.195312 L 198.710938 205.273438 L 190 214.804688 L 167.226562 241.757812 L 161.132812 249.453125 L 135.78125 284.101562 L 113.828125 318.75 L 104.296875 335.234375 L 94.414062 353.359375 L 77.34375 388.007812 L 72.851562 398.203125 L 62.617188 422.65625 L 49.882812 457.265625 L 41.367188 483.945312 L 38.945312 491.914062 L 30.078125 526.5625 L 22.8125 561.210938 L 17.1875 595.820312 L 13.125 630.46875 L 10.703125 665.117188 L 9.921875 699.765625 L 10.703125 734.375 L 13.125 769.023438 L 17.1875 803.671875 L 22.8125 838.320312 L 30.078125 872.929688 L 38.945312 907.578125 L 41.367188 915.585938 L 49.882812 942.226562 L 62.617188 976.835938 L 72.851562 1001.289062 L 77.34375 1011.484375 L 94.414062 1046.132812 L 104.296875 1064.257812 L 113.828125 1080.742188 L 135.78125 1115.390625 L 161.132812 1150.039062 L 167.226562 1157.734375 L 190 1184.6875 L 198.710938 1194.21875 L 223.164062 1219.296875 L 230.15625 1226.015625 L 261.640625 1253.945312 L 293.085938 1278.085938 L 308.085938 1288.59375 L 324.570312 1299.453125 L 356.015625 1318.28125 L 365.273438 1323.203125 L 387.5 1334.453125 L 418.945312 1348.515625 L 443.164062 1357.851562 L 450.429688 1360.546875 L 481.875 1370.3125 L 513.359375 1378.28125 L 544.804688 1384.492188 L 576.289062 1388.945312 L 607.734375 1391.601562 L 639.21875 1392.5 L 670.664062 1391.601562 L 702.148438 1388.945312 L 733.59375 1384.492188 L 765.078125 1378.28125 L 796.523438 1370.3125 L 827.96875 1360.546875 L 835.234375 1357.851562 L 859.453125 1348.515625 L 890.9375 1334.453125 L 913.125 1323.203125 L 922.382812 1318.28125 L 953.867188 1299.453125 L 970.3125 1288.59375 L 985.3125 1278.085938 L 1016.796875 1253.945312 L 1048.242188 1226.015625 L 1055.234375 1219.296875 L 1079.726562 1194.21875 L 1088.398438 1184.6875 L 1111.171875 1157.734375 L 1117.265625 1150.039062 L 1142.65625 1115.390625 L 1164.570312 1080.742188 L 1174.101562 1064.257812 L 1183.984375 1046.132812 L 1201.09375 1011.484375 L 1205.585938 1001.289062 L 1215.78125 976.835938 L 1228.515625 942.226562 L 1237.03125 915.585938 L 1239.453125 907.578125 L 1248.320312 872.929688 L 1255.585938 838.320312 L 1261.25 803.671875 L 1265.273438 769.023438 L 1267.695312 734.375 L 1268.515625 699.765625 " transform="matrix(0.1,0,0,-0.1,0,140)"/>
<path style="fill:none;stroke-width:5;stroke-linecap:butt;stroke-linejoin:miter;stroke:rgb(0%,0%,0%);stroke-opacity:1;stroke-miterlimit:10;" d="M 9.921875 481.25 L 17.1875 457.265625 L 29.257812 422.65625 L 41.367188 392.070312 L 43.085938 388.007812 L 59.21875 353.359375 L 72.851562 326.992188 L 77.34375 318.75 L 98.007812 284.101562 L 104.296875 274.414062 L 121.484375 249.453125 L 135.78125 230.234375 L 147.929688 214.804688 L 167.226562 192.148438 L 178.085938 180.195312 L 198.710938 158.945312 L 212.695312 145.546875 L 230.15625 129.804688 L 252.8125 110.898438 L 261.640625 103.984375 L 293.085938 81.210938 L 300.585938 76.289062 L 324.570312 61.289062 L 356.015625 43.515625 L 359.726562 41.640625 L 387.5 28.320312 L 418.945312 15 L 440.742188 6.992188 " transform="matrix(0.1,0,0,-0.1,0,140)"/>
<path style="fill:none;stroke-width:5;stroke-linecap:butt;stroke-linejoin:miter;stroke:rgb(0%,0%,0%);stroke-opacity:1;stroke-miterlimit:10;" d="M 9.921875 918.242188 L 17.1875 942.226562 L 29.257812 976.835938 L 41.367188 1007.421875 L 43.085938 1011.484375 L 59.21875 1046.132812 L 72.851562 1072.539062 L 77.34375 1080.742188 L 98.007812 1115.390625 L 104.296875 1125.117188 L 121.484375 1150.039062 L 135.78125 1169.296875 L 147.929688 1184.6875 L 167.226562 1207.382812 L 178.085938 1219.296875 L 198.710938 1240.546875 L 212.695312 1253.945312 L 230.15625 1269.6875 L 252.8125 1288.59375 L 261.640625 1295.507812 L 293.085938 1318.28125 L 300.585938 1323.203125 L 324.570312 1338.203125 L 356.015625 1355.976562 L 359.726562 1357.851562 L 387.5 1371.171875 L 418.945312 1384.492188 L 440.742188 1392.5 " transform="matrix(0.1,0,0,-0.1,0,140)"/>
<path style="fill:none;stroke-width:5;stroke-linecap:butt;stroke-linejoin:miter;stroke:rgb(0%,0%,0%);stroke-opacity:1;stroke-miterlimit:10;" d="M 1268.515625 481.25 L 1261.25 457.265625 L 1249.140625 422.65625 L 1237.03125 392.070312 L 1235.3125 388.007812 L 1219.179688 353.359375 L 1205.585938 326.992188 L 1201.09375 318.75 L 1180.390625 284.101562 L 1174.101562 274.414062 L 1156.953125 249.453125 L 1142.65625 230.234375 L 1130.46875 214.804688 L 1111.171875 192.148438 L 1100.3125 180.195312 L 1079.726562 158.945312 L 1065.742188 145.546875 L 1048.242188 129.804688 L 1025.585938 110.898438 L 1016.796875 103.984375 L 985.3125 81.210938 L 977.8125 76.289062 L 953.867188 61.289062 L 922.382812 43.515625 L 918.671875 41.640625 L 890.9375 28.320312 L 859.453125 15 L 837.65625 6.992188 " transform="matrix(0.1,0,0,-0.1,0,140)"/>
<path style="fill:none;stroke-width:5;stroke-linecap:butt;stroke-linejoin:miter;stroke:rgb(0%,0%,0%);stroke-opacity:1;stroke-miterlimit:10;" d="M 1268.515625 918.242188 L 1261.25 942.226562 L 1249.140625 976.835938 L 1237.03125 1007.421875 L 1235.3125 1011.484375 L 1219.179688 1046.132812 L 1205.585938 1072.539062 L 1201.09375 1080.742188 L 1180.390625 1115.390625 L 1174.101562 1125.117188 L 1156.953125 1150.039062 L 1142.65625 1169.296875 L 1130.46875 1184.6875 L 1111.171875 1207.382812 L 1100.3125 1219.296875 L 1079.726562 1240.546875 L 1065.742188 1253.945312 L 1048.242188 1269.6875 L 1025.585938 1288.59375 L 1016.796875 1295.507812 L 985.3125 1318.28125 L 977.8125 1323.203125 L 953.867188 1338.203125 L 922.382812 1355.976562 L 918.671875 1357.851562 L 890.9375 1371.171875 L 859.453125 1384.492188 L 837.65625 1392.5 " transform="matrix(0.1,0,0,-0.1,0,140)"/>
<path style="fill:none;stroke-width:5;stroke-linecap:butt;stroke-linejoin:miter;stroke:rgb(0%,0%,0%);stroke-opacity:1;stroke-miterlimit:10;" d="M 9.921875 390.039062 L 10.703125 388.007812 L 26.054688 353.359375 L 41.367188 322.03125 L 43.085938 318.75 L 62.617188 284.101562 L 72.851562 267.460938 L 84.53125 249.453125 L 104.296875 221.25 L 109.0625 214.804688 L 135.78125 181.367188 L 136.796875 180.195312 L 167.226562 146.679688 L 168.320312 145.546875 L 198.710938 116.171875 L 204.53125 110.898438 L 230.15625 89.140625 L 246.523438 76.289062 L 261.640625 65.039062 L 293.085938 43.515625 L 296.09375 41.640625 L 324.570312 24.765625 L 356.015625 7.890625 L 357.851562 6.992188 " transform="matrix(0.1,0,0,-0.1,0,140)"/>
<path style="fill:none;stroke-width:5;stroke-linecap:butt;stroke-linejoin:miter;stroke:rgb(0%,0%,0%);stroke-opacity:1;stroke-miterlimit:10;" d="M 9.921875 1009.453125 L 10.703125 1011.484375 L 26.054688 1046.132812 L 41.367188 1077.460938 L 43.085938 1080.742188 L 62.617188 1115.390625 L 72.851562 1132.03125 L 84.53125 1150.039062 L 104.296875 1178.242188 L 109.0625 1184.6875 L 135.78125 1218.125 L 136.796875 1219.296875 L 167.226562 1252.8125 L 168.320312 1253.945312 L 198.710938 1283.359375 L 204.53125 1288.59375 L 230.15625 1310.351562 L 246.523438 1323.203125 L 261.640625 1334.453125 L 293.085938 1355.976562 L 296.09375 1357.851562 L 324.570312 1374.726562 L 356.015625 1391.601562 L 357.851562 1392.5 " transform="matrix(0.1,0,0,-0.1,0,140)"/>
<path style="fill:none;stroke-width:5;stroke-linecap:butt;stroke-linejoin:miter;stroke:rgb(0%,0%,0%);stroke-opacity:1;stroke-miterlimit:10;" d="M 1268.515625 390.039062 L 1267.695312 388.007812 L 1252.34375 353.359375 L 1237.03125 322.03125 L 1235.3125 318.75 L 1215.78125 284.101562 L 1205.585938 267.460938 L 1193.867188 249.453125 L 1174.101562 221.25 L 1169.335938 214.804688 L 1142.65625 181.367188 L 1141.640625 180.195312 L 1111.171875 146.679688 L 1110.078125 145.546875 L 1079.726562 116.171875 L 1073.867188 110.898438 L 1048.242188 89.140625 L 1031.875 76.289062 L 1016.796875 65.039062 L 985.3125 43.515625 L 982.304688 41.640625 L 953.867188 24.765625 L 922.382812 7.890625 L 920.546875 6.992188 " transform="matrix(0.1,0,0,-0.1,0,140)"/>
<path style="fill:none;stroke-width:5;stroke-linecap:butt;stroke-linejoin:miter;stroke:rgb(0%,0%,0%);stroke-opacity:1;stroke-miterlimit:10;" d="M 1268.515625 1009.453125 L 1267.695312 1011.484375 L 1252.34375 1046.132812 L 1237.03125 1077.460938 L 1235.3125 1080.742188 L 1215.78125 1115.390625 L 1205.585938 1132.03125 L 1193.867188 1150.039062 L 1174.101562 1178.242188 L 1169.335938 1184.6875 L 1142.65625 1218.125 L 1141.640625 1219.296875 L 1111.171875 1252.8125 L 1110.078125 1253.945312 L 1079.726562 1283.359375 L 1073.867188 1288.59375 L 1048.242188 1310.351562 L 1031.875 1323.203125 L 1016.796875 1334.453125 L 985.3125 1355.976562 L 982.304688 1357.851562 L 953.867188 1374.726562 L 922.382812 1391.601562 L 920.546875 1392.5 " transform="matrix(0.1,0,0,-0.1,0,140)"/>
<path style="fill:none;stroke-width:5;stroke-linecap:butt;stroke-linejoin:miter;stroke:rgb(0%,0%,0%);stroke-opacity:1;stroke-miterlimit:10;" d="M 9.921875 320.390625 L 10.703125 318.75 L 29.257812 284.101562 L 41.367188 263.320312 L 49.882812 249.453125 L 72.851562 214.804688 L 98.90625 180.195312 L 104.296875 173.476562 L 128.125 145.546875 L 135.78125 137.148438 L 161.132812 110.898438 L 167.226562 104.960938 L 198.710938 76.289062 L 230.15625 51.015625 L 242.734375 41.640625 L 261.640625 28.320312 L 293.085938 7.890625 L 294.570312 6.992188 " transform="matrix(0.1,0,0,-0.1,0,140)"/>
<path style="fill:none;stroke-width:5;stroke-linecap:butt;stroke-linejoin:miter;stroke:rgb(0%,0%,0%);stroke-opacity:1;stroke-miterlimit:10;" d="M 9.921875 1079.101562 L 10.703125 1080.742188 L 29.257812 1115.390625 L 41.367188 1136.171875 L 49.882812 1150.039062 L 72.851562 1184.6875 L 98.90625 1219.296875 L 104.296875 1226.015625 L 128.125 1253.945312 L 135.78125 1262.34375 L 161.132812 1288.59375 L 167.226562 1294.53125 L 198.710938 1323.203125 L 230.15625 1348.515625 L 242.734375 1357.851562 L 261.640625 1371.171875 L 293.085938 1391.601562 L 294.570312 1392.5 " transform="matrix(0.1,0,0,-0.1,0,140)"/>
<path style="fill:none;stroke-width:5;stroke-linecap:butt;stroke-linejoin:miter;stroke:rgb(0%,0%,0%);stroke-opacity:1;stroke-miterlimit:10;" d="M 1268.515625 320.390625 L 1267.695312 318.75 L 1249.140625 284.101562 L 1237.03125 263.320312 L 1228.515625 249.453125 L 1205.585938 214.804688 L 1179.492188 180.195312 L 1174.101562 173.476562 L 1150.273438 145.546875 L 1142.65625 137.148438 L 1117.265625 110.898438 L 1111.171875 104.960938 L 1079.726562 76.289062 L 1048.242188 51.015625 L 1035.664062 41.640625 L 1016.796875 28.320312 L 985.3125 7.890625 L 983.828125 6.992188 " transform="matrix(0.1,0,0,-0.1,0,140)"/>
<path style="fill:none;stroke-width:5;stroke-linecap:butt;stroke-linejoin:miter;stroke:rgb(0%,0%,0%);stroke-opacity:1;stroke-miterlimit:10;" d="M 1268.515625 1079.101562 L 1267.695312 1080.742188 L 1249.140625 1115.390625 L 1237.03125 1136.171875 L 1228.515625 1150.039062 L 1205.585938 1184.6875 L 1179.492188 1219.296875 L 1174.101562 1226.015625 L 1150.273438 1253.945312 L 1142.65625 1262.34375 L 1117.265625 1288.59375 L 1111.171875 1294.53125 L 1079.726562 1323.203125 L 1048.242188 1348.515625 L 1035.664062 1357.851562 L 1016.796875 1371.171875 L 985.3125 1391.601562 L 983.828125 1392.5 " transform="matrix(0.1,0,0,-0.1,0,140)"/>
<path style="fill:none;stroke-width:5;stroke-linecap:butt;stroke-linejoin:miter;stroke:rgb(0%,0%,0%);stroke-opacity:1;stroke-miterlimit:10;" d="M 9.921875 261.953125 L 17.1875 249.453125 L 38.945312 214.804688 L 41.367188 211.25 L 63.476562 180.195312 L 72.851562 167.890625 L 90.820312 145.546875 L 104.296875 129.804688 L 121.484375 110.898438 L 135.78125 96.054688 L 156.054688 76.289062 L 167.226562 65.976562 L 195.429688 41.640625 L 198.710938 38.984375 L 230.15625 15 L 241.484375 6.992188 " transform="matrix(0.1,0,0,-0.1,0,140)"/>
<path style="fill:none;stroke-width:5;stroke-linecap:butt;stroke-linejoin:miter;stroke:rgb(0%,0%,0%);stroke-opacity:1;stroke-miterlimit:10;" d="M 9.921875 1137.578125 L 17.1875 1150.039062 L 38.945312 1184.6875 L 41.367188 1188.242188 L 63.476562 1219.296875 L 72.851562 1231.601562 L 90.820312 1253.945312 L 104.296875 1269.6875 L 121.484375 1288.59375 L 135.78125 1303.4375 L 156.054688 1323.203125 L 167.226562 1333.515625 L 195.429688 1357.851562 L 198.710938 1360.546875 L 230.15625 1384.492188 L 241.484375 1392.5 " transform="matrix(0.1,0,0,-0.1,0,140)"/>
<path style="fill:none;stroke-width:5;stroke-linecap:butt;stroke-linejoin:miter;stroke:rgb(0%,0%,0%);stroke-opacity:1;stroke-miterlimit:10;" d="M 1268.515625 261.953125 L 1261.25 249.453125 L 1239.453125 214.804688 L 1237.03125 211.25 L 1214.921875 180.195312 L 1205.585938 167.890625 L 1187.578125 145.546875 L 1174.101562 129.804688 L 1156.953125 110.898438 L 1142.65625 96.054688 L 1122.34375 76.289062 L 1111.171875 65.976562 L 1082.96875 41.640625 L 1079.726562 38.984375 L 1048.242188 15 L 1036.914062 6.992188 " transform="matrix(0.1,0,0,-0.1,0,140)"/>
<path style="fill:none;stroke-width:5;stroke-linecap:butt;stroke-linejoin:miter;stroke:rgb(0%,0%,0%);stroke-opacity:1;stroke-miterlimit:10;" d="M 1268.515625 1137.578125 L 1261.25 1150.039062 L 1239.453125 1184.6875 L 1237.03125 1188.242188 L 1214.921875 1219.296875 L 1205.585938 1231.601562 L 1187.578125 1253.945312 L 1174.101562 1269.6875 L 1156.953125 1288.59375 L 1142.65625 1303.4375 L 1122.34375 1323.203125 L 1111.171875 1333.515625 L 1082.96875 1357.851562 L 1079.726562 1360.546875 L 1048.242188 1384.492188 L 1036.914062 1392.5 " transform="matrix(0.1,0,0,-0.1,0,140)"/>
<path style="fill:none;stroke-width:5;stroke-linecap:butt;stroke-linejoin:miter;stroke:rgb(0%,0%,0%);stroke-opacity:1;stroke-miterlimit:10;" d="M 9.921875 210.039062 L 30.078125 180.195312 L 41.367188 164.53125 L 55.820312 145.546875 L 72.851562 124.570312 L 84.53125 110.898438 L 104.296875 89.140625 L 116.679688 76.289062 L 135.78125 57.539062 L 153.007812 41.640625 L 167.226562 29.21875 L 194.335938 6.992188 " transform="matrix(0.1,0,0,-0.1,0,140)"/>
<path style="fill:none;stroke-width:5;stroke-linecap:butt;stroke-linejoin:miter;stroke:rgb(0%,0%,0%);stroke-opacity:1;stroke-miterlimit:10;" d="M 9.921875 1189.453125 L 30.078125 1219.296875 L 41.367188 1234.960938 L 55.820312 1253.945312 L 72.851562 1274.921875 L 84.53125 1288.59375 L 104.296875 1310.351562 L 116.679688 1323.203125 L 135.78125 1341.953125 L 153.007812 1357.851562 L 167.226562 1370.3125 L 194.335938 1392.5 " transform="matrix(0.1,0,0,-0.1,0,140)"/>
<path style="fill:none;stroke-width:5;stroke-linecap:butt;stroke-linejoin:miter;stroke:rgb(0%,0%,0%);stroke-opacity:1;stroke-miterlimit:10;" d="M 1268.515625 210.039062 L 1248.320312 180.195312 L 1237.03125 164.53125 L 1222.578125 145.546875 L 1205.585938 124.570312 L 1193.867188 110.898438 L 1174.101562 89.140625 L 1161.71875 76.289062 L 1142.65625 57.539062 L 1125.390625 41.640625 L 1111.171875 29.21875 L 1084.0625 6.992188 " transform="matrix(0.1,0,0,-0.1,0,140)"/>
<path style="fill:none;stroke-width:5;stroke-linecap:butt;stroke-linejoin:miter;stroke:rgb(0%,0%,0%);stroke-opacity:1;stroke-miterlimit:10;" d="M 1268.515625 1189.453125 L 1248.320312 1219.296875 L 1237.03125 1234.960938 L 1222.578125 1253.945312 L 1205.585938 1274.921875 L 1193.867188 1288.59375 L 1174.101562 1310.351562 L 1161.71875 1323.203125 L 1142.65625 1341.953125 L 1125.390625 1357.851562 L 1111.171875 1370.3125 L 1084.0625 1392.5 " transform="matrix(0.1,0,0,-0.1,0,140)"/>
<path style="fill:none;stroke-width:5;stroke-linecap:butt;stroke-linejoin:miter;stroke:rgb(0%,0%,0%);stroke-opacity:1;stroke-miterlimit:10;" d="M 9.921875 163.4375 L 22.8125 145.546875 L 41.367188 121.40625 L 49.882812 110.898438 L 72.851562 84.179688 L 80.039062 76.289062 L 104.296875 51.015625 L 113.828125 41.640625 L 135.78125 21.210938 L 151.992188 6.992188 " transform="matrix(0.1,0,0,-0.1,0,140)"/>
<path style="fill:none;stroke-width:5;stroke-linecap:butt;stroke-linejoin:miter;stroke:rgb(0%,0%,0%);stroke-opacity:1;stroke-miterlimit:10;" d="M 9.921875 1236.054688 L 22.8125 1253.945312 L 41.367188 1278.085938 L 49.882812 1288.59375 L 72.851562 1315.3125 L 80.039062 1323.203125 L 104.296875 1348.515625 L 113.828125 1357.851562 L 135.78125 1378.28125 L 151.992188 1392.5 " transform="matrix(0.1,0,0,-0.1,0,140)"/>
<path style="fill:none;stroke-width:5;stroke-linecap:butt;stroke-linejoin:miter;stroke:rgb(0%,0%,0%);stroke-opacity:1;stroke-miterlimit:10;" d="M 1268.515625 163.4375 L 1255.585938 145.546875 L 1237.03125 121.40625 L 1228.515625 110.898438 L 1205.585938 84.179688 L 1198.398438 76.289062 L 1174.101562 51.015625 L 1164.570312 41.640625 L 1142.65625 21.210938 L 1126.40625 6.992188 " transform="matrix(0.1,0,0,-0.1,0,140)"/>
<path style="fill:none;stroke-width:5;stroke-linecap:butt;stroke-linejoin:miter;stroke:rgb(0%,0%,0%);stroke-opacity:1;stroke-miterlimit:10;" d="M 1268.515625 1236.054688 L 1255.585938 1253.945312 L 1237.03125 1278.085938 L 1228.515625 1288.59375 L 1205.585938 1315.3125 L 1198.398438 1323.203125 L 1174.101562 1348.515625 L 1164.570312 1357.851562 L 1142.65625 1378.28125 L 1126.40625 1392.5 " transform="matrix(0.1,0,0,-0.1,0,140)"/>
<path style="fill:none;stroke-width:5;stroke-linecap:butt;stroke-linejoin:miter;stroke:rgb(0%,0%,0%);stroke-opacity:1;stroke-miterlimit:10;" d="M 9.921875 120.351562 L 17.1875 110.898438 L 41.367188 81.210938 L 45.625 76.289062 L 72.851562 46.328125 L 77.34375 41.640625 L 104.296875 15 L 112.890625 6.992188 " transform="matrix(0.1,0,0,-0.1,0,140)"/>
<path style="fill:none;stroke-width:5;stroke-linecap:butt;stroke-linejoin:miter;stroke:rgb(0%,0%,0%);stroke-opacity:1;stroke-miterlimit:10;" d="M 9.921875 1279.140625 L 17.1875 1288.59375 L 41.367188 1318.28125 L 45.625 1323.203125 L 72.851562 1353.164062 L 77.34375 1357.851562 L 104.296875 1384.492188 L 112.890625 1392.5 " transform="matrix(0.1,0,0,-0.1,0,140)"/>
<path style="fill:none;stroke-width:5;stroke-linecap:butt;stroke-linejoin:miter;stroke:rgb(0%,0%,0%);stroke-opacity:1;stroke-miterlimit:10;" d="M 1268.515625 120.351562 L 1261.25 110.898438 L 1237.03125 81.210938 L 1232.773438 76.289062 L 1205.585938 46.328125 L 1201.09375 41.640625 L 1174.101562 15 L 1165.507812 6.992188 " transform="matrix(0.1,0,0,-0.1,0,140)"/>
<path style="fill:none;stroke-width:5;stroke-linecap:butt;stroke-linejoin:miter;stroke:rgb(0%,0%,0%);stroke-opacity:1;stroke-miterlimit:10;" d="M 1268.515625 1279.140625 L 1261.25 1288.59375 L 1237.03125 1318.28125 L 1232.773438 1323.203125 L 1205.585938 1353.164062 L 1201.09375 1357.851562 L 1174.101562 1384.492188 L 1165.507812 1392.5 " transform="matrix(0.1,0,0,-0.1,0,140)"/>
<path style="fill:none;stroke-width:5;stroke-linecap:butt;stroke-linejoin:miter;stroke:rgb(0%,0%,0%);stroke-opacity:1;stroke-miterlimit:10;" d="M 9.921875 80.234375 L 13.125 76.289062 L 41.367188 43.515625 L 43.085938 41.640625 L 72.851562 10.546875 L 76.445312 6.992188 " transform="matrix(0.1,0,0,-0.1,0,140)"/>
<path style="fill:none;stroke-width:5;stroke-linecap:butt;stroke-linejoin:miter;stroke:rgb(0%,0%,0%);stroke-opacity:1;stroke-miterlimit:10;" d="M 9.921875 1319.257812 L 13.125 1323.203125 L 41.367188 1355.976562 L 43.085938 1357.851562 L 72.851562 1388.945312 L 76.445312 1392.5 " transform="matrix(0.1,0,0,-0.1,0,140)"/>
<path style="fill:none;stroke-width:5;stroke-linecap:butt;stroke-linejoin:miter;stroke:rgb(0%,0%,0%);stroke-opacity:1;stroke-miterlimit:10;" d="M 1268.515625 80.234375 L 1265.273438 76.289062 L 1237.03125 43.515625 L 1235.3125 41.640625 L 1205.585938 10.546875 L 1201.953125 6.992188 " transform="matrix(0.1,0,0,-0.1,0,140)"/>
<path style="fill:none;stroke-width:5;stroke-linecap:butt;stroke-linejoin:miter;stroke:rgb(0%,0%,0%);stroke-opacity:1;stroke-miterlimit:10;" d="M 1268.515625 1319.257812 L 1265.273438 1323.203125 L 1237.03125 1355.976562 L 1235.3125 1357.851562 L 1205.585938 1388.945312 L 1201.953125 1392.5 " transform="matrix(0.1,0,0,-0.1,0,140)"/>
<path style="fill:none;stroke-width:5;stroke-linecap:butt;stroke-linejoin:miter;stroke:rgb(0%,0%,0%);stroke-opacity:1;stroke-miterlimit:10;" d="M 9.921875 42.578125 L 10.703125 41.640625 L 41.367188 7.890625 L 42.226562 6.992188 " transform="matrix(0.1,0,0,-0.1,0,140)"/>
<path style="fill:none;stroke-width:5;stroke-linecap:butt;stroke-linejoin:miter;stroke:rgb(0%,0%,0%);stroke-opacity:1;stroke-miterlimit:10;" d="M 9.921875 1356.914062 L 10.703125 1357.851562 L 41.367188 1391.601562 L 42.226562 1392.5 " transform="matrix(0.1,0,0,-0.1,0,140)"/>
<path style="fill:none;stroke-width:5;stroke-linecap:butt;stroke-linejoin:miter;stroke:rgb(0%,0%,0%);stroke-opacity:1;stroke-miterlimit:10;" d="M 1268.515625 42.578125 L 1267.695312 41.640625 L 1237.03125 7.890625 L 1236.171875 6.992188 " transform="matrix(0.1,0,0,-0.1,0,140)"/>
<path style="fill:none;stroke-width:5;stroke-linecap:butt;stroke-linejoin:miter;stroke:rgb(0%,0%,0%);stroke-opacity:1;stroke-miterlimit:10;" d="M 1268.515625 1356.914062 L 1267.695312 1357.851562 L 1237.03125 1391.601562 L 1236.171875 1392.5 " transform="matrix(0.1,0,0,-0.1,0,140)"/>
</g>
</svg>
