<?xml version="1.0" encoding="UTF-8"?>
<svg xmlns="http://www.w3.org/2000/svg" xmlns:xlink="http://www.w3.org/1999/xlink" width="82pt" height="113pt" viewBox="0 0 82 113" version="1.1">
<g id="surface1">
<path style="fill-rule:nonzero;fill:rgb(80.076599%,80.076599%,80.076599%);fill-opacity:1;stroke-width:10;stroke-linecap:butt;stroke-linejoin:miter;stroke:rgb(0%,53.318787%,80.076599%);stroke-opacity:1;stroke-miterlimit:10;" d="M 376.09375 900.195312 L 430.078125 901.40625 L 483.75 905.039062 L 535.820312 910.9375 L 585 919.023438 L 630.117188 929.101562 L 670 940.859375 L 703.710938 954.0625 L 730.429688 968.320312 L 749.453125 983.398438 L 755.9375 991.054688 L 760.3125 998.789062 L 762.617188 1006.523438 L 762.8125 1014.21875 L 760.859375 1021.835938 L 756.796875 1029.257812 L 750.664062 1036.523438 L 742.5 1043.554688 L 720.195312 1056.757812 L 690.46875 1068.515625 L 654.0625 1078.554688 L 611.875 1086.640625 L 564.921875 1092.578125 L 514.375 1096.171875 L 461.484375 1097.382812 L 407.539062 1096.171875 L 353.867188 1092.578125 L 301.796875 1086.640625 L 252.578125 1078.554688 L 207.5 1068.515625 L 167.578125 1056.757812 L 133.867188 1043.554688 L 107.1875 1029.257812 L 88.164062 1014.21875 L 81.679688 1006.523438 L 77.265625 998.789062 L 74.960938 991.054688 L 74.804688 983.398438 L 76.757812 975.78125 L 80.78125 968.320312 L 86.953125 961.054688 L 95.117188 954.0625 L 117.421875 940.859375 L 147.109375 929.101562 L 183.515625 919.023438 L 225.703125 910.9375 L 272.65625 905.039062 L 323.203125 901.40625 L 376.09375 900.195312 " transform="matrix(0.1,0,0,-0.1,0,113)"/>
<path style="fill:none;stroke-width:10;stroke-linecap:butt;stroke-linejoin:miter;stroke:rgb(0%,53.318787%,80.076599%);stroke-opacity:1;stroke-miterlimit:10;" d="M 77.265625 134.804688 L 74.960938 127.070312 L 74.804688 119.375 L 76.757812 111.796875 L 80.78125 104.335938 L 86.953125 97.070312 L 95.117188 90.039062 L 117.421875 76.835938 L 147.109375 65.078125 L 183.515625 55.039062 L 225.703125 46.953125 L 272.65625 41.054688 L 323.203125 37.421875 L 376.09375 36.210938 L 430.078125 37.421875 L 483.75 41.054688 L 535.820312 46.953125 L 585 55.039062 L 630.117188 65.078125 L 670 76.835938 L 703.710938 90.039062 L 730.429688 104.335938 L 749.453125 119.375 L 755.9375 127.070312 L 760.3125 134.804688 " transform="matrix(0.1,0,0,-0.1,0,113)"/>
<path style="fill:none;stroke-width:10;stroke-linecap:butt;stroke-linejoin:miter;stroke:rgb(0%,53.318787%,80.076599%);stroke-opacity:1;stroke-dasharray:20,20;stroke-miterlimit:10;" d="M 760.3125 134.804688 L 762.617188 142.539062 L 762.8125 150.234375 L 760.859375 157.8125 L 756.796875 165.273438 L 750.664062 172.539062 L 742.5 179.570312 L 720.195312 192.734375 L 690.46875 204.53125 L 654.0625 214.570312 L 611.875 222.65625 L 564.921875 228.554688 L 514.375 232.1875 L 461.484375 233.398438 L 407.539062 232.1875 L 353.867188 228.554688 L 301.796875 222.65625 L 252.578125 214.570312 L 207.5 204.53125 L 167.578125 192.734375 L 133.867188 179.570312 L 107.1875 165.273438 L 88.164062 150.234375 L 81.679688 142.539062 L 77.265625 134.804688 " transform="matrix(0.1,0,0,-0.1,0,113)"/>
<path style="fill:none;stroke-width:10;stroke-linecap:butt;stroke-linejoin:miter;stroke:rgb(0%,53.318787%,80.076599%);stroke-opacity:1;stroke-miterlimit:10;" d="M 764.335938 145.117188 L 702.890625 229.6875 L 643.789062 314.335938 L 589.492188 399.101562 L 565.820312 441.601562 L 546.210938 484.21875 L 532.890625 526.992188 L 529.296875 548.515625 L 528.046875 570.078125 L 529.296875 591.679688 L 532.890625 613.398438 L 546.210938 656.992188 L 565.820312 700.78125 L 589.492188 744.6875 L 643.789062 832.734375 L 702.890625 920.898438 L 764.335938 1009.101562 " transform="matrix(0.1,0,0,-0.1,0,113)"/>
<path style="fill:none;stroke-width:10;stroke-linecap:butt;stroke-linejoin:miter;stroke:rgb(0%,53.318787%,80.076599%);stroke-opacity:1;stroke-miterlimit:10;" d="M 73.28125 124.492188 L 134.726562 212.734375 L 193.828125 300.898438 L 248.125 388.90625 L 271.796875 432.8125 L 291.367188 476.601562 L 304.726562 520.195312 L 308.320312 541.914062 L 309.53125 563.515625 L 308.320312 585.117188 L 304.726562 606.601562 L 291.367188 649.414062 L 271.796875 691.992188 L 248.125 734.492188 L 193.828125 819.296875 L 134.726562 903.90625 L 73.28125 988.476562 " transform="matrix(0.1,0,0,-0.1,0,113)"/>
</g>
</svg>
