<?xml version="1.0" encoding="UTF-8"?>
<svg xmlns="http://www.w3.org/2000/svg" xmlns:xlink="http://www.w3.org/1999/xlink" width="70pt" height="110pt" viewBox="0 0 70 110" version="1.1">
<g id="surface1">
<path style="fill-rule:nonzero;fill:rgb(80.076599%,80.076599%,80.076599%);fill-opacity:1;stroke-width:10;stroke-linecap:butt;stroke-linejoin:miter;stroke:rgb(0%,53.318787%,80.076599%);stroke-opacity:1;stroke-miterlimit:10;" d="M 310.625 880.625 L 358.867188 881.71875 L 406.875 884.921875 L 453.4375 890.234375 L 497.460938 897.460938 L 537.8125 906.445312 L 573.476562 916.953125 L 603.632812 928.75 L 627.539062 941.5625 L 644.53125 955 L 654.257812 968.789062 L 656.484375 982.578125 L 651.132812 996.054688 L 638.320312 1008.828125 L 618.359375 1020.625 L 591.796875 1031.132812 L 559.257812 1040.15625 L 521.523438 1047.382812 L 479.53125 1052.65625 L 434.296875 1055.898438 L 386.992188 1056.992188 L 338.710938 1055.898438 L 290.703125 1052.65625 L 244.140625 1047.382812 L 200.15625 1040.15625 L 159.804688 1031.132812 L 124.101562 1020.625 L 93.945312 1008.828125 L 70.078125 996.054688 L 53.046875 982.578125 L 43.320312 968.789062 L 41.132812 955 L 46.484375 941.5625 L 59.296875 928.75 L 79.21875 916.953125 L 105.820312 906.445312 L 138.359375 897.460938 L 176.09375 890.234375 L 218.085938 884.921875 L 263.320312 881.71875 L 310.625 880.625 " transform="matrix(0.1,0,0,-0.1,0,110)"/>
<path style="fill:none;stroke-width:10;stroke-linecap:butt;stroke-linejoin:miter;stroke:rgb(0%,53.318787%,80.076599%);stroke-opacity:1;stroke-miterlimit:10;" d="M 43.320312 104.804688 L 41.132812 91.015625 L 46.484375 77.539062 L 59.296875 64.765625 L 79.21875 52.96875 L 105.820312 42.460938 L 138.359375 33.476562 L 176.09375 26.25 L 218.085938 20.9375 L 263.320312 17.695312 L 310.625 16.601562 L 358.867188 17.695312 L 406.875 20.9375 L 453.4375 26.25 L 497.460938 33.476562 L 537.8125 42.460938 L 573.476562 52.96875 L 603.632812 64.765625 L 627.539062 77.539062 L 644.53125 91.015625 L 654.257812 104.804688 " transform="matrix(0.1,0,0,-0.1,0,110)"/>
<path style="fill:none;stroke-width:10;stroke-linecap:butt;stroke-linejoin:miter;stroke:rgb(0%,53.318787%,80.076599%);stroke-opacity:1;stroke-dasharray:20,20;stroke-miterlimit:10;" d="M 654.257812 104.804688 L 656.484375 118.59375 L 651.132812 132.070312 L 638.320312 144.84375 L 618.359375 156.640625 L 591.796875 167.148438 L 559.257812 176.132812 L 521.523438 183.359375 L 479.53125 188.671875 L 434.296875 191.914062 L 386.992188 192.96875 L 338.710938 191.914062 L 290.703125 188.671875 L 244.140625 183.359375 L 200.15625 176.132812 L 159.804688 167.148438 L 124.101562 156.640625 L 93.945312 144.84375 L 70.078125 132.070312 L 53.046875 118.59375 L 43.320312 104.804688 " transform="matrix(0.1,0,0,-0.1,0,110)"/>
<path style="fill:none;stroke-width:10;stroke-linecap:butt;stroke-linejoin:miter;stroke:rgb(0%,53.318787%,80.076599%);stroke-opacity:1;stroke-miterlimit:10;" d="M 348.789062 680.820312 L 353.007812 680.78125 L 354.765625 680.859375 L 357.226562 680.976562 L 360.703125 681.328125 L 365.703125 682.070312 L 372.734375 683.671875 L 382.890625 686.953125 L 397.578125 693.710938 L 419.414062 707.421875 L 453.085938 735.195312 L 481.757812 763.125 L 508.085938 791.132812 L 533.164062 819.140625 L 557.382812 847.1875 L 581.015625 875.273438 L 604.257812 903.359375 L 627.1875 931.484375 L 649.84375 959.570312 " transform="matrix(0.1,0,0,-0.1,0,110)"/>
<path style="fill:none;stroke-width:10;stroke-linecap:butt;stroke-linejoin:miter;stroke:rgb(0%,53.318787%,80.076599%);stroke-opacity:1;stroke-miterlimit:10;" d="M 348.789062 680.820312 L 344.492188 680.78125 L 342.695312 680.859375 L 340.15625 680.976562 L 336.5625 681.328125 L 331.484375 682.070312 L 324.21875 683.671875 L 313.828125 686.953125 L 298.710938 693.710938 L 276.328125 707.421875 L 241.757812 735.195312 L 212.34375 763.125 L 185.273438 791.132812 L 159.53125 819.140625 L 134.6875 847.1875 L 110.390625 875.273438 L 86.5625 903.359375 L 63.046875 931.484375 L 39.765625 959.570312 " transform="matrix(0.1,0,0,-0.1,0,110)"/>
<path style="fill:none;stroke-width:10;stroke-linecap:butt;stroke-linejoin:miter;stroke:rgb(0%,53.318787%,80.076599%);stroke-opacity:1;stroke-miterlimit:10;" d="M 348.789062 392.8125 L 353.125 392.8125 L 354.921875 392.773438 L 357.460938 392.617188 L 361.015625 392.265625 L 366.132812 391.523438 L 373.398438 389.921875 L 383.789062 386.640625 L 398.867188 379.882812 L 421.289062 366.171875 L 455.859375 338.398438 L 485.273438 310.46875 L 512.34375 282.5 L 538.046875 254.453125 L 562.929688 226.40625 L 587.1875 198.320312 L 611.015625 170.234375 L 634.570312 142.148438 L 657.851562 114.023438 " transform="matrix(0.1,0,0,-0.1,0,110)"/>
<path style="fill:none;stroke-width:10;stroke-linecap:butt;stroke-linejoin:miter;stroke:rgb(0%,53.318787%,80.076599%);stroke-opacity:1;stroke-miterlimit:10;" d="M 348.789062 392.8125 L 344.609375 392.8125 L 342.851562 392.773438 L 340.390625 392.617188 L 336.875 392.265625 L 331.914062 391.523438 L 324.84375 389.921875 L 314.726562 386.640625 L 300.039062 379.882812 L 278.203125 366.171875 L 244.53125 338.398438 L 215.859375 310.46875 L 189.492188 282.5 L 164.453125 254.453125 L 140.234375 226.40625 L 116.5625 198.320312 L 93.359375 170.234375 L 70.429688 142.148438 L 47.734375 114.023438 " transform="matrix(0.1,0,0,-0.1,0,110)"/>
</g>
</svg>
