<?xml version="1.0" encoding="UTF-8"?>
<svg xmlns="http://www.w3.org/2000/svg" xmlns:xlink="http://www.w3.org/1999/xlink" width="130pt" height="149pt" viewBox="0 0 130 149" version="1.1">
<defs>
<clipPath id="clip1">
  <path d="M 14 2.699219 L 130 2.699219 L 130 148.800781 L 14 148.800781 Z M 14 2.699219 "/>
</clipPath>
<clipPath id="clip2">
  <path d="M 0 2.699219 L 88 2.699219 L 88 148.800781 L 0 148.800781 Z M 0 2.699219 "/>
</clipPath>
</defs>
<g id="surface1">
<g clip-path="url(#clip1)" clip-rule="nonzero">
<path style="fill:none;stroke-width:15;stroke-linecap:butt;stroke-linejoin:miter;stroke:rgb(0%,53.318787%,80.076599%);stroke-opacity:1;stroke-miterlimit:10;" d="M 354.6875 12.8125 L 443.945312 48.789062 L 528.59375 84.804688 L 608.671875 120.820312 L 684.179688 156.796875 L 755.117188 192.8125 L 821.484375 228.789062 L 883.242188 264.804688 L 940.46875 300.820312 L 993.085938 336.796875 L 1041.132812 372.8125 L 1084.609375 408.789062 L 1123.515625 444.804688 L 1157.8125 480.820312 L 1187.578125 516.796875 L 1212.734375 552.8125 L 1233.359375 588.789062 L 1249.375 624.804688 L 1260.78125 660.820312 L 1267.65625 696.796875 L 1269.960938 732.8125 L 1267.65625 768.789062 L 1260.78125 804.804688 L 1249.375 840.820312 L 1233.359375 876.796875 L 1212.734375 912.8125 L 1187.578125 948.789062 L 1157.8125 984.804688 L 1123.515625 1020.78125 L 1084.609375 1056.796875 L 1041.132812 1092.8125 L 993.085938 1128.789062 L 940.46875 1164.804688 L 883.242188 1200.78125 L 821.484375 1236.796875 L 755.117188 1272.8125 L 684.179688 1308.789062 L 608.671875 1344.804688 L 528.59375 1380.78125 L 443.945312 1416.796875 L 354.6875 1452.8125 " transform="matrix(0.1,0,0,-0.1,0,149)"/>
</g>
<path style=" stroke:none;fill-rule:nonzero;fill:rgb(80.076599%,80.076599%,80.076599%);fill-opacity:1;" d="M 65.976562 75.71875 L 65.601562 64.457031 L 65.136719 58.910156 L 64.484375 53.46875 L 63.65625 48.167969 L 62.652344 43.03125 L 61.480469 38.101562 L 60.152344 33.398438 L 58.667969 28.960938 L 57.042969 24.808594 L 55.285156 20.972656 L 53.402344 17.472656 L 51.410156 14.328125 L 49.320312 11.566406 L 47.144531 9.199219 L 44.898438 7.242188 L 42.59375 5.710938 L 40.242188 4.605469 L 37.863281 3.941406 L 35.46875 3.71875 L 33.078125 3.941406 L 30.699219 4.605469 L 28.347656 5.710938 L 26.042969 7.242188 L 23.792969 9.199219 L 21.617188 11.566406 L 19.53125 14.328125 L 17.539062 17.472656 L 15.65625 20.972656 L 13.898438 24.808594 L 12.269531 28.960938 L 10.789062 33.398438 L 9.457031 38.101562 L 8.285156 43.03125 L 7.285156 48.167969 L 6.453125 53.46875 L 5.804688 58.910156 L 5.335938 64.457031 L 4.960938 75.71875 L 5.335938 86.984375 L 5.804688 92.527344 L 6.453125 97.96875 L 7.285156 103.273438 L 8.285156 108.40625 L 9.457031 113.339844 L 10.789062 118.039062 L 12.269531 122.480469 L 13.898438 126.632812 L 15.65625 130.46875 L 17.539062 133.96875 L 19.53125 137.109375 L 21.617188 139.871094 L 23.792969 142.238281 L 26.042969 144.195312 L 28.347656 145.730469 L 30.699219 146.832031 L 33.078125 147.5 L 35.46875 147.71875 L 37.863281 147.5 L 40.242188 146.832031 L 42.59375 145.730469 L 44.898438 144.195312 L 47.144531 142.238281 L 49.320312 139.871094 L 51.410156 137.109375 L 53.402344 133.96875 L 55.285156 130.46875 L 57.042969 126.632812 L 58.667969 122.480469 L 60.152344 118.039062 L 61.480469 113.339844 L 62.652344 108.40625 L 63.65625 103.273438 L 64.484375 97.96875 L 65.136719 92.527344 L 65.601562 86.984375 L 65.976562 75.71875 "/>
<g clip-path="url(#clip2)" clip-rule="nonzero">
<path style="fill:none;stroke-width:15;stroke-linecap:butt;stroke-linejoin:miter;stroke:rgb(0%,53.318787%,80.076599%);stroke-opacity:1;stroke-miterlimit:10;" d="M 659.765625 732.8125 L 656.015625 845.429688 L 651.367188 900.898438 L 644.84375 955.3125 L 636.5625 1008.320312 L 626.523438 1059.6875 L 614.804688 1108.984375 L 601.523438 1156.015625 L 586.679688 1200.390625 L 570.429688 1241.914062 L 552.851562 1280.273438 L 534.023438 1315.273438 L 514.101562 1346.71875 L 493.203125 1374.335938 L 471.445312 1398.007812 L 448.984375 1417.578125 L 425.9375 1432.890625 L 402.421875 1443.945312 L 378.632812 1450.585938 L 354.6875 1452.8125 L 330.78125 1450.585938 L 306.992188 1443.945312 L 283.476562 1432.890625 L 260.429688 1417.578125 L 237.929688 1398.007812 L 216.171875 1374.335938 L 195.3125 1346.71875 L 175.390625 1315.273438 L 156.5625 1280.273438 L 138.984375 1241.914062 L 122.695312 1200.390625 L 107.890625 1156.015625 L 94.570312 1108.984375 L 82.851562 1059.6875 L 72.851562 1008.320312 L 64.53125 955.3125 L 58.046875 900.898438 L 53.359375 845.429688 L 49.609375 732.8125 L 53.359375 620.15625 L 58.046875 564.726562 L 64.53125 510.3125 L 72.851562 457.265625 L 82.851562 405.9375 L 94.570312 356.601562 L 107.890625 309.609375 L 122.695312 265.195312 L 138.984375 223.671875 L 156.5625 185.3125 L 175.390625 150.3125 L 195.3125 118.90625 L 216.171875 91.289062 L 237.929688 67.617188 L 260.429688 48.046875 L 283.476562 32.695312 L 306.992188 21.679688 L 330.78125 15 L 354.6875 12.8125 L 378.632812 15 L 402.421875 21.679688 L 425.9375 32.695312 L 448.984375 48.046875 L 471.445312 67.617188 L 493.203125 91.289062 L 514.101562 118.90625 L 534.023438 150.3125 L 552.851562 185.3125 L 570.429688 223.671875 L 586.679688 265.195312 L 601.523438 309.609375 L 614.804688 356.601562 L 626.523438 405.9375 L 636.5625 457.265625 L 644.84375 510.3125 L 651.367188 564.726562 L 656.015625 620.15625 L 659.765625 732.8125 " transform="matrix(0.1,0,0,-0.1,0,149)"/>
</g>
</g>
</svg>
