<?xml version="1.0" encoding="UTF-8"?>
<svg xmlns="http://www.w3.org/2000/svg" xmlns:xlink="http://www.w3.org/1999/xlink" width="128pt" height="140pt" viewBox="0 0 128 140" version="1.1">
<g id="surface1">
<rect x="0" y="0" width="128" height="140" style="fill:rgb(100%,100%,100%);fill-opacity:1;stroke:none;"/>
<rect x="0" y="0" width="128" height="140" style="fill:rgb(100%,100%,100%);fill-opacity:1;stroke:none;"/>
<path style="fill:none;stroke-width:5;stroke-linecap:butt;stroke-linejoin:miter;stroke:rgb(0%,0%,0%);stroke-opacity:1;stroke-miterlimit:10;" d="M 9.921875 1378.085938 L 23.007812 1392.5 " transform="matrix(0.1,0,0,-0.1,0,140)"/>
<path style="fill:none;stroke-width:5;stroke-linecap:butt;stroke-linejoin:miter;stroke:rgb(0%,0%,0%);stroke-opacity:1;stroke-miterlimit:10;" d="M 9.921875 1363.632812 L 36.132812 1392.5 " transform="matrix(0.1,0,0,-0.1,0,140)"/>
<path style="fill:none;stroke-width:5;stroke-linecap:butt;stroke-linejoin:miter;stroke:rgb(0%,0%,0%);stroke-opacity:1;stroke-miterlimit:10;" d="M 9.921875 1348.476562 L 18.085938 1357.851562 L 41.367188 1383.515625 L 49.882812 1392.5 " transform="matrix(0.1,0,0,-0.1,0,140)"/>
<path style="fill:none;stroke-width:5;stroke-linecap:butt;stroke-linejoin:miter;stroke:rgb(0%,0%,0%);stroke-opacity:1;stroke-miterlimit:10;" d="M 9.921875 1332.773438 L 31.757812 1357.851562 L 41.367188 1368.476562 L 64.140625 1392.5 " transform="matrix(0.1,0,0,-0.1,0,140)"/>
<path style="fill:none;stroke-width:5;stroke-linecap:butt;stroke-linejoin:miter;stroke:rgb(0%,0%,0%);stroke-opacity:1;stroke-miterlimit:10;" d="M 9.921875 1316.5625 L 15.46875 1323.203125 L 41.367188 1353.046875 L 45.742188 1357.851562 L 72.851562 1386.367188 L 78.90625 1392.5 " transform="matrix(0.1,0,0,-0.1,0,140)"/>
<path style="fill:none;stroke-width:5;stroke-linecap:butt;stroke-linejoin:miter;stroke:rgb(0%,0%,0%);stroke-opacity:1;stroke-miterlimit:10;" d="M 9.921875 1299.414062 L 29.6875 1323.203125 L 41.367188 1336.640625 L 60.664062 1357.851562 L 72.851562 1370.703125 L 94.453125 1392.5 " transform="matrix(0.1,0,0,-0.1,0,140)"/>
<path style="fill:none;stroke-width:5;stroke-linecap:butt;stroke-linejoin:miter;stroke:rgb(0%,0%,0%);stroke-opacity:1;stroke-miterlimit:10;" d="M 9.921875 1281.71875 L 15.351562 1288.59375 L 41.367188 1319.960938 L 44.179688 1323.203125 L 72.851562 1354.765625 L 75.78125 1357.851562 L 104.296875 1386.523438 L 110.546875 1392.5 " transform="matrix(0.1,0,0,-0.1,0,140)"/>
<path style="fill:none;stroke-width:5;stroke-linecap:butt;stroke-linejoin:miter;stroke:rgb(0%,0%,0%);stroke-opacity:1;stroke-miterlimit:10;" d="M 9.921875 1262.96875 L 30.234375 1288.59375 L 41.367188 1302.03125 L 59.765625 1323.203125 L 72.851562 1337.617188 L 92.070312 1357.851562 L 104.296875 1370.15625 L 127.578125 1392.5 " transform="matrix(0.1,0,0,-0.1,0,140)"/>
<path style="fill:none;stroke-width:5;stroke-linecap:butt;stroke-linejoin:miter;stroke:rgb(0%,0%,0%);stroke-opacity:1;stroke-miterlimit:10;" d="M 9.921875 1243.203125 L 17.96875 1253.945312 L 41.367188 1283.671875 L 45.429688 1288.59375 L 72.851562 1320.234375 L 75.585938 1323.203125 L 104.296875 1353.398438 L 108.789062 1357.851562 L 135.78125 1383.59375 L 145.507812 1392.5 " transform="matrix(0.1,0,0,-0.1,0,140)"/>
<path style="fill:none;stroke-width:5;stroke-linecap:butt;stroke-linejoin:miter;stroke:rgb(0%,0%,0%);stroke-opacity:1;stroke-miterlimit:10;" d="M 9.921875 1222.539062 L 33.515625 1253.945312 L 41.367188 1263.945312 L 61.71875 1288.59375 L 72.851562 1301.40625 L 92.65625 1323.203125 L 104.296875 1335.429688 L 126.679688 1357.851562 L 135.78125 1366.523438 L 164.296875 1392.5 " transform="matrix(0.1,0,0,-0.1,0,140)"/>
<path style="fill:none;stroke-width:5;stroke-linecap:butt;stroke-linejoin:miter;stroke:rgb(0%,0%,0%);stroke-opacity:1;stroke-miterlimit:10;" d="M 9.921875 1200 L 23.59375 1219.296875 L 41.367188 1243.203125 L 49.804688 1253.945312 L 72.851562 1281.953125 L 78.554688 1288.59375 L 104.296875 1316.914062 L 110.3125 1323.203125 L 135.78125 1348.59375 L 145.546875 1357.851562 L 167.226562 1377.421875 L 184.765625 1392.5 " transform="matrix(0.1,0,0,-0.1,0,140)"/>
<path style="fill:none;stroke-width:5;stroke-linecap:butt;stroke-linejoin:miter;stroke:rgb(0%,0%,0%);stroke-opacity:1;stroke-miterlimit:10;" d="M 9.921875 1176.25 L 15.507812 1184.6875 L 39.84375 1219.296875 L 41.367188 1221.367188 L 66.875 1253.945312 L 72.851562 1261.210938 L 96.484375 1288.59375 L 104.296875 1297.1875 L 129.179688 1323.203125 L 135.78125 1329.804688 L 165.351562 1357.851562 L 167.226562 1359.570312 L 198.710938 1386.328125 L 206.328125 1392.5 " transform="matrix(0.1,0,0,-0.1,0,140)"/>
<path style="fill:none;stroke-width:5;stroke-linecap:butt;stroke-linejoin:miter;stroke:rgb(0%,0%,0%);stroke-opacity:1;stroke-miterlimit:10;" d="M 9.921875 1150.78125 L 32.5 1184.6875 L 41.367188 1197.382812 L 57.578125 1219.296875 L 72.851562 1238.984375 L 85.078125 1253.945312 L 104.296875 1276.210938 L 115.507812 1288.59375 L 135.78125 1309.726562 L 149.375 1323.203125 L 167.226562 1340.039062 L 187.148438 1357.851562 L 198.710938 1367.65625 L 229.492188 1392.5 " transform="matrix(0.1,0,0,-0.1,0,140)"/>
<path style="fill:none;stroke-width:5;stroke-linecap:butt;stroke-linejoin:miter;stroke:rgb(0%,0%,0%);stroke-opacity:1;stroke-miterlimit:10;" d="M 9.921875 1122.265625 L 27.148438 1150.039062 L 41.367188 1171.757812 L 50.3125 1184.6875 L 72.851562 1215.546875 L 75.742188 1219.296875 L 103.945312 1253.945312 L 104.296875 1254.375 L 135.390625 1288.59375 L 135.78125 1288.984375 L 167.226562 1320.039062 L 170.664062 1323.203125 L 198.710938 1348.007812 L 210.429688 1357.851562 L 230.15625 1373.515625 L 255.390625 1392.5 " transform="matrix(0.1,0,0,-0.1,0,140)"/>
<path style="fill:none;stroke-width:5;stroke-linecap:butt;stroke-linejoin:miter;stroke:rgb(0%,0%,0%);stroke-opacity:1;stroke-miterlimit:10;" d="M 9.921875 1090.820312 L 24.0625 1115.390625 L 41.367188 1143.90625 L 45.3125 1150.039062 L 69.0625 1184.6875 L 72.851562 1189.804688 L 95.585938 1219.296875 L 104.296875 1230.039062 L 124.882812 1253.945312 L 135.78125 1265.9375 L 157.5 1288.59375 L 167.226562 1298.203125 L 194.023438 1323.203125 L 198.710938 1327.34375 L 230.15625 1353.515625 L 235.742188 1357.851562 L 261.640625 1376.914062 L 283.945312 1392.5 " transform="matrix(0.1,0,0,-0.1,0,140)"/>
<path style="fill:none;stroke-width:5;stroke-linecap:butt;stroke-linejoin:miter;stroke:rgb(0%,0%,0%);stroke-opacity:1;stroke-miterlimit:10;" d="M 1009.414062 491.914062 L 1006.601562 457.265625 L 996.210938 422.65625 L 985.3125 399.101562 L 979.0625 388.007812 L 953.867188 353.359375 L 922.382812 325.625 L 912.304688 318.75 L 890.9375 306.71875 L 859.453125 295.3125 L 827.96875 292.1875 L 796.523438 302.539062 L 779.609375 318.75 L 770.117188 353.359375 L 775.898438 388.007812 L 789.84375 422.65625 L 796.523438 434.023438 L 811.640625 457.265625 L 827.96875 477.96875 L 840.664062 491.914062 L 859.453125 509.921875 L 880.585938 526.5625 L 890.9375 533.90625 L 922.382812 549.257812 L 953.867188 555.625 L 985.3125 545.195312 L 1000.039062 526.5625 L 1009.414062 491.914062 " transform="matrix(0.1,0,0,-0.1,0,140)"/>
<path style="fill:none;stroke-width:5;stroke-linecap:butt;stroke-linejoin:miter;stroke:rgb(0%,0%,0%);stroke-opacity:1;stroke-miterlimit:10;" d="M 9.921875 1055.351562 L 23.320312 1080.742188 L 41.367188 1113.007812 L 42.8125 1115.390625 L 65.039062 1150.039062 L 72.851562 1161.523438 L 89.53125 1184.6875 L 104.296875 1203.984375 L 116.679688 1219.296875 L 135.78125 1241.5625 L 147.03125 1253.945312 L 167.226562 1274.921875 L 181.132812 1288.59375 L 198.710938 1304.84375 L 219.726562 1323.203125 L 230.15625 1331.835938 L 261.640625 1356.289062 L 263.789062 1357.851562 L 293.085938 1377.734375 L 316.171875 1392.5 " transform="matrix(0.1,0,0,-0.1,0,140)"/>
<path style="fill:none;stroke-width:5;stroke-linecap:butt;stroke-linejoin:miter;stroke:rgb(0%,0%,0%);stroke-opacity:1;stroke-miterlimit:10;" d="M 1095.664062 561.210938 L 1095.46875 526.5625 L 1091.132812 491.914062 L 1083.28125 457.265625 L 1079.726562 446.40625 L 1070.859375 422.65625 L 1054.921875 388.007812 L 1048.242188 375.9375 L 1034.21875 353.359375 L 1016.796875 328.789062 L 1008.710938 318.75 L 985.3125 292.96875 L 976.171875 284.101562 L 953.867188 264.921875 L 933.359375 249.453125 L 922.382812 242.109375 L 890.9375 224.570312 L 869.335938 214.804688 L 859.453125 210.898438 L 827.96875 202.265625 L 796.523438 197.460938 L 765.078125 197.265625 L 733.59375 202.65625 L 702.148438 214.804688 L 670.664062 245.507812 L 667.773438 249.453125 L 655.78125 284.101562 L 654.648438 318.75 L 660.976562 353.359375 L 670.664062 381.640625 L 672.890625 388.007812 L 689.765625 422.65625 L 702.148438 443.75 L 710.273438 457.265625 L 733.59375 491.171875 L 734.140625 491.914062 L 761.835938 526.5625 L 765.078125 530.3125 L 793.125 561.210938 L 796.523438 564.726562 L 827.96875 595.234375 L 828.671875 595.820312 L 859.453125 621.484375 L 871.757812 630.46875 L 890.9375 644.101562 L 922.382812 662.695312 L 928.164062 665.117188 L 953.867188 675.78125 L 985.3125 682.773438 L 1016.796875 681.523438 L 1048.242188 668.320312 L 1051.835938 665.117188 L 1079.726562 630.46875 L 1090.78125 595.820312 L 1095.664062 561.210938 " transform="matrix(0.1,0,0,-0.1,0,140)"/>
<path style="fill:none;stroke-width:5;stroke-linecap:butt;stroke-linejoin:miter;stroke:rgb(0%,0%,0%);stroke-opacity:1;stroke-miterlimit:10;" d="M 9.921875 1014.21875 L 25.234375 1046.132812 L 41.367188 1077.734375 L 43.007812 1080.742188 L 63.515625 1115.390625 L 72.851562 1130.195312 L 86.132812 1150.039062 L 104.296875 1175.585938 L 111.171875 1184.6875 L 135.78125 1215.273438 L 139.21875 1219.296875 L 167.226562 1250.15625 L 170.898438 1253.945312 L 198.710938 1281.015625 L 206.953125 1288.59375 L 230.15625 1308.59375 L 248.203125 1323.203125 L 261.640625 1333.476562 L 293.085938 1356.054688 L 295.820312 1357.851562 L 324.570312 1375.625 L 353.554688 1392.5 " transform="matrix(0.1,0,0,-0.1,0,140)"/>
<path style="fill:none;stroke-width:5;stroke-linecap:butt;stroke-linejoin:miter;stroke:rgb(0%,0%,0%);stroke-opacity:1;stroke-miterlimit:10;" d="M 1152.539062 595.820312 L 1151.5625 561.210938 L 1147.773438 526.5625 L 1142.65625 498.671875 L 1141.25 491.914062 L 1131.132812 457.265625 L 1118.789062 422.65625 L 1111.171875 404.804688 L 1103.28125 388.007812 L 1084.570312 353.359375 L 1079.726562 345.46875 L 1061.601562 318.75 L 1048.242188 300.859375 L 1034.453125 284.101562 L 1016.796875 264.648438 L 1001.5625 249.453125 L 985.3125 234.765625 L 961.015625 214.804688 L 953.867188 209.453125 L 922.382812 188.90625 L 907.148438 180.195312 L 890.9375 171.796875 L 859.453125 158.242188 L 827.96875 147.070312 L 821.835938 145.546875 L 796.523438 139.882812 L 765.078125 135.742188 L 733.59375 134.648438 L 702.148438 137.03125 L 670.664062 143.164062 L 662.96875 145.546875 L 639.21875 155.898438 L 607.734375 175.898438 L 602.421875 180.195312 L 576.289062 214.804688 L 565.273438 249.453125 L 563.554688 284.101562 L 568.789062 318.75 L 576.289062 343.007812 L 579.375 353.359375 L 594.375 388.007812 L 607.734375 413.085938 L 612.773438 422.65625 L 634.179688 457.265625 L 639.21875 464.53125 L 658.242188 491.914062 L 670.664062 508.359375 L 684.570312 526.5625 L 702.148438 548.085938 L 713.085938 561.210938 L 733.59375 584.609375 L 743.789062 595.820312 L 765.078125 618.4375 L 776.953125 630.46875 L 796.523438 649.804688 L 813.046875 665.117188 L 827.96875 678.789062 L 852.890625 699.765625 L 859.453125 705.273438 L 890.9375 728.828125 L 899.609375 734.375 L 922.382812 749.101562 L 953.867188 765.585938 L 963.28125 769.023438 L 985.3125 777.265625 L 1016.796875 783.007812 L 1048.242188 781.132812 L 1079.726562 769.023438 L 1111.171875 740.234375 L 1115.078125 734.375 L 1133.242188 699.765625 L 1142.65625 673.554688 L 1144.804688 665.117188 L 1150.390625 630.46875 L 1152.539062 595.820312 " transform="matrix(0.1,0,0,-0.1,0,140)"/>
<path style="fill:none;stroke-width:5;stroke-linecap:butt;stroke-linejoin:miter;stroke:rgb(0%,0%,0%);stroke-opacity:1;stroke-miterlimit:10;" d="M 9.921875 962.65625 L 15.3125 976.835938 L 30 1011.484375 L 41.367188 1036.25 L 46.210938 1046.132812 L 64.804688 1080.742188 L 72.851562 1094.648438 L 85.625 1115.390625 L 104.296875 1143.828125 L 108.632812 1150.039062 L 134.609375 1184.6875 L 135.78125 1186.132812 L 164.101562 1219.296875 L 167.226562 1222.734375 L 197.382812 1253.945312 L 198.710938 1255.234375 L 230.15625 1283.828125 L 235.78125 1288.59375 L 261.640625 1309.140625 L 280.46875 1323.203125 L 293.085938 1332.070312 L 324.570312 1352.539062 L 333.515625 1357.851562 L 356.015625 1370.390625 L 387.5 1386.5625 L 400.351562 1392.5 " transform="matrix(0.1,0,0,-0.1,0,140)"/>
<path style="fill:none;stroke-width:5;stroke-linecap:butt;stroke-linejoin:miter;stroke:rgb(0%,0%,0%);stroke-opacity:1;stroke-miterlimit:10;" d="M 1197.070312 630.46875 L 1195.976562 595.820312 L 1192.539062 561.210938 L 1186.875 526.5625 L 1179.257812 491.914062 L 1174.101562 473.671875 L 1169.0625 457.265625 L 1156.171875 422.65625 L 1142.65625 390.507812 L 1141.484375 388.007812 L 1123.007812 353.359375 L 1111.171875 333.164062 L 1101.992188 318.75 L 1079.726562 286.796875 L 1077.65625 284.101562 L 1048.828125 249.453125 L 1048.242188 248.828125 L 1016.796875 217.070312 L 1014.335938 214.804688 L 985.3125 190.3125 L 972.226562 180.195312 L 953.867188 167.148438 L 922.382812 146.835938 L 920.117188 145.546875 L 890.9375 130.664062 L 859.453125 116.484375 L 844.609375 110.898438 L 827.96875 105.273438 L 796.523438 96.835938 L 765.078125 90.625 L 733.59375 86.835938 L 702.148438 85.625 L 670.664062 87.1875 L 639.21875 91.757812 L 607.734375 99.492188 L 576.289062 110.546875 L 575.390625 110.898438 L 544.804688 129.140625 L 522.539062 145.546875 L 513.359375 155.9375 L 494.53125 180.195312 L 481.875 211.40625 L 480.585938 214.804688 L 476.5625 249.453125 L 480.078125 284.101562 L 481.875 290.429688 L 489.414062 318.75 L 503.398438 353.359375 L 513.359375 372.421875 L 521.09375 388.007812 L 541.71875 422.65625 L 544.804688 427.1875 L 564.6875 457.265625 L 576.289062 473.125 L 589.6875 491.914062 L 607.734375 515.273438 L 616.367188 526.5625 L 639.21875 554.648438 L 644.53125 561.210938 L 670.664062 591.953125 L 674.023438 595.820312 L 702.148438 627.460938 L 704.882812 630.46875 L 733.59375 661.40625 L 737.148438 665.117188 L 765.078125 693.90625 L 771.015625 699.765625 L 796.523438 724.882812 L 806.796875 734.375 L 827.96875 754.257812 L 845.078125 769.023438 L 859.453125 781.757812 L 886.796875 803.671875 L 890.9375 807.070312 L 922.382812 829.765625 L 936.523438 838.320312 L 953.867188 849.257812 L 985.3125 864.648438 L 1011.015625 872.929688 L 1016.796875 874.921875 L 1048.242188 878.828125 L 1079.726562 874.375 L 1082.8125 872.929688 L 1111.171875 859.023438 L 1133.203125 838.320312 L 1142.65625 828.164062 L 1157.578125 803.671875 L 1174.101562 770 L 1174.453125 769.023438 L 1184.492188 734.375 L 1191.523438 699.765625 L 1195.664062 665.117188 L 1197.070312 630.46875 " transform="matrix(0.1,0,0,-0.1,0,140)"/>
<path style="fill:none;stroke-width:5;stroke-linecap:butt;stroke-linejoin:miter;stroke:rgb(0%,0%,0%);stroke-opacity:1;stroke-miterlimit:10;" d="M 9.921875 892.421875 L 14.140625 907.578125 L 25.390625 942.226562 L 37.851562 976.835938 L 41.367188 985.46875 L 52.734375 1011.484375 L 69.179688 1046.132812 L 72.851562 1053.125 L 88.320312 1080.742188 L 104.296875 1107.382812 L 109.453125 1115.390625 L 133.4375 1150.039062 L 135.78125 1153.164062 L 160.898438 1184.6875 L 167.226562 1192.109375 L 191.953125 1219.296875 L 198.710938 1226.289062 L 227.34375 1253.945312 L 230.15625 1256.523438 L 261.640625 1282.890625 L 268.90625 1288.59375 L 293.085938 1306.171875 L 318.203125 1323.203125 L 324.570312 1327.265625 L 356.015625 1345.351562 L 379.648438 1357.851562 L 387.5 1361.757812 L 418.945312 1375.46875 L 450.429688 1387.851562 L 464.179688 1392.5 " transform="matrix(0.1,0,0,-0.1,0,140)"/>
<path style="fill:none;stroke-width:5;stroke-linecap:butt;stroke-linejoin:miter;stroke:rgb(0%,0%,0%);stroke-opacity:1;stroke-miterlimit:10;" d="M 1183.710938 1392.5 L 1174.101562 1386.171875 L 1142.65625 1371.71875 L 1111.171875 1362.96875 L 1079.726562 1359.179688 L 1048.242188 1359.570312 L 1016.796875 1363.242188 L 985.3125 1369.375 L 953.867188 1377.148438 L 922.382812 1385.820312 L 899.101562 1392.5 " transform="matrix(0.1,0,0,-0.1,0,140)"/>
<path style="fill:none;stroke-width:5;stroke-linecap:butt;stroke-linejoin:miter;stroke:rgb(0%,0%,0%);stroke-opacity:1;stroke-miterlimit:10;" d="M 9.921875 413.632812 L 15.976562 388.007812 L 23.867188 353.359375 L 30.898438 318.75 L 36.445312 284.101562 L 39.804688 249.453125 L 40.15625 214.804688 L 36.757812 180.195312 L 28.789062 145.546875 L 15.664062 110.898438 L 9.921875 100.3125 " transform="matrix(0.1,0,0,-0.1,0,140)"/>
<path style="fill:none;stroke-width:5;stroke-linecap:butt;stroke-linejoin:miter;stroke:rgb(0%,0%,0%);stroke-opacity:1;stroke-miterlimit:10;" d="M 1235.15625 665.117188 L 1234.140625 630.46875 L 1231.132812 595.820312 L 1226.25 561.210938 L 1219.609375 526.5625 L 1211.25 491.914062 L 1205.585938 472.460938 L 1200.742188 457.265625 L 1187.773438 422.65625 L 1174.101562 389.765625 L 1173.320312 388.007812 L 1155.429688 353.359375 L 1142.65625 330.585938 L 1135.46875 318.75 L 1112.578125 284.101562 L 1111.171875 282.1875 L 1085.585938 249.453125 L 1079.726562 242.5 L 1054.570312 214.804688 L 1048.242188 208.359375 L 1018.515625 180.195312 L 1016.796875 178.671875 L 985.3125 153.476562 L 974.570312 145.546875 L 953.867188 131.484375 L 922.382812 111.796875 L 920.78125 110.898438 L 890.9375 95.859375 L 859.453125 81.601562 L 845.664062 76.289062 L 827.96875 70 L 796.523438 60.820312 L 765.078125 53.515625 L 733.59375 48.125 L 702.148438 44.84375 L 670.664062 43.710938 L 639.21875 44.882812 L 607.734375 48.4375 L 576.289062 54.375 L 544.804688 62.734375 L 513.359375 73.476562 L 506.210938 76.289062 L 481.875 89.140625 L 450.429688 108.398438 L 446.5625 110.898438 L 418.945312 137.421875 L 410.898438 145.546875 L 390.625 180.195312 L 387.5 192.8125 L 381.875 214.804688 L 382.8125 249.453125 L 387.5 267.578125 L 391.25 284.101562 L 405.234375 318.75 L 418.945312 343.632812 L 423.828125 353.359375 L 445.429688 388.007812 L 450.429688 394.84375 L 469.296875 422.65625 L 481.875 439.0625 L 495.078125 457.265625 L 513.359375 480.273438 L 522.226562 491.914062 L 544.804688 519.492188 L 550.429688 526.5625 L 576.289062 557.265625 L 579.492188 561.210938 L 607.734375 593.945312 L 609.335938 595.820312 L 639.21875 629.726562 L 639.84375 630.46875 L 670.664062 664.765625 L 670.976562 665.117188 L 702.148438 699.0625 L 702.8125 699.765625 L 733.59375 732.617188 L 735.3125 734.375 L 765.078125 765.46875 L 768.632812 769.023438 L 796.523438 797.460938 L 802.929688 803.671875 L 827.96875 828.554688 L 838.59375 838.320312 L 859.453125 858.4375 L 876.015625 872.929688 L 890.9375 886.757812 L 916.171875 907.578125 L 922.382812 913.085938 L 953.867188 936.835938 L 962.695312 942.226562 L 985.3125 957.34375 L 1016.796875 972.695312 L 1031.796875 976.835938 L 1048.242188 982.03125 L 1079.726562 983.007812 L 1099.6875 976.835938 L 1111.171875 973.398438 L 1142.65625 951.054688 L 1150 942.226562 L 1174.101562 911.796875 L 1176.40625 907.578125 L 1193.90625 872.929688 L 1205.585938 846.132812 L 1208.125 838.320312 L 1217.851562 803.671875 L 1225.46875 769.023438 L 1230.859375 734.375 L 1234.0625 699.765625 L 1235.15625 665.117188 " transform="matrix(0.1,0,0,-0.1,0,140)"/>
<path style="fill:none;stroke-width:5;stroke-linecap:butt;stroke-linejoin:miter;stroke:rgb(0%,0%,0%);stroke-opacity:1;stroke-miterlimit:10;" d="M 9.921875 699.765625 L 10.742188 734.375 L 13.28125 769.023438 L 17.421875 803.671875 L 23.125 838.320312 L 30.351562 872.929688 L 39.023438 907.578125 L 41.367188 915.3125 L 50.117188 942.226562 L 62.890625 976.835938 L 72.851562 1001.015625 L 77.460938 1011.484375 L 94.648438 1046.132812 L 104.296875 1063.945312 L 114.0625 1080.742188 L 135.78125 1115.390625 L 161.328125 1150.039062 L 167.226562 1157.539062 L 190.234375 1184.6875 L 198.710938 1193.984375 L 223.359375 1219.296875 L 230.15625 1225.820312 L 261.640625 1253.945312 L 293.085938 1277.8125 L 308.359375 1288.59375 L 324.570312 1299.21875 L 356.015625 1318.125 L 365.507812 1323.203125 L 387.5 1334.179688 L 418.945312 1348.242188 L 443.359375 1357.851562 L 450.429688 1360.429688 L 481.875 1369.960938 L 513.359375 1377.929688 L 544.804688 1384.21875 L 576.289062 1388.789062 L 607.734375 1391.5625 L 639.21875 1392.5 " transform="matrix(0.1,0,0,-0.1,0,140)"/>
<path style="fill:none;stroke-width:5;stroke-linecap:butt;stroke-linejoin:miter;stroke:rgb(0%,0%,0%);stroke-opacity:1;stroke-miterlimit:10;" d="M 1268.515625 1392.5 L 1237.03125 1357.851562 L 1205.585938 1323.203125 L 1174.101562 1288.59375 L 1142.65625 1253.945312 L 1111.171875 1219.296875 L 1079.726562 1184.6875 L 1059.6875 1219.296875 L 1048.242188 1224.101562 L 1016.796875 1253.945312 L 985.3125 1276.71875 L 971.523438 1288.59375 L 953.867188 1298.515625 L 922.382812 1317.773438 L 913.828125 1323.203125 L 890.9375 1333.75 L 859.453125 1347.890625 L 835.703125 1357.851562 L 827.96875 1360.351562 L 796.523438 1369.765625 L 765.078125 1377.734375 L 733.59375 1384.140625 L 702.148438 1388.75 L 670.664062 1391.5625 L 639.21875 1392.5 " transform="matrix(0.1,0,0,-0.1,0,140)"/>
<path style="fill:none;stroke-width:5;stroke-linecap:butt;stroke-linejoin:miter;stroke:rgb(0%,0%,0%);stroke-opacity:1;stroke-miterlimit:10;" d="M 9.921875 699.765625 L 10.742188 665.117188 L 13.320312 630.46875 L 17.5 595.820312 L 23.320312 561.210938 L 30.585938 526.5625 L 39.101562 491.914062 L 41.367188 483.4375 L 50.429688 457.265625 L 63.28125 422.65625 L 72.851562 397.460938 L 77.8125 388.007812 L 95.3125 353.359375 L 104.296875 333.90625 L 115.078125 318.75 L 135.78125 284.101562 L 162.890625 249.453125 L 167.226562 236.875 L 198.710938 214.804688 L 167.226562 180.195312 L 135.78125 145.546875 L 104.296875 110.898438 L 72.851562 76.289062 L 41.367188 41.640625 L 9.921875 6.992188 " transform="matrix(0.1,0,0,-0.1,0,140)"/>
<path style="fill:none;stroke-width:5;stroke-linecap:butt;stroke-linejoin:miter;stroke:rgb(0%,0%,0%);stroke-opacity:1;stroke-miterlimit:10;" d="M 1268.515625 699.765625 L 1267.65625 665.117188 L 1265.15625 630.46875 L 1260.976562 595.820312 L 1255.273438 561.210938 L 1248.046875 526.5625 L 1239.375 491.914062 L 1237.03125 484.179688 L 1228.28125 457.265625 L 1215.507812 422.65625 L 1205.585938 398.476562 L 1200.9375 388.007812 L 1183.75 353.359375 L 1174.101562 335.546875 L 1164.335938 318.75 L 1142.65625 284.101562 L 1117.109375 249.453125 L 1111.171875 241.992188 L 1088.164062 214.804688 L 1079.726562 205.507812 L 1055.039062 180.195312 L 1048.242188 173.671875 L 1016.796875 145.546875 L 985.3125 121.679688 L 970.039062 110.898438 L 953.867188 100.3125 L 922.382812 81.367188 L 912.890625 76.289062 L 890.9375 65.3125 L 859.453125 51.25 L 835.039062 41.640625 L 827.96875 39.0625 L 796.523438 29.53125 L 765.078125 21.5625 L 733.59375 15.273438 L 702.148438 10.703125 L 670.664062 7.929688 L 639.21875 6.992188 L 607.734375 7.929688 L 576.289062 10.742188 L 544.804688 15.390625 L 513.359375 21.757812 L 481.875 29.765625 L 450.429688 39.140625 L 442.695312 41.640625 L 418.945312 51.601562 L 387.5 65.742188 L 364.609375 76.289062 L 356.015625 81.757812 L 324.570312 100.976562 L 306.875 110.898438 L 293.085938 122.773438 L 261.640625 145.546875 L 230.15625 175.390625 L 218.710938 180.195312 L 198.710938 214.804688 L 230.15625 249.453125 L 261.640625 284.101562 L 293.085938 318.75 L 324.570312 353.359375 L 356.015625 388.007812 L 387.5 422.65625 L 418.945312 457.265625 L 450.429688 491.914062 L 481.875 526.5625 L 513.359375 561.210938 L 544.804688 595.820312 L 576.289062 630.46875 L 607.734375 665.117188 L 639.21875 699.765625 L 670.664062 734.375 L 702.148438 769.023438 L 733.59375 803.671875 L 765.078125 838.320312 L 796.523438 872.929688 L 827.96875 907.578125 L 859.453125 942.226562 L 890.9375 976.835938 L 922.382812 1011.484375 L 953.867188 1046.132812 L 985.3125 1080.742188 L 1016.796875 1115.390625 L 1048.242188 1150.039062 L 1079.726562 1184.6875 L 1111.171875 1162.617188 L 1115.507812 1150.039062 L 1142.65625 1115.390625 L 1163.320312 1080.742188 L 1174.101562 1065.585938 L 1183.125 1046.132812 L 1200.585938 1011.484375 L 1205.585938 1002.03125 L 1215.117188 976.835938 L 1227.96875 942.226562 L 1237.03125 916.054688 L 1239.296875 907.578125 L 1247.851562 872.929688 L 1255.117188 838.320312 L 1260.898438 803.671875 L 1265.117188 769.023438 L 1267.65625 734.375 L 1268.515625 699.765625 " transform="matrix(0.1,0,0,-0.1,0,140)"/>
<path style="fill:none;stroke-width:5;stroke-linecap:butt;stroke-linejoin:miter;stroke:rgb(0%,0%,0%);stroke-opacity:1;stroke-miterlimit:10;" d="M 379.296875 6.992188 L 356.015625 13.671875 L 324.570312 22.34375 L 293.085938 30.117188 L 261.640625 36.25 L 230.15625 39.921875 L 198.710938 40.3125 L 167.226562 36.5625 L 135.78125 27.8125 L 104.296875 13.320312 L 94.6875 6.992188 " transform="matrix(0.1,0,0,-0.1,0,140)"/>
<path style="fill:none;stroke-width:5;stroke-linecap:butt;stroke-linejoin:miter;stroke:rgb(0%,0%,0%);stroke-opacity:1;stroke-miterlimit:10;" d="M 1268.515625 507.070312 L 1264.257812 491.914062 L 1253.007812 457.265625 L 1240.546875 422.65625 L 1237.03125 414.023438 L 1225.664062 388.007812 L 1209.257812 353.359375 L 1205.585938 346.367188 L 1190.078125 318.75 L 1174.101562 292.148438 L 1168.945312 284.101562 L 1144.960938 249.453125 L 1142.65625 246.367188 L 1117.5 214.804688 L 1111.171875 207.382812 L 1086.445312 180.195312 L 1079.726562 173.242188 L 1051.054688 145.546875 L 1048.242188 142.96875 L 1016.796875 116.601562 L 1009.492188 110.898438 L 985.3125 93.320312 L 960.195312 76.289062 L 953.867188 72.226562 L 922.382812 54.140625 L 898.789062 41.640625 L 890.9375 37.773438 L 859.453125 24.0625 L 827.96875 11.679688 L 814.21875 6.992188 " transform="matrix(0.1,0,0,-0.1,0,140)"/>
<path style="fill:none;stroke-width:5;stroke-linecap:butt;stroke-linejoin:miter;stroke:rgb(0%,0%,0%);stroke-opacity:1;stroke-miterlimit:10;" d="M 1268.515625 1299.179688 L 1262.773438 1288.59375 L 1249.609375 1253.945312 L 1241.640625 1219.296875 L 1238.242188 1184.6875 L 1238.59375 1150.039062 L 1241.953125 1115.390625 L 1247.5 1080.742188 L 1254.53125 1046.132812 L 1262.421875 1011.484375 L 1268.515625 985.859375 " transform="matrix(0.1,0,0,-0.1,0,140)"/>
<path style="fill:none;stroke-width:5;stroke-linecap:butt;stroke-linejoin:miter;stroke:rgb(0%,0%,0%);stroke-opacity:1;stroke-miterlimit:10;" d="M 896.523438 1184.6875 L 895.625 1150.039062 L 890.9375 1131.953125 L 887.148438 1115.390625 L 873.203125 1080.742188 L 859.453125 1055.859375 L 854.570312 1046.132812 L 832.96875 1011.484375 L 827.96875 1004.6875 L 809.101562 976.835938 L 796.523438 960.46875 L 783.320312 942.226562 L 765.078125 919.21875 L 756.171875 907.578125 L 733.59375 880 L 727.96875 872.929688 L 702.148438 842.226562 L 698.90625 838.320312 L 670.664062 805.546875 L 669.0625 803.671875 L 639.21875 769.765625 L 638.554688 769.023438 L 607.734375 734.726562 L 607.421875 734.375 L 576.289062 700.46875 L 575.625 699.765625 L 544.804688 666.875 L 543.085938 665.117188 L 513.359375 634.023438 L 509.765625 630.46875 L 481.875 602.03125 L 475.46875 595.820312 L 450.429688 570.976562 L 439.804688 561.210938 L 418.945312 541.09375 L 402.382812 526.5625 L 387.5 512.734375 L 362.226562 491.914062 L 356.015625 486.445312 L 324.570312 462.65625 L 315.703125 457.265625 L 293.085938 442.1875 L 261.640625 426.796875 L 246.601562 422.65625 L 230.15625 417.5 L 198.710938 416.484375 L 178.710938 422.65625 L 167.226562 426.09375 L 135.78125 448.4375 L 128.398438 457.265625 L 104.296875 487.695312 L 102.03125 491.914062 L 84.53125 526.5625 L 72.851562 553.359375 L 70.3125 561.210938 L 60.546875 595.820312 L 52.929688 630.46875 L 47.539062 665.117188 L 44.335938 699.765625 L 43.242188 734.375 L 44.257812 769.023438 L 47.265625 803.671875 L 52.148438 838.320312 L 58.828125 872.929688 L 67.148438 907.578125 L 72.851562 927.03125 L 77.65625 942.226562 L 90.625 976.835938 L 104.296875 1009.726562 L 105.078125 1011.484375 L 122.96875 1046.132812 L 135.78125 1068.90625 L 142.96875 1080.742188 L 165.859375 1115.390625 L 167.226562 1117.304688 L 192.8125 1150.039062 L 198.710938 1156.992188 L 223.828125 1184.6875 L 230.15625 1191.132812 L 259.882812 1219.296875 L 261.640625 1220.859375 L 293.085938 1246.015625 L 303.867188 1253.945312 L 324.570312 1268.007812 L 356.015625 1287.734375 L 357.617188 1288.59375 L 387.5 1303.632812 L 418.945312 1317.890625 L 432.734375 1323.203125 L 450.429688 1329.492188 L 481.875 1338.671875 L 513.359375 1346.015625 L 544.804688 1351.367188 L 576.289062 1354.6875 L 607.734375 1355.78125 L 639.21875 1354.609375 L 670.664062 1351.054688 L 702.148438 1345.117188 L 733.59375 1336.757812 L 765.078125 1326.015625 L 772.1875 1323.203125 L 796.523438 1310.351562 L 827.96875 1291.09375 L 831.835938 1288.59375 L 859.453125 1262.070312 L 867.5 1253.945312 L 887.773438 1219.296875 L 890.9375 1206.679688 L 896.523438 1184.6875 " transform="matrix(0.1,0,0,-0.1,0,140)"/>
<path style="fill:none;stroke-width:5;stroke-linecap:butt;stroke-linejoin:miter;stroke:rgb(0%,0%,0%);stroke-opacity:1;stroke-miterlimit:10;" d="M 1268.515625 436.835938 L 1263.085938 422.65625 L 1248.398438 388.007812 L 1237.03125 363.242188 L 1232.1875 353.359375 L 1213.59375 318.75 L 1205.585938 304.84375 L 1192.773438 284.101562 L 1174.101562 255.664062 L 1169.765625 249.453125 L 1143.828125 214.804688 L 1142.65625 213.359375 L 1114.296875 180.195312 L 1111.171875 176.757812 L 1081.015625 145.546875 L 1079.726562 144.257812 L 1048.242188 115.703125 L 1042.617188 110.898438 L 1016.796875 90.351562 L 997.929688 76.289062 L 985.3125 67.421875 L 953.867188 46.992188 L 944.882812 41.640625 L 922.382812 29.101562 L 890.9375 12.96875 L 878.046875 6.992188 " transform="matrix(0.1,0,0,-0.1,0,140)"/>
<path style="fill:none;stroke-width:5;stroke-linecap:butt;stroke-linejoin:miter;stroke:rgb(0%,0%,0%);stroke-opacity:1;stroke-miterlimit:10;" d="M 801.875 1150.039062 L 798.320312 1115.390625 L 796.523438 1109.0625 L 788.984375 1080.742188 L 775 1046.132812 L 765.078125 1027.070312 L 757.304688 1011.484375 L 736.679688 976.835938 L 733.59375 972.304688 L 713.710938 942.226562 L 702.148438 926.367188 L 688.710938 907.578125 L 670.664062 884.21875 L 662.03125 872.929688 L 639.21875 844.84375 L 633.90625 838.320312 L 607.734375 807.578125 L 604.375 803.671875 L 576.289062 772.03125 L 573.515625 769.023438 L 544.804688 738.085938 L 541.25 734.375 L 513.359375 705.585938 L 507.382812 699.765625 L 481.875 674.609375 L 471.601562 665.117188 L 450.429688 645.273438 L 433.359375 630.46875 L 418.945312 617.734375 L 391.601562 595.820312 L 387.5 592.421875 L 356.015625 569.726562 L 341.875 561.210938 L 324.570312 550.234375 L 293.085938 534.882812 L 267.382812 526.5625 L 261.640625 524.570312 L 230.15625 520.703125 L 198.710938 525.15625 L 195.585938 526.5625 L 167.226562 540.46875 L 145.234375 561.210938 L 135.78125 571.328125 L 120.859375 595.820312 L 104.296875 629.492188 L 103.945312 630.46875 L 93.90625 665.117188 L 86.914062 699.765625 L 82.773438 734.375 L 81.328125 769.023438 L 82.421875 803.671875 L 85.898438 838.320312 L 91.523438 872.929688 L 99.179688 907.578125 L 104.296875 925.859375 L 109.335938 942.226562 L 122.265625 976.835938 L 135.78125 1008.984375 L 136.914062 1011.484375 L 155.390625 1046.132812 L 167.226562 1066.367188 L 176.40625 1080.742188 L 198.710938 1112.695312 L 200.742188 1115.390625 L 229.609375 1150.039062 L 230.15625 1150.664062 L 261.640625 1182.421875 L 264.0625 1184.6875 L 293.085938 1209.179688 L 306.171875 1219.296875 L 324.570312 1232.34375 L 356.015625 1252.695312 L 358.320312 1253.945312 L 387.5 1268.828125 L 418.945312 1283.007812 L 433.828125 1288.59375 L 450.429688 1294.257812 L 481.875 1302.65625 L 513.359375 1308.867188 L 544.804688 1312.65625 L 576.289062 1313.867188 L 607.734375 1312.304688 L 639.21875 1307.734375 L 670.664062 1300 L 702.148438 1288.984375 L 703.007812 1288.59375 L 733.59375 1270.351562 L 755.859375 1253.945312 L 765.078125 1243.554688 L 783.90625 1219.296875 L 796.523438 1188.125 L 797.8125 1184.6875 L 801.875 1150.039062 " transform="matrix(0.1,0,0,-0.1,0,140)"/>
<path style="fill:none;stroke-width:5;stroke-linecap:butt;stroke-linejoin:miter;stroke:rgb(0%,0%,0%);stroke-opacity:1;stroke-miterlimit:10;" d="M 1268.515625 385.3125 L 1253.164062 353.359375 L 1237.03125 321.757812 L 1235.390625 318.75 L 1214.882812 284.101562 L 1205.585938 269.296875 L 1192.265625 249.453125 L 1174.101562 223.90625 L 1167.226562 214.804688 L 1142.65625 184.21875 L 1139.179688 180.195312 L 1111.171875 149.335938 L 1107.5 145.546875 L 1079.726562 118.476562 L 1071.445312 110.898438 L 1048.242188 90.898438 L 1030.234375 76.289062 L 1016.796875 66.015625 L 985.3125 43.4375 L 982.578125 41.640625 L 953.867188 23.867188 L 924.84375 6.992188 " transform="matrix(0.1,0,0,-0.1,0,140)"/>
<path style="fill:none;stroke-width:5;stroke-linecap:butt;stroke-linejoin:miter;stroke:rgb(0%,0%,0%);stroke-opacity:1;stroke-miterlimit:10;" d="M 714.84375 1115.390625 L 709.609375 1080.742188 L 702.148438 1056.484375 L 699.023438 1046.132812 L 684.023438 1011.484375 L 670.664062 986.40625 L 665.625 976.835938 L 644.21875 942.226562 L 639.21875 934.960938 L 620.15625 907.578125 L 607.734375 891.132812 L 593.828125 872.929688 L 576.289062 851.40625 L 565.3125 838.320312 L 544.804688 814.882812 L 534.609375 803.671875 L 513.359375 781.054688 L 501.445312 769.023438 L 481.875 749.6875 L 465.351562 734.375 L 450.429688 720.703125 L 425.507812 699.765625 L 418.945312 694.21875 L 387.5 670.664062 L 378.789062 665.117188 L 356.015625 650.390625 L 324.570312 633.90625 L 315.15625 630.46875 L 293.085938 622.226562 L 261.640625 616.484375 L 230.15625 618.359375 L 198.710938 630.46875 L 167.226562 659.257812 L 163.320312 665.117188 L 145.195312 699.765625 L 135.78125 725.9375 L 133.59375 734.375 L 128.007812 769.023438 L 125.859375 803.671875 L 126.835938 838.320312 L 130.625 872.929688 L 135.78125 900.820312 L 137.148438 907.578125 L 147.304688 942.226562 L 159.609375 976.835938 L 167.226562 994.6875 L 175.15625 1011.484375 L 193.828125 1046.132812 L 198.710938 1054.023438 L 216.796875 1080.742188 L 230.15625 1098.632812 L 243.945312 1115.390625 L 261.640625 1134.84375 L 276.835938 1150.039062 L 293.085938 1164.765625 L 317.382812 1184.6875 L 324.570312 1190.039062 L 356.015625 1210.625 L 371.289062 1219.296875 L 387.5 1227.695312 L 418.945312 1241.25 L 450.429688 1252.421875 L 456.5625 1253.945312 L 481.875 1259.609375 L 513.359375 1263.75 L 544.804688 1264.84375 L 576.289062 1262.460938 L 607.734375 1256.328125 L 615.429688 1253.945312 L 639.21875 1243.59375 L 670.664062 1223.59375 L 675.976562 1219.296875 L 702.148438 1184.6875 L 713.164062 1150.039062 L 714.84375 1115.390625 " transform="matrix(0.1,0,0,-0.1,0,140)"/>
<path style="fill:none;stroke-width:5;stroke-linecap:butt;stroke-linejoin:miter;stroke:rgb(0%,0%,0%);stroke-opacity:1;stroke-miterlimit:10;" d="M 1268.515625 344.140625 L 1255.078125 318.75 L 1237.03125 286.484375 L 1235.625 284.101562 L 1213.398438 249.453125 L 1205.585938 237.96875 L 1188.867188 214.804688 L 1174.101562 195.507812 L 1161.71875 180.195312 L 1142.65625 157.929688 L 1131.367188 145.546875 L 1111.171875 124.570312 L 1097.265625 110.898438 L 1079.726562 94.6875 L 1058.671875 76.289062 L 1048.242188 67.695312 L 1016.796875 43.203125 L 1014.609375 41.640625 L 985.3125 21.796875 L 962.226562 6.992188 " transform="matrix(0.1,0,0,-0.1,0,140)"/>
<path style="fill:none;stroke-width:5;stroke-linecap:butt;stroke-linejoin:miter;stroke:rgb(0%,0%,0%);stroke-opacity:1;stroke-miterlimit:10;" d="M 623.75 1080.742188 L 617.421875 1046.132812 L 607.734375 1017.851562 L 605.546875 1011.484375 L 588.632812 976.835938 L 576.289062 955.742188 L 568.125 942.226562 L 544.804688 908.359375 L 544.257812 907.578125 L 516.5625 872.929688 L 513.359375 869.179688 L 485.273438 838.320312 L 481.875 834.765625 L 450.429688 804.257812 L 449.726562 803.671875 L 418.945312 778.007812 L 406.640625 769.023438 L 387.5 755.390625 L 356.015625 736.796875 L 350.234375 734.375 L 324.570312 723.710938 L 293.085938 716.757812 L 261.640625 718.007812 L 230.15625 731.210938 L 226.5625 734.375 L 198.710938 769.023438 L 187.617188 803.671875 L 182.734375 838.320312 L 182.929688 872.929688 L 187.265625 907.578125 L 195.117188 942.226562 L 198.710938 953.085938 L 207.539062 976.835938 L 223.476562 1011.484375 L 230.15625 1023.554688 L 244.21875 1046.132812 L 261.640625 1070.703125 L 269.6875 1080.742188 L 293.085938 1106.523438 L 302.226562 1115.390625 L 324.570312 1134.570312 L 345.039062 1150.039062 L 356.015625 1157.382812 L 387.5 1174.921875 L 409.0625 1184.6875 L 418.945312 1188.632812 L 450.429688 1197.226562 L 481.875 1202.03125 L 513.359375 1202.226562 L 544.804688 1196.875 L 576.289062 1184.6875 L 607.734375 1153.984375 L 610.625 1150.039062 L 622.617188 1115.390625 L 623.75 1080.742188 " transform="matrix(0.1,0,0,-0.1,0,140)"/>
<path style="fill:none;stroke-width:5;stroke-linecap:butt;stroke-linejoin:miter;stroke:rgb(0%,0%,0%);stroke-opacity:1;stroke-miterlimit:10;" d="M 1268.515625 308.671875 L 1254.375 284.101562 L 1237.03125 255.585938 L 1233.085938 249.453125 L 1209.335938 214.804688 L 1205.585938 209.6875 L 1182.8125 180.195312 L 1174.101562 169.453125 L 1153.554688 145.546875 L 1142.65625 133.554688 L 1120.9375 110.898438 L 1111.171875 101.289062 L 1084.375 76.289062 L 1079.726562 72.148438 L 1048.242188 45.976562 L 1042.695312 41.640625 L 1016.796875 22.578125 L 994.453125 6.992188 " transform="matrix(0.1,0,0,-0.1,0,140)"/>
<path style="fill:none;stroke-width:5;stroke-linecap:butt;stroke-linejoin:miter;stroke:rgb(0%,0%,0%);stroke-opacity:1;stroke-miterlimit:10;" d="M 508.28125 1046.132812 L 502.5 1011.484375 L 488.554688 976.835938 L 481.875 965.46875 L 466.757812 942.226562 L 450.429688 921.523438 L 437.734375 907.578125 L 418.945312 889.609375 L 397.8125 872.929688 L 387.5 865.585938 L 356.015625 850.234375 L 324.570312 843.867188 L 293.085938 854.296875 L 278.398438 872.929688 L 268.984375 907.578125 L 271.796875 942.226562 L 282.1875 976.835938 L 293.085938 1000.390625 L 299.335938 1011.484375 L 324.570312 1046.132812 L 356.015625 1073.867188 L 366.09375 1080.742188 L 387.5 1092.773438 L 418.945312 1104.179688 L 450.429688 1107.304688 L 481.875 1096.953125 L 498.789062 1080.742188 L 508.28125 1046.132812 " transform="matrix(0.1,0,0,-0.1,0,140)"/>
<path style="fill:none;stroke-width:5;stroke-linecap:butt;stroke-linejoin:miter;stroke:rgb(0%,0%,0%);stroke-opacity:1;stroke-miterlimit:10;" d="M 1268.515625 277.226562 L 1251.25 249.453125 L 1237.03125 227.734375 L 1228.085938 214.804688 L 1205.585938 183.945312 L 1202.65625 180.195312 L 1174.453125 145.546875 L 1174.101562 145.15625 L 1143.007812 110.898438 L 1142.65625 110.507812 L 1111.171875 79.453125 L 1107.773438 76.289062 L 1079.726562 51.484375 L 1067.96875 41.640625 L 1048.242188 25.976562 L 1023.007812 6.992188 " transform="matrix(0.1,0,0,-0.1,0,140)"/>
<path style="fill:none;stroke-width:5;stroke-linecap:butt;stroke-linejoin:miter;stroke:rgb(0%,0%,0%);stroke-opacity:1;stroke-miterlimit:10;" d="M 1268.515625 248.710938 L 1245.9375 214.804688 L 1237.03125 202.148438 L 1220.859375 180.195312 L 1205.585938 160.507812 L 1193.320312 145.546875 L 1174.101562 123.28125 L 1162.890625 110.898438 L 1142.65625 89.765625 L 1129.023438 76.289062 L 1111.171875 59.453125 L 1091.25 41.640625 L 1079.726562 31.835938 L 1048.90625 6.992188 " transform="matrix(0.1,0,0,-0.1,0,140)"/>
<path style="fill:none;stroke-width:5;stroke-linecap:butt;stroke-linejoin:miter;stroke:rgb(0%,0%,0%);stroke-opacity:1;stroke-miterlimit:10;" d="M 1268.515625 223.242188 L 1262.890625 214.804688 L 1238.59375 180.195312 L 1237.03125 178.125 L 1211.523438 145.546875 L 1205.585938 138.28125 L 1181.914062 110.898438 L 1174.101562 102.304688 L 1149.257812 76.289062 L 1142.65625 69.6875 L 1113.046875 41.640625 L 1111.171875 39.921875 L 1079.726562 13.164062 L 1072.070312 6.992188 " transform="matrix(0.1,0,0,-0.1,0,140)"/>
<path style="fill:none;stroke-width:5;stroke-linecap:butt;stroke-linejoin:miter;stroke:rgb(0%,0%,0%);stroke-opacity:1;stroke-miterlimit:10;" d="M 1268.515625 199.492188 L 1254.804688 180.195312 L 1237.03125 156.328125 L 1228.59375 145.546875 L 1205.585938 117.539062 L 1199.84375 110.898438 L 1174.101562 82.578125 L 1168.085938 76.289062 L 1142.65625 50.898438 L 1132.851562 41.640625 L 1111.171875 22.070312 L 1093.632812 6.992188 " transform="matrix(0.1,0,0,-0.1,0,140)"/>
<path style="fill:none;stroke-width:5;stroke-linecap:butt;stroke-linejoin:miter;stroke:rgb(0%,0%,0%);stroke-opacity:1;stroke-miterlimit:10;" d="M 1268.515625 176.953125 L 1244.882812 145.546875 L 1237.03125 135.546875 L 1216.679688 110.898438 L 1205.585938 98.085938 L 1185.742188 76.289062 L 1174.101562 64.0625 L 1151.71875 41.640625 L 1142.65625 32.96875 L 1114.101562 6.992188 " transform="matrix(0.1,0,0,-0.1,0,140)"/>
</g>
</svg>
