<?xml version="1.0" encoding="UTF-8"?>
<svg xmlns="http://www.w3.org/2000/svg" xmlns:xlink="http://www.w3.org/1999/xlink" width="200.760834pt" height="200.716568pt" viewBox="0 0 200.760834 200.716568" version="1.1">
<defs>
<clipPath id="clip1">
  <path d="M 54 104 L 200.761719 104 L 200.761719 200.714844 L 54 200.714844 Z M 54 104 "/>
</clipPath>
<clipPath id="clip2">
  <path d="M 177 119 L 200.761719 119 L 200.761719 143 L 177 143 Z M 177 119 "/>
</clipPath>
<clipPath id="clip3">
  <path d="M 75 188 L 92 188 L 92 200.714844 L 75 200.714844 Z M 75 188 "/>
</clipPath>
<clipPath id="clip4">
  <path d="M 74 188 L 93 188 L 93 200.714844 L 74 200.714844 Z M 74 188 "/>
</clipPath>
<clipPath id="clip5">
  <path d="M 38 0 L 200.761719 0 L 200.761719 93 L 38 93 Z M 38 0 "/>
</clipPath>
<clipPath id="clip6">
  <path d="M 190 87 L 200.761719 87 L 200.761719 93 L 190 93 Z M 190 87 "/>
</clipPath>
</defs>
<g id="surface1">
<g clip-path="url(#clip1)" clip-rule="nonzero">
<path style="fill:none;stroke-width:4.8;stroke-linecap:butt;stroke-linejoin:miter;stroke:rgb(100%,0%,0%);stroke-opacity:1;stroke-miterlimit:4;" d="M 188.601562 131.234375 C 172.667969 175.011719 127.601562 201.03125 81.722656 192.941406 "/>
</g>
<path style=" stroke:none;fill-rule:evenodd;fill:rgb(100%,0%,0%);fill-opacity:1;" d="M 186.992188 135.652344 C 184.503906 134.746094 183.21875 131.992188 184.125 129.5 C 185.03125 127.011719 187.789062 125.726562 190.277344 126.632812 C 192.765625 127.539062 194.050781 130.296875 193.144531 132.785156 C 192.238281 135.273438 189.484375 136.558594 186.992188 135.652344 Z M 186.992188 135.652344 "/>
<g clip-path="url(#clip2)" clip-rule="nonzero">
<path style="fill:none;stroke-width:1.127631;stroke-linecap:butt;stroke-linejoin:miter;stroke:rgb(100%,0%,0%);stroke-opacity:1;stroke-miterlimit:4;" d="M 59.685951 -208.716083 C 59.68543 -206.227612 57.66671 -204.207702 55.17479 -204.206968 C 52.686319 -204.207489 50.665154 -206.229658 50.665675 -208.718129 C 50.666196 -211.2066 52.688365 -213.227766 55.176836 -213.227244 C 57.665307 -213.226723 59.685217 -211.208003 59.685951 -208.716083 Z M 59.685951 -208.716083 " transform="matrix(-0.36397,1,-1,-0.36397,0,0)"/>
</g>
<g clip-path="url(#clip3)" clip-rule="nonzero">
<path style=" stroke:none;fill-rule:evenodd;fill:rgb(100%,0%,0%);fill-opacity:1;" d="M 89.816406 200.265625 L 75.324219 191.835938 L 91.824219 188.871094 C 88.757812 191.796875 87.960938 196.402344 89.816406 200.265625 Z M 89.816406 200.265625 "/>
</g>
<g clip-path="url(#clip4)" clip-rule="nonzero">
<path style="fill:none;stroke-width:0.886327;stroke-linecap:butt;stroke-linejoin:round;stroke:rgb(100%,0%,0%);stroke-opacity:1;stroke-miterlimit:4;" d="M 121.355552 178.867365 L 105.858796 173.170174 L 121.354242 167.473064 C 118.880637 170.835009 118.895372 175.437879 121.355552 178.867365 Z M 121.355552 178.867365 " transform="matrix(1,0.176327,-0.176327,1,0,0)"/>
</g>
<path style="fill:none;stroke-width:4.8;stroke-linecap:butt;stroke-linejoin:miter;stroke:rgb(100%,0%,0%);stroke-opacity:1;stroke-miterlimit:4;" d="M 24.851562 160.105469 C -5.09375 124.417969 -5.09375 72.378906 24.851562 36.691406 "/>
<path style="fill-rule:evenodd;fill:rgb(100%,0%,0%);fill-opacity:1;stroke-width:0.919253;stroke-linecap:butt;stroke-linejoin:miter;stroke:rgb(100%,0%,0%);stroke-opacity:1;stroke-miterlimit:4;" d="M -102.588483 -64.253871 C -102.589244 -62.22326 -104.235795 -60.577537 -106.264114 -60.576374 C -108.294726 -60.577136 -109.942741 -62.22561 -109.943903 -64.253929 C -109.943142 -66.284541 -108.296591 -67.930263 -106.26598 -67.929502 C -104.237661 -67.930665 -102.587722 -66.284483 -102.588483 -64.253871 Z M -102.588483 -64.253871 " transform="matrix(-0.8391,-1,1,-0.8391,0,0)"/>
<path style="fill-rule:evenodd;fill:rgb(100%,0%,0%);fill-opacity:1;stroke-width:0.68944;stroke-linecap:butt;stroke-linejoin:round;stroke:rgb(100%,0%,0%);stroke-opacity:1;stroke-miterlimit:4;" d="M 16.375256 -28.201414 L 4.322883 -32.635143 L 16.375444 -37.064854 C 14.449492 -34.448787 14.461258 -30.868816 16.375256 -28.201414 Z M 16.375256 -28.201414 " transform="matrix(-0.8391,1,-1,-0.8391,0,0)"/>
<g clip-path="url(#clip5)" clip-rule="nonzero">
<path style="fill:none;stroke-width:4.8;stroke-linecap:butt;stroke-linejoin:miter;stroke:rgb(100%,0%,0%);stroke-opacity:1;stroke-miterlimit:4;" d="M 65.558594 8.1875 C 89.484375 -0.519531 115.886719 0.632812 138.964844 11.394531 C 162.039062 22.15625 179.894531 41.640625 188.601562 65.566406 "/>
</g>
<path style="fill-rule:evenodd;fill:rgb(100%,0%,0%);fill-opacity:1;stroke-width:1.127631;stroke-linecap:butt;stroke-linejoin:miter;stroke:rgb(100%,0%,0%);stroke-opacity:1;stroke-miterlimit:4;" d="M 59.678895 28.303359 C 59.679416 30.79183 57.658251 32.813999 55.166331 32.813265 C 52.67786 32.813786 50.655691 30.792621 50.656425 28.3007 C 50.655904 25.812229 52.677069 23.79006 55.168989 23.790795 C 57.65746 23.790273 59.679629 25.811438 59.678895 28.303359 Z M 59.678895 28.303359 " transform="matrix(1,-0.36397,0.36397,1,0,0)"/>
<path style="fill-rule:evenodd;fill:rgb(100%,0%,0%);fill-opacity:1;stroke-width:0.845723;stroke-linecap:butt;stroke-linejoin:round;stroke:rgb(100%,0%,0%);stroke-opacity:1;stroke-miterlimit:4;" d="M -109.826643 150.924834 L -124.610039 145.489434 L -109.82689 140.053651 C -112.19055 143.263662 -112.17585 147.655731 -109.826643 150.924834 Z M -109.826643 150.924834 " transform="matrix(-0.36397,-1,1,-0.36397,0,0)"/>
<path style=" stroke:none;fill-rule:nonzero;fill:rgb(0%,0%,0%);fill-opacity:1;" d="M 45.300781 1.308594 L 40.300781 5.359375 L 41.199219 6.558594 L 45.300781 3.960938 L 49.398438 6.558594 L 50.300781 5.359375 Z M 45.300781 1.308594 "/>
<path style=" stroke:none;fill-rule:nonzero;fill:rgb(0%,0%,0%);fill-opacity:1;" d="M 42.488281 23.882812 L 42.488281 9.28125 L 36.839844 9.53125 L 36.839844 11.03125 C 38.789062 11.03125 39.039062 11.03125 39.039062 12.28125 L 39.039062 29.929688 L 36.839844 29.929688 L 36.839844 31.429688 C 37.988281 31.382812 39.488281 31.332031 40.640625 31.332031 C 41.839844 31.332031 43.339844 31.382812 44.488281 31.429688 L 44.488281 29.929688 L 42.289062 29.929688 L 42.289062 25.882812 C 43.238281 25.132812 43.488281 24.929688 44.140625 24.53125 L 47.339844 28.53125 C 47.640625 28.929688 48.140625 29.53125 48.140625 29.632812 C 48.140625 29.929688 47.589844 29.929688 47.140625 29.929688 L 47.140625 31.429688 C 48.089844 31.382812 50.890625 31.332031 51.039062 31.332031 C 52.191406 31.332031 53.289062 31.382812 54.390625 31.429688 L 54.390625 29.929688 L 53.839844 29.929688 C 52.441406 29.929688 52.339844 29.78125 51.941406 29.28125 L 46.539062 22.582031 L 50.691406 19.332031 C 51.140625 18.980469 51.441406 18.78125 53.589844 18.78125 L 53.589844 17.28125 C 52.691406 17.382812 51.890625 17.382812 51.089844 17.382812 C 50.238281 17.382812 48.140625 17.28125 47.390625 17.28125 L 47.390625 18.78125 C 48.140625 18.78125 48.238281 18.882812 48.488281 19.132812 Z M 42.488281 23.882812 "/>
<g clip-path="url(#clip6)" clip-rule="nonzero">
<path style=" stroke:none;fill-rule:nonzero;fill:rgb(0%,0%,0%);fill-opacity:1;" d="M 195.761719 87.089844 L 190.761719 91.140625 L 191.660156 92.339844 L 195.761719 89.742188 L 199.859375 92.339844 L 200.761719 91.140625 Z M 195.761719 87.089844 "/>
</g>
<path style=" stroke:none;fill-rule:nonzero;fill:rgb(0%,0%,0%);fill-opacity:1;" d="M 199.9375 104.539062 C 199.9375 104.089844 199.4375 104.089844 199.1875 104.089844 C 198.785156 104.089844 198.585938 104.089844 198.4375 104.492188 C 197.4375 107.839844 195.835938 108.339844 195.136719 108.339844 C 194.835938 108.339844 194.636719 108.242188 194.636719 107.640625 C 194.636719 106.890625 194.9375 106.191406 195.6875 104.289062 L 197.835938 98.789062 C 197.984375 98.339844 198.085938 97.992188 198.085938 97.691406 C 198.085938 95.992188 196.4375 94.839844 194.4375 94.839844 C 191.136719 94.839844 189.484375 99.089844 189.484375 99.789062 C 189.484375 100.242188 189.984375 100.242188 190.285156 100.242188 C 190.636719 100.242188 190.886719 100.242188 190.984375 99.839844 C 191.984375 96.492188 193.636719 95.992188 194.285156 95.992188 C 194.585938 95.992188 194.785156 96.089844 194.785156 96.691406 C 194.785156 97.390625 194.535156 98.089844 193.734375 100.039062 L 191.636719 105.539062 C 191.4375 105.941406 191.335938 106.339844 191.335938 106.640625 C 191.335938 108.289062 193.035156 109.492188 194.984375 109.492188 C 198.335938 109.492188 199.9375 105.242188 199.9375 104.539062 Z M 199.9375 104.539062 "/>
<path style=" stroke:none;fill-rule:nonzero;fill:rgb(0%,0%,0%);fill-opacity:1;" d="M 53.636719 167.105469 L 48.636719 171.15625 L 49.539062 172.355469 L 53.636719 169.753906 L 57.738281 172.355469 L 58.636719 171.15625 Z M 53.636719 167.105469 "/>
<path style=" stroke:none;fill-rule:nonzero;fill:rgb(0%,0%,0%);fill-opacity:1;" d="M 56.601562 179.054688 C 56.703125 178.707031 56.753906 178.40625 56.753906 177.957031 C 56.753906 175.90625 54.753906 174.855469 52.753906 174.855469 C 48.953125 174.855469 46.800781 179.253906 46.800781 179.804688 C 46.800781 180.253906 47.253906 180.253906 47.550781 180.253906 C 48.101562 180.253906 48.152344 180.207031 48.351562 179.753906 C 49.550781 177.003906 51.351562 176.003906 52.601562 176.003906 C 52.902344 176.003906 53.351562 176.003906 53.351562 177.15625 C 53.351562 177.753906 53.253906 178.105469 53.152344 178.554688 L 50.101562 190.707031 C 49.550781 192.855469 48.300781 194.554688 46.703125 194.554688 C 46.402344 194.554688 46.351562 194.554688 45.953125 194.503906 C 46.953125 193.804688 47.003906 192.753906 47.003906 192.554688 C 47.003906 191.855469 46.453125 191.105469 45.402344 191.105469 C 44.253906 191.105469 43.152344 192.15625 43.152344 193.40625 C 43.152344 194.90625 44.703125 195.707031 46.753906 195.707031 C 48.753906 195.707031 52.703125 194.605469 53.703125 190.707031 Z M 56.601562 179.054688 "/>
</g>
</svg>
