<?xml version="1.0" encoding="UTF-8"?>
<svg xmlns="http://www.w3.org/2000/svg" xmlns:xlink="http://www.w3.org/1999/xlink" width="125pt" height="87pt" viewBox="0 0 125 87" version="1.1">
<g id="surface1">
<path style="fill-rule:nonzero;fill:rgb(59.959412%,59.959412%,59.959412%);fill-opacity:1;stroke-width:10;stroke-linecap:butt;stroke-linejoin:miter;stroke:rgb(0%,0%,0%);stroke-opacity:1;stroke-miterlimit:10;" d="M 1110.78125 346.796875 C 1110.78125 525.742188 869.023438 670.820312 570.820312 670.820312 C 272.578125 670.820312 30.820312 525.742188 30.820312 346.796875 C 30.820312 167.851562 272.578125 22.8125 570.820312 22.8125 C 869.023438 22.8125 1110.78125 167.851562 1110.78125 346.796875 " transform="matrix(0.1,0,0,-0.1,0,87)"/>
<path style="fill-rule:nonzero;fill:rgb(100%,100%,100%);fill-opacity:1;stroke-width:10;stroke-linecap:butt;stroke-linejoin:miter;stroke:rgb(0%,0%,0%);stroke-opacity:1;stroke-miterlimit:10;" d="M 894.804688 400.820312 C 894.804688 460.429688 798.085938 508.789062 678.789062 508.789062 C 559.492188 508.789062 462.8125 460.429688 462.8125 400.820312 C 462.8125 341.171875 559.492188 292.8125 678.789062 292.8125 C 798.085938 292.8125 894.804688 341.171875 894.804688 400.820312 " transform="matrix(0.1,0,0,-0.1,0,87)"/>
<path style="fill:none;stroke-width:5;stroke-linecap:butt;stroke-linejoin:miter;stroke:rgb(0%,0%,0%);stroke-opacity:1;stroke-miterlimit:10;" d="M 1132.539062 772.421875 L 894.804688 606.015625 " transform="matrix(0.1,0,0,-0.1,0,87)"/>
<path style="fill:none;stroke-width:5;stroke-linecap:butt;stroke-linejoin:miter;stroke:rgb(0%,0%,0%);stroke-opacity:1;stroke-dasharray:30,30;stroke-miterlimit:10;" d="M 894.804688 606.015625 L 84.804688 38.984375 " transform="matrix(0.1,0,0,-0.1,0,87)"/>
<path style="fill-rule:nonzero;fill:rgb(84.959412%,84.959412%,84.959412%);fill-opacity:1;stroke-width:5;stroke-linecap:butt;stroke-linejoin:miter;stroke:rgb(0%,0%,0%);stroke-opacity:1;stroke-miterlimit:10;" d="M 916.40625 606.015625 C 916.40625 617.929688 906.71875 627.617188 894.804688 627.617188 C 882.890625 627.617188 873.203125 617.929688 873.203125 606.015625 C 873.203125 594.0625 882.890625 584.414062 894.804688 584.414062 C 906.71875 584.414062 916.40625 594.0625 916.40625 606.015625 " transform="matrix(0.1,0,0,-0.1,0,87)"/>
<path style="fill:none;stroke-width:5;stroke-linecap:butt;stroke-linejoin:miter;stroke:rgb(0%,0%,0%);stroke-opacity:1;stroke-miterlimit:10;" d="M 1218.789062 832.8125 L 1156.835938 744.335938 " transform="matrix(0.1,0,0,-0.1,0,87)"/>
<path style="fill:none;stroke-width:5;stroke-linecap:butt;stroke-linejoin:miter;stroke:rgb(0%,0%,0%);stroke-opacity:1;stroke-miterlimit:10;" d="M 1218.789062 832.8125 L 1114.492188 804.84375 " transform="matrix(0.1,0,0,-0.1,0,87)"/>
<path style=" stroke:none;fill-rule:nonzero;fill:rgb(59.959412%,59.959412%,59.959412%);fill-opacity:1;" d="M 121.878906 3.71875 L 114.054688 5.816406 C 114.546875 7.65625 115.671875 9.261719 117.234375 10.355469 "/>
<path style="fill:none;stroke-width:5;stroke-linecap:butt;stroke-linejoin:miter;stroke:rgb(0%,0%,0%);stroke-opacity:1;stroke-miterlimit:10;" d="M 1140.546875 811.835938 C 1145.46875 793.4375 1156.71875 777.382812 1172.34375 766.445312 " transform="matrix(0.1,0,0,-0.1,0,87)"/>
<path style="fill-rule:nonzero;fill:rgb(30.004883%,30.004883%,30.004883%);fill-opacity:1;stroke-width:5;stroke-linecap:butt;stroke-linejoin:miter;stroke:rgb(0%,0%,0%);stroke-opacity:1;stroke-miterlimit:10;" d="M 215.039062 115.039062 C 215.039062 126.953125 205.351562 136.640625 193.4375 136.640625 C 181.523438 136.640625 171.835938 126.953125 171.835938 115.039062 C 171.835938 103.125 181.523438 93.4375 193.4375 93.4375 C 205.351562 93.4375 215.039062 103.125 215.039062 115.039062 " transform="matrix(0.1,0,0,-0.1,0,87)"/>
<path style="fill-rule:nonzero;fill:rgb(30.004883%,30.004883%,30.004883%);fill-opacity:1;stroke-width:5;stroke-linecap:butt;stroke-linejoin:miter;stroke:rgb(0%,0%,0%);stroke-opacity:1;stroke-miterlimit:10;" d="M 529.179688 334.960938 C 529.179688 346.875 519.53125 356.5625 507.578125 356.5625 C 495.664062 356.5625 485.976562 346.875 485.976562 334.960938 C 485.976562 323.007812 495.664062 313.359375 507.578125 313.359375 C 519.53125 313.359375 529.179688 323.007812 529.179688 334.960938 " transform="matrix(0.1,0,0,-0.1,0,87)"/>
<path style="fill-rule:nonzero;fill:rgb(30.004883%,30.004883%,30.004883%);fill-opacity:1;stroke-width:5;stroke-linecap:butt;stroke-linejoin:miter;stroke:rgb(0%,0%,0%);stroke-opacity:1;stroke-miterlimit:10;" d="M 769.453125 503.125 C 769.453125 515.078125 759.765625 524.726562 747.851562 524.726562 C 735.9375 524.726562 726.25 515.078125 726.25 503.125 C 726.25 491.210938 735.9375 481.523438 747.851562 481.523438 C 759.765625 481.523438 769.453125 491.210938 769.453125 503.125 " transform="matrix(0.1,0,0,-0.1,0,87)"/>
</g>
</svg>
