<?xml version="1.0" encoding="UTF-8"?>
<svg xmlns="http://www.w3.org/2000/svg" xmlns:xlink="http://www.w3.org/1999/xlink" width="104pt" height="115pt" viewBox="0 0 104 115" version="1.1">
<g id="surface1">
<path style="fill:none;stroke-width:10;stroke-linecap:butt;stroke-linejoin:miter;stroke:rgb(92.939758%,10.978699%,14.118958%);stroke-opacity:1;stroke-miterlimit:10;" d="M 470.273438 911.40625 L 542.226562 912.617188 L 613.789062 916.25 L 683.203125 922.148438 L 748.828125 930.234375 L 808.945312 940.273438 L 862.148438 952.070312 L 885.742188 958.476562 L 907.109375 965.234375 L 926.132812 972.265625 L 942.695312 979.53125 L 956.679688 986.992188 L 968.046875 994.570312 L 976.679688 1002.265625 L 982.578125 1010 L 985.625 1017.734375 L 985.859375 1025.429688 L 983.28125 1033.007812 L 977.851562 1040.46875 L 969.6875 1047.734375 L 958.789062 1054.765625 L 945.195312 1061.523438 L 929.0625 1067.96875 L 910.429688 1074.023438 L 889.453125 1079.726562 L 866.210938 1084.960938 L 840.898438 1089.765625 L 784.648438 1097.851562 L 722.070312 1103.789062 L 654.648438 1107.382812 L 584.101562 1108.59375 L 512.1875 1107.382812 L 440.625 1103.789062 L 371.171875 1097.851562 L 305.585938 1089.765625 L 245.46875 1079.726562 L 192.265625 1067.96875 L 168.671875 1061.523438 L 147.304688 1054.765625 L 128.28125 1047.734375 L 111.71875 1040.46875 L 97.695312 1033.007812 L 86.328125 1025.429688 L 77.695312 1017.734375 L 71.835938 1010 L 68.75 1002.265625 L 68.554688 994.570312 L 71.132812 986.992188 L 76.523438 979.53125 L 84.726562 972.265625 L 95.625 965.234375 L 109.179688 958.476562 L 125.351562 952.070312 L 143.984375 945.976562 L 164.960938 940.273438 L 188.164062 935.039062 L 213.476562 930.234375 L 269.765625 922.148438 L 332.34375 916.25 L 399.726562 912.617188 L 470.273438 911.40625 " transform="matrix(0.1,0,0,-0.1,0,115)"/>
<path style="fill:none;stroke-width:10;stroke-linecap:butt;stroke-linejoin:miter;stroke:rgb(92.939758%,10.978699%,14.118958%);stroke-opacity:1;stroke-miterlimit:10;" d="M 470.273438 47.421875 L 542.226562 48.632812 L 613.789062 52.226562 L 683.203125 58.164062 L 748.828125 66.25 L 808.945312 76.289062 L 862.148438 88.046875 L 885.742188 94.492188 L 907.109375 101.25 L 926.132812 108.28125 L 942.695312 115.546875 L 956.679688 122.96875 L 968.046875 130.585938 L 976.679688 138.28125 L 982.578125 146.015625 L 985.625 153.75 L 985.859375 161.40625 L 983.28125 169.023438 L 977.851562 176.484375 L 969.6875 183.710938 L 958.789062 190.742188 L 945.195312 197.5 L 929.0625 203.945312 L 910.429688 210.039062 L 889.453125 215.703125 L 866.210938 220.976562 L 840.898438 225.78125 L 784.648438 233.828125 L 722.070312 239.765625 L 654.648438 243.359375 L 584.101562 244.609375 L 512.1875 243.359375 L 440.625 239.765625 L 371.171875 233.828125 L 305.585938 225.78125 L 245.46875 215.703125 L 192.265625 203.945312 L 168.671875 197.5 L 147.304688 190.742188 L 128.28125 183.710938 L 111.71875 176.484375 L 97.695312 169.023438 L 86.328125 161.40625 L 77.695312 153.75 L 71.835938 146.015625 L 68.75 138.28125 L 68.554688 130.585938 L 71.132812 122.96875 L 76.523438 115.546875 L 84.726562 108.28125 L 95.625 101.25 L 109.179688 94.492188 L 125.351562 88.046875 L 143.984375 81.992188 L 164.960938 76.289062 L 188.164062 71.015625 L 213.476562 66.25 L 269.765625 58.164062 L 332.34375 52.226562 L 399.726562 48.632812 L 470.273438 47.421875 " transform="matrix(0.1,0,0,-0.1,0,115)"/>
<path style="fill:none;stroke-width:10;stroke-linecap:butt;stroke-linejoin:miter;stroke:rgb(92.939758%,10.978699%,14.118958%);stroke-opacity:1;stroke-miterlimit:10;" d="M 982.578125 146.015625 L 901.601562 232.382812 L 823.710938 318.789062 L 786.796875 361.992188 L 752.148438 405.195312 L 720.9375 448.398438 L 695.117188 491.601562 L 685.117188 513.203125 L 677.539062 534.804688 L 672.8125 556.40625 L 671.210938 578.007812 L 672.8125 599.609375 L 677.539062 621.210938 L 685.117188 642.8125 L 695.117188 664.414062 L 720.9375 707.617188 L 752.148438 750.820312 L 786.796875 793.984375 L 823.710938 837.1875 L 901.601562 923.59375 L 982.578125 1010 " transform="matrix(0.1,0,0,-0.1,0,115)"/>
<path style="fill:none;stroke-width:10;stroke-linecap:butt;stroke-linejoin:miter;stroke:rgb(92.939758%,10.978699%,14.118958%);stroke-opacity:1;stroke-miterlimit:10;" d="M 71.835938 146.015625 L 152.8125 232.382812 L 230.703125 318.789062 L 267.617188 361.992188 L 302.265625 405.195312 L 333.476562 448.398438 L 359.257812 491.601562 L 369.296875 513.203125 L 376.875 534.804688 L 381.601562 556.40625 L 383.203125 578.007812 L 381.601562 599.609375 L 376.875 621.210938 L 369.296875 642.8125 L 359.257812 664.414062 L 333.476562 707.617188 L 302.265625 750.820312 L 267.617188 793.984375 L 230.703125 837.1875 L 152.8125 923.59375 L 71.835938 1010 " transform="matrix(0.1,0,0,-0.1,0,115)"/>
</g>
</svg>
