<?xml version="1.0" encoding="UTF-8"?>
<svg xmlns="http://www.w3.org/2000/svg" xmlns:xlink="http://www.w3.org/1999/xlink" width="150.722046pt" height="150.995712pt" viewBox="0 0 150.722046 150.995712" version="1.1">
<defs>
<clipPath id="clip1">
  <path d="M 45 25 L 150.722656 25 L 150.722656 150.996094 L 45 150.996094 Z M 45 25 "/>
</clipPath>
<clipPath id="clip2">
  <path d="M 40 21 L 150.722656 21 L 150.722656 150.996094 L 40 150.996094 Z M 40 21 "/>
</clipPath>
<clipPath id="clip3">
  <path d="M 29 94 L 73 94 L 73 150.996094 L 29 150.996094 Z M 29 94 "/>
</clipPath>
<clipPath id="clip4">
  <path d="M 40 145 L 46 145 L 46 150.996094 L 40 150.996094 Z M 40 145 "/>
</clipPath>
<clipPath id="clip5">
  <path d="M 37 142 L 50 142 L 50 150.996094 L 37 150.996094 Z M 37 142 "/>
</clipPath>
</defs>
<g id="surface1">
<path style="fill:none;stroke-width:1.6;stroke-linecap:butt;stroke-linejoin:miter;stroke:rgb(100%,0%,0%);stroke-opacity:1;stroke-miterlimit:4;" d="M 91.226562 42.847656 L 124.332031 1.957031 "/>
<path style="fill-rule:evenodd;fill:rgb(100%,0%,0%);fill-opacity:1;stroke-width:0.466321;stroke-linecap:butt;stroke-linejoin:round;stroke:rgb(100%,0%,0%);stroke-opacity:1;stroke-miterlimit:4;" d="M -53.118786 -73.047647 L -61.269295 -76.046333 L -53.118304 -79.04413 C -54.420382 -77.275074 -54.413809 -74.854614 -53.118786 -73.047647 Z M -53.118786 -73.047647 " transform="matrix(-0.809639,1,-1,-0.809639,0,0)"/>
<g clip-path="url(#clip1)" clip-rule="nonzero">
<path style=" stroke:none;fill-rule:nonzero;fill:rgb(0%,0%,0%);fill-opacity:1;" d="M 143.941406 25.621094 C 137.054688 27.347656 128.378906 29.117188 125.445312 36.554688 C 122.105469 41.605469 120.410156 48.175781 115.648438 52.105469 C 110.359375 54.328125 106.335938 48.171875 102.507812 45.625 C 95.324219 40.105469 88.398438 32.441406 79.050781 30.960938 C 73.554688 29.90625 69.578125 34.835938 68.679688 39.757812 C 63.820312 39.585938 57.1875 40.394531 56.542969 46.445312 C 55.171875 53.082031 46.320312 56.40625 48.328125 64.097656 C 48.664062 68.324219 44.195312 71.34375 45.300781 75.851562 C 45.832031 83.113281 49.367188 90.011719 55.414062 94.171875 C 62.503906 99.625 63.65625 109.40625 70.550781 115.050781 C 74.15625 118.882812 80.066406 123.699219 77.148438 129.65625 C 73.886719 137.273438 67.8125 143.839844 63.226562 150.179688 C 68.789062 145.335938 73.667969 138.03125 77.285156 131.054688 C 79.828125 126.367188 78.023438 120.628906 73.910156 117.496094 C 68.074219 112.4375 63.855469 105.988281 61 98.84375 C 57.519531 94.664062 64.4375 96.746094 66.160156 93.988281 C 68.625 92.199219 67.777344 87.289062 71.6875 87.664062 C 75.480469 88.1875 80.601562 86.515625 79.941406 81.78125 C 78.539062 76.921875 80.683594 75.800781 85.15625 77.007812 C 90.066406 77.433594 91.433594 70.328125 89.867188 66.734375 C 89.714844 63.628906 94.648438 63.074219 93.46875 59.375 C 93.957031 53.453125 89.363281 48.988281 87.78125 43.609375 C 86.535156 44.003906 89.136719 47.703125 89.429688 49.054688 C 91.394531 53.003906 94.839844 58.796875 91.539062 62.957031 C 87.011719 65.910156 82.445312 60.625 79.320312 57.917969 C 75.234375 53.738281 69.78125 49.359375 69.695312 43.050781 C 68.503906 39.71875 70.550781 35.476562 73.078125 33.179688 C 77.066406 30.097656 82.210938 31.882812 85.832031 34.617188 C 93.058594 38.484375 99.332031 43.570312 105.371094 49.046875 C 108.523438 52.542969 115.28125 55.742188 118.429688 50.351562 C 123.324219 44 124.976562 34.789062 132.097656 30.351562 C 136.507812 28.714844 141.21875 25.660156 146.054688 26.582031 C 150.289062 27.5 150.480469 33.292969 146.828125 35.15625 C 142.664062 38.320312 139.894531 42.683594 138.304688 47.605469 C 133.871094 56.253906 135.472656 66.636719 131 75.324219 C 126.945312 87.082031 125.101562 99.589844 127.898438 111.851562 C 128.648438 115.980469 127.828125 120.644531 128.222656 124.410156 C 129.476562 120.3125 128.839844 114.191406 128.214844 109.378906 C 125.90625 97.75 128.023438 85.644531 132.015625 74.640625 C 136.621094 65.355469 134.785156 54.304688 140.128906 45.246094 C 141.375 40.148438 145.679688 36.9375 149.429688 33.8125 C 152.128906 29.820312 148.3125 25.304688 143.941406 25.621094 Z M 65.058594 40.695312 C 70.082031 41.011719 68.417969 47.765625 71.476562 50.324219 C 75.984375 56.507812 81.953125 61.355469 88.113281 65.71875 C 91.800781 69.332031 89.113281 78.171875 83.195312 76.125 C 74.523438 73.601562 66.945312 67.953125 60.546875 61.738281 C 57.582031 57.738281 54.953125 52.78125 56.910156 47.726562 C 57.351562 43.261719 60.539062 40.492188 65.058594 40.695312 Z M 55.367188 54.027344 C 57.929688 61.480469 64.121094 66.398438 70.375 70.652344 C 74.179688 72.996094 79.035156 75.453125 79.292969 80.625 C 80.296875 84.703125 76.277344 87.949219 72.398438 86.976562 C 67.65625 86.671875 64.695312 82.074219 60.789062 79.882812 C 56.992188 76.09375 51.648438 72.691406 50.320312 67.203125 C 48.542969 62.929688 48.753906 57.160156 52.617188 53.839844 C 54.238281 51.421875 54.222656 51.257812 55.367188 54.027344 Z M 48.703125 69.371094 C 52.921875 71.589844 55.003906 76.621094 59 79.324219 C 62.40625 82.382812 69.292969 85.429688 67.390625 91.125 C 65.585938 96.191406 58.992188 95.675781 55.519531 92.738281 C 48.40625 88.210938 44.589844 78.789062 46.632812 70.648438 C 46.992188 69.851562 47.789062 69.183594 48.703125 69.371094 Z M 48.703125 69.371094 "/>
</g>
<g clip-path="url(#clip2)" clip-rule="nonzero">
<path style="fill:none;stroke-width:0.8;stroke-linecap:butt;stroke-linejoin:miter;stroke:rgb(0%,0%,0%);stroke-opacity:1;stroke-miterlimit:4;" d="M 143.941406 25.621094 C 137.054688 27.347656 128.378906 29.117188 125.445312 36.554688 C 122.105469 41.605469 120.410156 48.175781 115.648438 52.105469 C 110.359375 54.328125 106.335938 48.171875 102.507812 45.625 C 95.324219 40.105469 88.398438 32.441406 79.050781 30.960938 C 73.554688 29.90625 69.578125 34.835938 68.679688 39.757812 C 63.820312 39.585938 57.1875 40.394531 56.542969 46.445312 C 55.171875 53.082031 46.320312 56.40625 48.328125 64.097656 C 48.664062 68.324219 44.195312 71.34375 45.300781 75.851562 C 45.832031 83.113281 49.367188 90.011719 55.414062 94.171875 C 62.503906 99.625 63.65625 109.40625 70.550781 115.050781 C 74.15625 118.882812 80.066406 123.699219 77.148438 129.65625 C 73.886719 137.273438 67.8125 143.839844 63.226562 150.179688 C 68.789062 145.335938 73.667969 138.03125 77.285156 131.054688 C 79.828125 126.367188 78.023438 120.628906 73.910156 117.496094 C 68.074219 112.4375 63.855469 105.988281 61 98.84375 C 57.519531 94.664062 64.4375 96.746094 66.160156 93.988281 C 68.625 92.199219 67.777344 87.289062 71.6875 87.664062 C 75.480469 88.1875 80.601562 86.515625 79.941406 81.78125 C 78.539062 76.921875 80.683594 75.800781 85.15625 77.007812 C 90.066406 77.433594 91.433594 70.328125 89.867188 66.734375 C 89.714844 63.628906 94.648438 63.074219 93.46875 59.375 C 93.957031 53.453125 89.363281 48.988281 87.78125 43.609375 C 86.535156 44.003906 89.136719 47.703125 89.429688 49.054688 C 91.394531 53.003906 94.839844 58.796875 91.539062 62.957031 C 87.011719 65.910156 82.445312 60.625 79.320312 57.917969 C 75.234375 53.738281 69.78125 49.359375 69.695312 43.050781 C 68.503906 39.71875 70.550781 35.476562 73.078125 33.179688 C 77.066406 30.097656 82.210938 31.882812 85.832031 34.617188 C 93.058594 38.484375 99.332031 43.570312 105.371094 49.046875 C 108.523438 52.542969 115.28125 55.742188 118.429688 50.351562 C 123.324219 44 124.976562 34.789062 132.097656 30.351562 C 136.507812 28.714844 141.21875 25.660156 146.054688 26.582031 C 150.289062 27.5 150.480469 33.292969 146.828125 35.15625 C 142.664062 38.320312 139.894531 42.683594 138.304688 47.605469 C 133.871094 56.253906 135.472656 66.636719 131 75.324219 C 126.945312 87.082031 125.101562 99.589844 127.898438 111.851562 C 128.648438 115.980469 127.828125 120.644531 128.222656 124.410156 C 129.476562 120.3125 128.839844 114.191406 128.214844 109.378906 C 125.90625 97.75 128.023438 85.644531 132.015625 74.640625 C 136.621094 65.355469 134.785156 54.304688 140.128906 45.246094 C 141.375 40.148438 145.679688 36.9375 149.429688 33.8125 C 152.128906 29.820312 148.3125 25.304688 143.941406 25.621094 Z M 65.058594 40.695312 C 70.082031 41.011719 68.417969 47.765625 71.476562 50.324219 C 75.984375 56.507812 81.953125 61.355469 88.113281 65.71875 C 91.800781 69.332031 89.113281 78.171875 83.195312 76.125 C 74.523438 73.601562 66.945312 67.953125 60.546875 61.738281 C 57.582031 57.738281 54.953125 52.78125 56.910156 47.726562 C 57.351562 43.261719 60.539062 40.492188 65.058594 40.695312 Z M 55.367188 54.027344 C 57.929688 61.480469 64.121094 66.398438 70.375 70.652344 C 74.179688 72.996094 79.035156 75.453125 79.292969 80.625 C 80.296875 84.703125 76.277344 87.949219 72.398438 86.976562 C 67.65625 86.671875 64.695312 82.074219 60.789062 79.882812 C 56.992188 76.09375 51.648438 72.691406 50.320312 67.203125 C 48.542969 62.929688 48.753906 57.160156 52.617188 53.839844 C 54.238281 51.421875 54.222656 51.257812 55.367188 54.027344 Z M 48.703125 69.371094 C 52.921875 71.589844 55.003906 76.621094 59 79.324219 C 62.40625 82.382812 69.292969 85.429688 67.390625 91.125 C 65.585938 96.191406 58.992188 95.675781 55.519531 92.738281 C 48.40625 88.210938 44.589844 78.789062 46.632812 70.648438 C 46.992188 69.851562 47.789062 69.183594 48.703125 69.371094 Z M 48.703125 69.371094 "/>
</g>
<path style="fill:none;stroke-width:3.2;stroke-linecap:butt;stroke-linejoin:miter;stroke:rgb(100%,0%,0%);stroke-opacity:1;stroke-miterlimit:4;" d="M 28.972656 120.867188 L 51.007812 93.699219 "/>
<path style="fill-rule:evenodd;fill:rgb(100%,0%,0%);fill-opacity:1;stroke-width:0.621334;stroke-linecap:butt;stroke-linejoin:miter;stroke:rgb(100%,0%,0%);stroke-opacity:1;stroke-miterlimit:4;" d="M -56.296863 76.608451 C -56.297625 77.980163 -57.410277 79.09351 -58.781989 79.092748 C -60.153701 79.091986 -61.267048 77.979334 -61.268642 76.609533 C -61.267879 75.237821 -60.152871 74.122563 -58.781159 74.123325 C -57.409447 74.124088 -56.2961 75.236739 -56.296863 76.608451 Z M -56.296863 76.608451 " transform="matrix(0.811044,-1,1,0.811044,0,0)"/>
<path style=" stroke:none;fill-rule:evenodd;fill:rgb(100%,100%,100%);fill-opacity:1;" d="M 92.953125 35.40625 L 88.152344 40.207031 L 94.542969 43.15625 L 99.34375 38.359375 Z M 92.953125 35.40625 "/>
<path style="fill:none;stroke-width:3.2;stroke-linecap:butt;stroke-linejoin:miter;stroke:rgb(100%,0%,0%);stroke-opacity:1;stroke-miterlimit:4;" d="M 90.878906 43.191406 L 122.484375 3.964844 "/>
<g clip-path="url(#clip3)" clip-rule="nonzero">
<path style="fill:none;stroke-width:1.850729;stroke-linecap:butt;stroke-linejoin:miter;stroke:rgb(100%,0%,0%);stroke-opacity:1;stroke-miterlimit:4;" d="M 98.600759 -66.889722 C 104.303093 -62.498144 105.303201 -56.664619 101.198576 -51.721464 C 97.091629 -46.780228 88.556233 -43.534286 78.992431 -43.281953 " transform="matrix(1,0.825624,0.825624,-1,0,0)"/>
</g>
<g clip-path="url(#clip4)" clip-rule="nonzero">
<path style=" stroke:none;fill-rule:evenodd;fill:rgb(100%,0%,0%);fill-opacity:1;" d="M 45.722656 148.375 C 45.769531 147.050781 44.730469 145.941406 43.40625 145.898438 C 42.082031 145.851562 40.972656 146.890625 40.925781 148.214844 C 40.882812 149.539062 41.921875 150.648438 43.246094 150.695312 C 44.570312 150.738281 45.679688 149.699219 45.722656 148.375 Z M 45.722656 148.375 "/>
</g>
<g clip-path="url(#clip5)" clip-rule="nonzero">
<path style="fill:none;stroke-width:0.599658;stroke-linecap:butt;stroke-linejoin:miter;stroke:rgb(100%,0%,0%);stroke-opacity:1;stroke-miterlimit:4;" d="M 50.674302 -146.664144 C 50.676466 -145.339853 49.601175 -144.266781 48.277015 -144.268519 C 46.952723 -144.266354 45.879652 -145.341645 45.877487 -146.665937 C 45.879225 -147.990097 46.954516 -149.063169 48.278808 -149.065333 C 49.602968 -149.063596 50.676039 -147.988304 50.674302 -146.664144 Z M 50.674302 -146.664144 " transform="matrix(1,0.0337618,0.0337618,-1,0,0)"/>
</g>
<path style="fill:none;stroke-width:1.850729;stroke-linecap:butt;stroke-linejoin:miter;stroke:rgb(100%,0%,0%);stroke-opacity:1;stroke-miterlimit:4;" d="M 73.734423 -43.44731 C 62.133274 -44.498153 53.219085 -49.877453 52.0165 -56.553929 C 50.813915 -63.230406 57.62136 -69.535797 68.605945 -71.915879 " transform="matrix(1,0.825624,0.825624,-1,0,0)"/>
<path style="fill-rule:evenodd;fill:rgb(100%,0%,0%);fill-opacity:1;stroke-width:0.353473;stroke-linecap:butt;stroke-linejoin:round;stroke:rgb(100%,0%,0%);stroke-opacity:1;stroke-miterlimit:4;" d="M -80.176333 59.078684 L -86.356544 56.807262 L -80.177039 54.536271 C -81.164115 55.876459 -81.159085 57.71234 -80.176333 59.078684 Z M -80.176333 59.078684 " transform="matrix(-0.78787,-1,-1,0.78787,0,0)"/>
</g>
</svg>
