<?xml version="1.0" encoding="UTF-8"?>
<svg xmlns="http://www.w3.org/2000/svg" xmlns:xlink="http://www.w3.org/1999/xlink" width="87pt" height="93pt" viewBox="0 0 87 93" version="1.1">
<g id="surface1">
<path style="fill:none;stroke-width:10;stroke-linecap:butt;stroke-linejoin:miter;stroke:rgb(92.939758%,10.978699%,14.118958%);stroke-opacity:1;stroke-miterlimit:10;" d="M 382.070312 444.804688 L 380.3125 450.820312 L 375.664062 455 L 369.492188 456.132812 L 363.554688 453.789062 L 359.726562 448.59375 L 359.21875 442.03125 L 362.304688 436.132812 L 368.203125 432.65625 L 375.15625 432.851562 L 381.132812 436.796875 L 384.21875 443.515625 L 383.242188 451.054688 L 378.203125 457.148438 L 370.46875 459.726562 L 362.265625 457.734375 L 356.09375 451.445312 L 354.140625 442.5 L 357.382812 433.515625 L 365.234375 427.34375 L 375.625 426.25 L 385.429688 431.054688 L 391.445312 440.820312 L 391.367188 452.8125 L 384.570312 463.398438 L 372.617188 469.0625 L 358.828125 467.382812 L 352.539062 463.671875 L 347.460938 458.203125 L 343.984375 451.328125 L 342.5 443.59375 L 343.242188 435.546875 L 346.25 427.851562 L 351.40625 421.054688 L 358.4375 415.898438 L 366.835938 412.773438 L 376.054688 412.070312 L 385.3125 413.984375 L 393.867188 418.554688 L 401.054688 425.46875 L 406.171875 434.375 L 408.671875 444.570312 L 408.242188 455.390625 L 404.726562 465.9375 L 398.28125 475.3125 L 389.21875 482.773438 L 378.164062 487.539062 L 365.859375 489.0625 L 353.320312 487.109375 L 341.445312 481.5625 L 331.328125 472.734375 L 323.867188 461.132812 L 319.804688 447.539062 L 319.648438 432.96875 L 323.671875 418.515625 L 331.757812 405.390625 L 343.476562 394.726562 L 358.125 387.578125 L 374.609375 384.6875 L 391.71875 386.484375 L 408.085938 393.164062 L 422.34375 404.453125 L 433.242188 419.648438 L 439.648438 437.773438 L 440.820312 457.539062 L 436.328125 477.34375 L 426.210938 495.625 L 411.054688 510.859375 L 391.71875 521.523438 L 369.570312 526.5625 L 346.25 525.195312 L 323.59375 517.226562 L 303.476562 502.851562 L 287.734375 482.96875 L 277.851562 458.789062 L 274.960938 432.070312 L 279.765625 404.882812 L 285.078125 391.796875 L 292.265625 379.375 L 301.210938 367.96875 L 311.875 357.773438 L 323.984375 349.023438 L 337.421875 341.992188 L 351.914062 336.796875 L 367.1875 333.671875 L 382.929688 332.734375 L 398.945312 333.984375 L 414.804688 337.539062 L 430.234375 343.359375 L 444.882812 351.40625 L 458.476562 361.523438 L 470.664062 373.632812 L 481.171875 387.539062 L 489.765625 403.007812 L 496.210938 419.765625 L 500.273438 437.460938 L 501.835938 455.859375 L 500.820312 474.53125 L 497.109375 493.125 L 490.78125 511.289062 L 481.796875 528.59375 L 470.351562 544.726562 L 456.5625 559.296875 L 440.664062 571.953125 L 422.851562 582.382812 L 403.515625 590.351562 L 382.96875 595.585938 L 361.5625 597.96875 L 339.765625 597.265625 L 317.96875 593.476562 L 296.601562 586.601562 L 276.171875 576.640625 L 257.03125 563.710938 L 239.648438 548.046875 L 224.453125 529.804688 L 211.757812 509.375 L 201.914062 487.03125 L 195.234375 463.203125 L 191.875 438.320312 L 192.070312 412.851562 L 195.859375 387.304688 L 203.320312 362.226562 L 214.375 338.085938 L 228.90625 315.390625 L 246.679688 294.6875 L 267.539062 276.445312 L 291.015625 261.054688 L 316.835938 248.945312 L 344.453125 240.46875 L 373.359375 235.898438 L 403.085938 235.390625 L 432.96875 239.101562 L 462.460938 247.109375 L 490.9375 259.296875 L 517.8125 275.625 L 542.460938 295.820312 L 564.375 319.609375 L 582.96875 346.601562 L 597.773438 376.367188 L 608.4375 408.359375 L 614.609375 441.953125 L 616.015625 476.601562 L 612.539062 511.601562 L 604.023438 546.25 L 590.585938 579.804688 L 572.304688 611.601562 L 549.414062 640.9375 L 522.265625 667.148438 L 491.289062 689.609375 L 456.992188 707.734375 L 419.960938 721.09375 L 380.898438 729.21875 L 340.507812 731.835938 L 299.609375 728.710938 L 258.945312 719.765625 L 219.414062 705 L 181.796875 684.570312 L 146.914062 658.671875 L 115.585938 627.734375 L 88.515625 592.226562 L 66.40625 552.734375 L 49.804688 509.882812 L 39.21875 464.53125 L 35.039062 417.5 L 37.539062 369.648438 L 46.835938 321.953125 L 62.96875 275.390625 L 85.742188 230.9375 L 114.960938 189.53125 L 150.195312 152.109375 L 190.898438 119.53125 L 236.367188 92.617188 L 285.898438 72.070312 L 338.515625 58.4375 L 393.28125 52.265625 L 449.179688 53.828125 L 477.226562 57.578125 L 505.078125 63.359375 L 532.695312 71.09375 L 559.882812 80.859375 L 586.484375 92.578125 L 612.382812 106.210938 L 637.460938 121.757812 L 661.523438 139.140625 L 684.453125 158.320312 L 706.171875 179.21875 L 726.484375 201.71875 L 745.3125 225.78125 L 762.5 251.289062 L 778.007812 278.125 L 791.640625 306.171875 L 803.398438 335.3125 L 813.085938 365.390625 L 820.742188 396.328125 L 826.210938 427.929688 L 829.492188 460.078125 L 830.507812 492.617188 L 829.21875 525.351562 L 825.625 558.164062 L 819.6875 590.859375 L 811.40625 623.28125 L 800.78125 655.273438 L 787.851562 686.640625 L 772.65625 717.265625 L 755.195312 746.914062 L 735.585938 775.507812 L 713.828125 802.8125 L 690.078125 828.710938 L 664.375 853.085938 L 636.835938 875.703125 " transform="matrix(0.1,0,0,-0.1,0,93)"/>
<path style=" stroke:none;fill-rule:nonzero;fill:rgb(92.939758%,10.978699%,14.118958%);fill-opacity:1;" d="M 40.679688 19.960938 L 34.679688 17.960938 L 36.179688 19.960938 L 34.679688 21.960938 "/>
<path style="fill-rule:nonzero;fill:rgb(18.03894%,19.219971%,57.249451%);fill-opacity:1;stroke-width:5;stroke-linecap:butt;stroke-linejoin:miter;stroke:rgb(92.939758%,10.978699%,14.118958%);stroke-opacity:1;stroke-miterlimit:10;" d="M 397.8125 444.804688 C 397.8125 459.726562 385.703125 471.796875 370.820312 471.796875 C 355.898438 471.796875 343.789062 459.726562 343.789062 444.804688 C 343.789062 429.882812 355.898438 417.8125 370.820312 417.8125 C 385.703125 417.8125 397.8125 429.882812 397.8125 444.804688 " transform="matrix(0.1,0,0,-0.1,0,93)"/>
</g>
</svg>
