<?xml version="1.0" encoding="UTF-8"?>
<svg xmlns="http://www.w3.org/2000/svg" xmlns:xlink="http://www.w3.org/1999/xlink" width="143pt" height="120pt" viewBox="0 0 143 120" version="1.1">
<g id="surface1">
<path style="fill-rule:nonzero;fill:rgb(80.076599%,80.076599%,80.076599%);fill-opacity:1;stroke-width:5;stroke-linecap:butt;stroke-linejoin:miter;stroke:rgb(0%,0%,0%);stroke-opacity:1;stroke-miterlimit:10;" d="M 732.1875 1024.0625 L 763.828125 1022.03125 L 795.703125 1017.578125 L 827.578125 1010.78125 L 859.21875 1001.601562 L 890.507812 990.15625 L 921.210938 976.523438 L 951.171875 960.742188 L 980.15625 942.929688 L 1007.96875 923.164062 L 1034.53125 901.640625 L 1059.609375 878.4375 L 1083.046875 853.710938 L 1104.726562 827.617188 L 1124.492188 800.3125 L 1142.265625 771.953125 L 1157.890625 742.773438 L 1171.289062 712.851562 L 1182.34375 682.460938 L 1191.054688 651.71875 L 1197.34375 620.898438 L 1201.132812 590.117188 L 1202.421875 559.570312 L 1201.210938 529.492188 L 1197.539062 500.039062 L 1191.367188 471.40625 L 1182.773438 443.710938 L 1171.757812 417.226562 L 1158.476562 392.03125 L 1142.929688 368.320312 L 1125.234375 346.25 L 1105.546875 325.898438 L 1083.945312 307.460938 L 1060.585938 291.015625 L 1035.546875 276.679688 L 1009.0625 264.492188 L 981.289062 254.609375 L 952.34375 247.03125 L 922.421875 241.796875 L 891.757812 238.984375 L 860.507812 238.59375 L 828.828125 240.625 L 796.992188 245.078125 L 765.117188 251.875 L 733.4375 261.054688 L 702.1875 272.5 L 671.484375 286.132812 L 641.523438 301.953125 L 612.539062 319.726562 L 584.6875 339.492188 L 558.164062 361.015625 L 533.085938 384.21875 L 509.648438 408.945312 L 487.96875 435.039062 L 468.203125 462.34375 L 450.429688 490.703125 L 434.804688 519.921875 L 421.40625 549.804688 L 410.3125 580.195312 L 401.640625 610.9375 L 395.351562 641.757812 L 391.5625 672.539062 L 390.273438 703.085938 L 391.445312 733.164062 L 395.15625 762.617188 L 401.328125 791.289062 L 409.921875 818.945312 L 420.9375 845.429688 L 434.21875 870.625 L 449.765625 894.335938 L 467.421875 916.40625 L 487.148438 936.757812 L 508.75 955.195312 L 532.109375 971.640625 L 557.148438 985.976562 L 583.632812 998.164062 L 611.40625 1008.046875 L 640.351562 1015.625 L 670.234375 1020.859375 L 700.9375 1023.671875 L 732.1875 1024.0625 " transform="matrix(0.1,0,0,-0.1,0,120)"/>
<path style="fill:none;stroke-width:10;stroke-linecap:butt;stroke-linejoin:miter;stroke:rgb(18.03894%,19.219971%,57.249451%);stroke-opacity:1;stroke-miterlimit:10;" d="M 603.867188 1153.398438 L 546.132812 1064.570312 L 488.398438 982.773438 L 430.625 908.046875 L 372.890625 840.3125 L 315.15625 779.648438 L 257.421875 726.015625 L 199.6875 679.414062 L 141.914062 639.84375 L 84.179688 607.34375 L 26.445312 581.875 " transform="matrix(0.1,0,0,-0.1,0,120)"/>
<path style="fill:none;stroke-width:10;stroke-linecap:butt;stroke-linejoin:miter;stroke:rgb(18.03894%,19.219971%,57.249451%);stroke-opacity:1;stroke-miterlimit:10;" d="M 764.257812 1127.5 L 706.523438 1038.671875 L 648.789062 956.875 L 591.054688 882.148438 L 533.28125 814.414062 L 475.546875 753.75 L 417.8125 700.117188 L 360.078125 653.515625 L 302.304688 613.945312 L 244.570312 581.445312 L 186.835938 555.976562 " transform="matrix(0.1,0,0,-0.1,0,120)"/>
<path style="fill:none;stroke-width:10;stroke-linecap:butt;stroke-linejoin:miter;stroke:rgb(18.03894%,19.219971%,57.249451%);stroke-opacity:1;stroke-miterlimit:10;" d="M 924.648438 1058.164062 L 866.914062 969.335938 L 809.179688 887.539062 L 751.445312 812.773438 L 693.671875 745.078125 L 635.9375 684.375 L 578.203125 630.742188 L 520.46875 584.140625 L 462.734375 544.609375 L 404.960938 512.070312 L 347.226562 486.601562 " transform="matrix(0.1,0,0,-0.1,0,120)"/>
<path style="fill:none;stroke-width:10;stroke-linecap:butt;stroke-linejoin:miter;stroke:rgb(18.03894%,19.219971%,57.249451%);stroke-opacity:1;stroke-miterlimit:10;" d="M 1052.96875 971.367188 L 995.234375 882.539062 L 937.5 800.78125 L 879.765625 726.015625 L 821.992188 658.28125 L 764.257812 597.617188 L 706.523438 543.984375 L 648.789062 497.382812 L 591.054688 457.851562 L 533.28125 425.3125 L 475.546875 399.84375 " transform="matrix(0.1,0,0,-0.1,0,120)"/>
<path style="fill:none;stroke-width:10;stroke-linecap:butt;stroke-linejoin:miter;stroke:rgb(18.03894%,19.219971%,57.249451%);stroke-opacity:1;stroke-miterlimit:10;" d="M 1181.289062 856.796875 L 1123.554688 767.96875 L 1065.820312 686.171875 L 1008.085938 611.445312 L 950.3125 543.710938 L 892.578125 483.046875 L 834.84375 429.414062 L 777.109375 382.8125 L 719.335938 343.242188 L 661.601562 310.742188 L 603.867188 285.273438 " transform="matrix(0.1,0,0,-0.1,0,120)"/>
<path style="fill:none;stroke-width:10;stroke-linecap:butt;stroke-linejoin:miter;stroke:rgb(18.03894%,19.219971%,57.249451%);stroke-opacity:1;stroke-miterlimit:10;" d="M 1293.554688 733.75 L 1235.820312 644.921875 L 1178.085938 563.125 L 1120.351562 488.359375 L 1062.617188 420.664062 L 1004.84375 359.960938 L 947.109375 306.367188 L 889.375 259.765625 L 831.640625 220.195312 L 773.90625 187.695312 L 716.132812 162.1875 " transform="matrix(0.1,0,0,-0.1,0,120)"/>
<path style="fill:none;stroke-width:10;stroke-linecap:butt;stroke-linejoin:miter;stroke:rgb(18.03894%,19.219971%,57.249451%);stroke-opacity:1;stroke-miterlimit:10;" d="M 1405.859375 589.375 L 1348.125 500.546875 L 1290.351562 418.75 L 1232.617188 344.023438 L 1174.882812 276.289062 L 1117.148438 215.625 L 1059.375 161.992188 L 1001.640625 115.390625 L 943.90625 75.820312 L 886.171875 43.320312 L 828.4375 17.851562 " transform="matrix(0.1,0,0,-0.1,0,120)"/>
<path style="fill:none;stroke-width:10;stroke-linecap:butt;stroke-linejoin:miter;stroke:rgb(92.939758%,10.978699%,14.118958%);stroke-opacity:1;stroke-miterlimit:10;" d="M 603.867188 1153.398438 L 643.984375 1151.015625 L 684.0625 1145.898438 L 724.179688 1138.046875 L 764.257812 1127.5 L 804.375 1114.257812 L 844.453125 1098.242188 L 884.570312 1079.570312 L 924.648438 1058.164062 L 964.765625 1034.023438 L 1004.84375 1007.1875 L 1044.960938 977.617188 L 1085.078125 945.351562 L 1125.15625 910.351562 L 1165.234375 872.65625 L 1205.351562 832.226562 L 1245.46875 789.101562 L 1285.546875 743.242188 L 1325.664062 694.6875 L 1365.742188 643.398438 L 1405.859375 589.375 " transform="matrix(0.1,0,0,-0.1,0,120)"/>
<path style="fill:none;stroke-width:10;stroke-linecap:butt;stroke-linejoin:miter;stroke:rgb(92.939758%,10.978699%,14.118958%);stroke-opacity:1;stroke-miterlimit:10;" d="M 507.617188 1009.257812 L 547.734375 1006.875 L 587.8125 1001.757812 L 627.929688 993.90625 L 668.007812 983.359375 L 708.125 970.117188 L 748.242188 954.101562 L 788.320312 935.429688 L 828.4375 914.023438 L 868.515625 889.882812 L 908.632812 863.046875 L 948.710938 833.476562 L 988.828125 801.210938 L 1028.90625 766.210938 L 1069.023438 728.515625 L 1109.101562 688.085938 L 1149.21875 644.960938 L 1189.296875 599.101562 L 1229.414062 550.507812 L 1269.492188 499.257812 L 1309.609375 445.234375 " transform="matrix(0.1,0,0,-0.1,0,120)"/>
<path style="fill:none;stroke-width:10;stroke-linecap:butt;stroke-linejoin:miter;stroke:rgb(92.939758%,10.978699%,14.118958%);stroke-opacity:1;stroke-miterlimit:10;" d="M 411.40625 884.6875 L 451.484375 882.265625 L 491.601562 877.148438 L 531.679688 869.335938 L 571.796875 858.789062 L 611.875 845.507812 L 651.992188 829.53125 L 692.070312 810.820312 L 732.1875 789.414062 L 772.265625 765.3125 L 812.382812 738.4375 L 852.5 708.90625 L 892.578125 676.601562 L 932.695312 641.640625 L 972.773438 603.90625 L 1012.890625 563.515625 L 1052.96875 520.351562 L 1093.085938 474.53125 L 1133.164062 425.9375 L 1173.28125 374.648438 L 1213.398438 320.664062 " transform="matrix(0.1,0,0,-0.1,0,120)"/>
<path style="fill:none;stroke-width:10;stroke-linecap:butt;stroke-linejoin:miter;stroke:rgb(92.939758%,10.978699%,14.118958%);stroke-opacity:1;stroke-miterlimit:10;" d="M 283.085938 748.984375 L 323.164062 746.5625 L 363.28125 741.445312 L 403.359375 733.632812 L 443.476562 723.085938 L 483.554688 709.804688 L 523.671875 693.828125 L 563.789062 675.15625 L 603.867188 653.710938 L 643.984375 629.609375 L 684.0625 602.773438 L 724.179688 573.203125 L 764.257812 540.9375 L 804.375 505.9375 L 844.453125 468.242188 L 884.570312 427.8125 L 924.648438 384.648438 L 964.765625 338.828125 L 1004.84375 290.234375 L 1044.960938 238.945312 L 1085.078125 184.960938 " transform="matrix(0.1,0,0,-0.1,0,120)"/>
<path style="fill:none;stroke-width:10;stroke-linecap:butt;stroke-linejoin:miter;stroke:rgb(92.939758%,10.978699%,14.118958%);stroke-opacity:1;stroke-miterlimit:10;" d="M 154.765625 648.046875 L 194.84375 645.625 L 234.960938 640.507812 L 275.078125 632.695312 L 315.15625 622.148438 L 355.273438 608.867188 L 395.351562 592.890625 L 435.46875 574.179688 L 475.546875 552.773438 L 515.664062 528.671875 L 555.742188 501.796875 L 595.859375 472.265625 L 635.9375 439.960938 L 676.054688 405 L 716.132812 367.265625 L 756.25 326.875 L 796.328125 283.710938 L 836.445312 237.851562 L 876.5625 189.296875 L 916.640625 138.007812 L 956.757812 84.023438 " transform="matrix(0.1,0,0,-0.1,0,120)"/>
<path style="fill:none;stroke-width:10;stroke-linecap:butt;stroke-linejoin:miter;stroke:rgb(92.939758%,10.978699%,14.118958%);stroke-opacity:1;stroke-miterlimit:10;" d="M 26.445312 581.875 L 66.5625 579.453125 L 106.640625 574.335938 L 146.757812 566.523438 L 186.835938 555.976562 L 226.953125 542.695312 L 267.03125 526.71875 L 307.148438 508.007812 L 347.226562 486.601562 L 387.34375 462.460938 L 427.421875 435.625 L 467.539062 406.054688 L 507.617188 373.789062 L 547.734375 338.828125 L 587.8125 301.09375 L 627.929688 260.703125 L 668.007812 217.539062 L 708.125 171.679688 L 748.242188 123.125 L 788.320312 71.835938 L 828.4375 17.851562 " transform="matrix(0.1,0,0,-0.1,0,120)"/>
</g>
</svg>
