<?xml version="1.0" encoding="UTF-8"?>
<svg xmlns="http://www.w3.org/2000/svg" xmlns:xlink="http://www.w3.org/1999/xlink" width="57pt" height="65pt" viewBox="0 0 57 65" version="1.1">
<g id="surface1">
<path style="fill-rule:nonzero;fill:rgb(80.076599%,80.076599%,80.076599%);fill-opacity:1;stroke-width:10;stroke-linecap:butt;stroke-linejoin:miter;stroke:rgb(0%,0%,0%);stroke-opacity:1;stroke-miterlimit:10;" d="M 540.390625 528.90625 C 540.390625 559.648438 428.476562 584.609375 290.390625 584.609375 C 152.34375 584.609375 40.390625 559.648438 40.390625 528.90625 C 40.390625 498.125 152.34375 473.203125 290.390625 473.203125 C 428.476562 473.203125 540.390625 498.125 540.390625 528.90625 " transform="matrix(0.1,0,0,-0.1,0,65)"/>
<path style="fill:none;stroke-width:10;stroke-linecap:butt;stroke-linejoin:miter;stroke:rgb(0%,0%,0%);stroke-opacity:1;stroke-miterlimit:10;" d="M 40.390625 111.09375 L 540.390625 528.90625 " transform="matrix(0.1,0,0,-0.1,0,65)"/>
<path style="fill:none;stroke-width:10;stroke-linecap:butt;stroke-linejoin:miter;stroke:rgb(0%,0%,0%);stroke-opacity:1;stroke-miterlimit:10;" d="M 540.390625 111.09375 L 40.390625 528.90625 " transform="matrix(0.1,0,0,-0.1,0,65)"/>
<path style="fill:none;stroke-width:10;stroke-linecap:butt;stroke-linejoin:miter;stroke:rgb(0%,0%,0%);stroke-opacity:1;stroke-miterlimit:10;" d="M 40.390625 111.09375 C 40.390625 80.351562 152.34375 55.390625 290.390625 55.390625 C 428.476562 55.390625 540.390625 80.351562 540.390625 111.09375 " transform="matrix(0.1,0,0,-0.1,0,65)"/>
<path style="fill:none;stroke-width:10;stroke-linecap:butt;stroke-linejoin:miter;stroke:rgb(0%,0%,0%);stroke-opacity:1;stroke-dasharray:30,30;stroke-dashoffset:15;stroke-miterlimit:10;" d="M 540.390625 111.09375 C 540.390625 141.875 428.476562 166.796875 290.390625 166.796875 C 152.34375 166.796875 40.390625 141.875 40.390625 111.09375 " transform="matrix(0.1,0,0,-0.1,0,65)"/>
</g>
</svg>
