<?xml version="1.0" encoding="UTF-8"?>
<svg xmlns="http://www.w3.org/2000/svg" xmlns:xlink="http://www.w3.org/1999/xlink" width="68pt" height="65pt" viewBox="0 0 68 65" version="1.1">
<g id="surface1">
<path style="fill:none;stroke-width:10;stroke-linecap:butt;stroke-linejoin:miter;stroke:rgb(0%,0%,0%);stroke-opacity:1;stroke-miterlimit:10;" d="M 18.125 469.960938 L 34.257812 423.867188 L 50.390625 380.195312 L 66.523438 339.023438 L 82.65625 300.273438 L 98.789062 264.023438 L 114.921875 230.195312 L 131.054688 198.828125 L 147.1875 169.921875 L 163.320312 143.476562 L 179.453125 119.492188 L 195.585938 97.96875 L 211.71875 78.90625 L 227.851562 62.304688 L 243.984375 48.125 L 260.117188 36.445312 L 276.25 27.1875 L 292.382812 20.390625 L 308.515625 16.09375 L 324.6875 14.21875 L 340.820312 14.804688 L 356.953125 17.851562 L 373.046875 23.359375 L 389.179688 31.328125 L 405.351562 41.71875 L 421.484375 54.609375 L 437.617188 69.960938 L 453.75 87.734375 L 469.882812 107.96875 L 486.015625 130.703125 L 502.148438 155.859375 L 518.28125 183.476562 L 534.414062 213.554688 L 550.546875 246.09375 L 566.679688 281.09375 L 582.8125 318.554688 L 598.945312 358.476562 L 615.078125 400.820312 L 631.210938 445.664062 L 647.34375 492.929688 L 663.476562 542.695312 " transform="matrix(0.1,0,0,-0.1,0,65)"/>
<path style="fill-rule:nonzero;fill:rgb(80.076599%,80.076599%,80.076599%);fill-opacity:1;stroke-width:10;stroke-linecap:butt;stroke-linejoin:miter;stroke:rgb(0%,0%,0%);stroke-opacity:1;stroke-miterlimit:10;" d="M 242.070312 388.671875 L 291.328125 390.117188 L 341.835938 394.414062 L 392.304688 401.484375 L 441.484375 411.132812 L 488.203125 423.125 L 531.289062 437.148438 L 569.6875 452.890625 L 602.460938 469.960938 L 628.789062 487.929688 L 648.007812 506.328125 L 659.648438 524.726562 L 663.476562 542.695312 L 662.382812 551.367188 L 659.335938 559.726562 L 647.34375 575.46875 L 627.851562 589.53125 L 601.25 601.523438 L 568.242188 611.171875 L 529.648438 618.242188 L 486.367188 622.539062 L 439.53125 623.984375 L 390.273438 622.539062 L 339.765625 618.242188 L 289.296875 611.171875 L 240.117188 601.523438 L 193.398438 589.53125 L 150.3125 575.46875 L 111.914062 559.726562 L 79.140625 542.695312 L 52.8125 524.726562 L 33.59375 506.328125 L 21.953125 487.929688 L 18.125 469.960938 L 19.179688 461.289062 L 22.265625 452.890625 L 34.257812 437.148438 L 53.75 423.125 L 80.351562 411.132812 L 113.359375 401.484375 L 151.953125 394.414062 L 195.234375 390.117188 L 242.070312 388.671875 " transform="matrix(0.1,0,0,-0.1,0,65)"/>
<path style="fill:none;stroke-width:10;stroke-linecap:butt;stroke-linejoin:miter;stroke:rgb(0%,0%,0%);stroke-opacity:1;stroke-miterlimit:10;" d="M 125.78125 255.664062 L 117.617188 242.773438 L 114.921875 230.195312 L 117.8125 218.242188 L 126.210938 207.226562 L 139.882812 197.382812 L 158.476562 189.023438 L 181.601562 182.265625 L 208.632812 177.304688 L 238.90625 174.296875 L 271.679688 173.28125 L 306.171875 174.296875 L 341.523438 177.304688 L 376.835938 182.265625 L 411.289062 189.023438 L 443.984375 197.382812 L 474.140625 207.226562 L 501.015625 218.242188 L 523.945312 230.195312 L 542.382812 242.773438 L 555.859375 255.664062 " transform="matrix(0.1,0,0,-0.1,0,65)"/>
<path style="fill:none;stroke-width:10;stroke-linecap:butt;stroke-linejoin:miter;stroke:rgb(0%,0%,0%);stroke-opacity:1;stroke-dasharray:30,30;stroke-dashoffset:15;stroke-miterlimit:10;" d="M 555.859375 255.664062 L 564.023438 268.515625 L 566.679688 281.09375 L 563.789062 293.046875 L 555.390625 304.0625 L 541.71875 313.90625 L 523.125 322.265625 L 500 329.023438 L 472.96875 333.984375 L 442.695312 336.992188 L 409.921875 338.007812 L 375.429688 336.992188 L 340.078125 333.984375 L 304.765625 329.023438 L 270.3125 322.265625 L 237.617188 313.90625 L 207.460938 304.0625 L 180.585938 293.046875 L 157.65625 281.09375 L 139.21875 268.515625 L 125.78125 255.664062 " transform="matrix(0.1,0,0,-0.1,0,65)"/>
</g>
</svg>
