<?xml version="1.0" encoding="UTF-8"?>
<svg xmlns="http://www.w3.org/2000/svg" xmlns:xlink="http://www.w3.org/1999/xlink" width="62pt" height="65pt" viewBox="0 0 62 65" version="1.1">
<g id="surface1">
<path style="fill:none;stroke-width:10;stroke-linecap:butt;stroke-linejoin:miter;stroke:rgb(0%,0%,0%);stroke-opacity:1;stroke-miterlimit:10;" d="M 615.195312 322.382812 L 611.601562 352.304688 L 600.898438 381.484375 L 583.359375 409.21875 L 559.453125 434.804688 L 529.6875 457.617188 L 494.84375 477.109375 L 455.78125 492.8125 L 413.4375 504.296875 L 368.867188 511.289062 L 323.203125 513.632812 L 277.539062 511.289062 L 232.96875 504.296875 L 190.625 492.8125 L 151.5625 477.109375 L 116.71875 457.617188 L 86.953125 434.804688 L 63.007812 409.21875 L 45.507812 381.484375 L 34.804688 352.304688 L 31.210938 322.382812 L 34.804688 292.460938 L 45.507812 263.320312 L 63.007812 235.585938 L 86.953125 210 L 116.71875 187.148438 L 151.5625 167.695312 L 190.625 151.992188 L 232.96875 140.507812 L 277.539062 133.515625 L 323.203125 131.132812 L 368.867188 133.515625 L 413.4375 140.507812 L 455.78125 151.992188 L 494.84375 167.695312 L 529.6875 187.148438 L 559.453125 210 L 583.359375 235.585938 L 600.898438 263.320312 L 611.601562 292.460938 L 615.195312 322.382812 " transform="matrix(0.1,0,0,-0.1,0,65)"/>
<path style="fill:none;stroke-width:10;stroke-linecap:butt;stroke-linejoin:miter;stroke:rgb(0%,0%,0%);stroke-opacity:1;stroke-miterlimit:10;" d="M 323.203125 143.90625 L 312.617188 139.609375 L 302.304688 139.84375 L 292.539062 144.53125 L 283.476562 153.632812 L 275.429688 166.875 L 268.554688 183.945312 L 263.007812 204.453125 L 258.945312 227.8125 L 256.484375 253.554688 L 255.664062 280.976562 L 258.945312 338.164062 L 268.554688 393.789062 L 275.429688 419.296875 L 283.476562 442.460938 L 292.539062 462.617188 L 302.304688 479.375 L 312.617188 492.226562 L 323.203125 500.898438 " transform="matrix(0.1,0,0,-0.1,0,65)"/>
<path style="fill:none;stroke-width:10;stroke-linecap:butt;stroke-linejoin:miter;stroke:rgb(0%,0%,0%);stroke-opacity:1;stroke-miterlimit:10;" d="M 47.1875 322.382812 L 40.429688 316.171875 L 40.625 310.078125 L 47.8125 304.296875 L 61.71875 298.984375 L 82.109375 294.21875 L 108.4375 290.15625 L 140.039062 286.914062 L 176.132812 284.492188 L 215.859375 283.046875 L 258.242188 282.539062 L 346.71875 284.492188 L 432.890625 290.15625 L 472.421875 294.21875 L 508.320312 298.984375 L 539.648438 304.296875 L 565.625 310.078125 L 585.625 316.171875 L 599.179688 322.382812 " transform="matrix(0.1,0,0,-0.1,0,65)"/>
<path style="fill:none;stroke-width:10;stroke-linecap:butt;stroke-linejoin:miter;stroke:rgb(0%,0%,0%);stroke-opacity:1;stroke-dasharray:30,30;stroke-dashoffset:15;stroke-miterlimit:10;" d="M 599.179688 322.382812 L 605.976562 328.632812 L 605.78125 334.726562 L 598.59375 340.46875 L 584.6875 345.820312 L 564.296875 350.585938 L 537.96875 354.648438 L 506.367188 357.890625 L 470.273438 360.3125 L 430.507812 361.757812 L 388.164062 362.226562 L 299.6875 360.3125 L 213.515625 354.648438 L 173.984375 350.585938 L 138.085938 345.820312 L 106.757812 340.46875 L 80.78125 334.726562 L 60.742188 328.632812 L 47.1875 322.382812 " transform="matrix(0.1,0,0,-0.1,0,65)"/>
<path style="fill:none;stroke-width:10;stroke-linecap:butt;stroke-linejoin:miter;stroke:rgb(0%,0%,0%);stroke-opacity:1;stroke-dasharray:30,30;stroke-dashoffset:15;stroke-miterlimit:10;" d="M 323.203125 500.898438 L 333.75 505.195312 L 344.0625 504.960938 L 353.867188 500.273438 L 362.890625 491.171875 L 370.976562 477.929688 L 377.851562 460.859375 L 383.398438 440.351562 L 387.460938 416.953125 L 389.921875 391.25 L 390.742188 363.828125 L 387.460938 306.640625 L 377.851562 251.015625 L 370.976562 225.46875 L 362.890625 202.34375 L 353.867188 182.1875 L 344.0625 165.429688 L 333.75 152.578125 L 323.203125 143.90625 " transform="matrix(0.1,0,0,-0.1,0,65)"/>
</g>
</svg>
