<?xml version="1.0" encoding="UTF-8"?>
<svg xmlns="http://www.w3.org/2000/svg" xmlns:xlink="http://www.w3.org/1999/xlink" width="94pt" height="65pt" viewBox="0 0 94 65" version="1.1">
<g id="surface1">
<path style="fill:none;stroke-width:10;stroke-linecap:butt;stroke-linejoin:miter;stroke:rgb(0%,0%,0%);stroke-opacity:1;stroke-miterlimit:10;" d="M 841.71875 588.125 L 844.492188 583.515625 L 847.265625 576.679688 L 850.039062 567.539062 L 852.851562 556.171875 L 855.625 542.539062 L 858.398438 526.640625 L 861.171875 508.476562 L 863.984375 488.046875 L 866.757812 465.390625 L 869.53125 440.46875 L 872.304688 413.28125 L 875.078125 383.828125 L 877.851562 352.148438 L 880.664062 318.164062 L 883.4375 281.953125 L 886.210938 243.476562 L 888.984375 202.773438 L 891.796875 159.765625 L 894.570312 114.53125 L 897.34375 66.992188 " transform="matrix(0.1,0,0,-0.1,0,65)"/>
<path style="fill:none;stroke-width:10;stroke-linecap:butt;stroke-linejoin:miter;stroke:rgb(0%,0%,0%);stroke-opacity:1;stroke-miterlimit:10;" d="M 44.257812 196.835938 L 47.03125 237.382812 L 49.804688 275.703125 L 52.617188 311.71875 L 55.390625 345.507812 L 58.164062 377.03125 L 60.9375 406.289062 L 63.710938 433.28125 L 66.523438 458.007812 L 69.296875 480.507812 L 72.070312 500.742188 L 74.84375 518.710938 L 77.617188 534.414062 L 80.429688 547.890625 L 83.203125 559.101562 L 85.976562 568.007812 L 88.75 574.726562 L 91.5625 579.140625 L 94.335938 581.289062 L 97.109375 581.210938 L 99.882812 578.867188 L 102.65625 574.257812 L 105.46875 567.382812 L 108.242188 558.28125 L 111.015625 546.875 L 113.789062 533.242188 L 116.5625 517.34375 L 119.375 499.21875 L 122.148438 478.789062 L 124.921875 456.132812 L 127.695312 431.210938 L 130.507812 404.023438 L 133.28125 374.570312 L 136.054688 342.851562 L 138.828125 308.90625 L 141.601562 272.695312 L 144.414062 234.21875 L 147.1875 193.476562 L 149.960938 150.507812 L 152.734375 105.234375 L 155.507812 57.734375 " transform="matrix(0.1,0,0,-0.1,0,65)"/>
<path style="fill:none;stroke-width:10;stroke-linecap:butt;stroke-linejoin:miter;stroke:rgb(0%,0%,0%);stroke-opacity:1;stroke-miterlimit:10;" d="M 99.882812 578.867188 L 136.992188 541.210938 L 174.0625 507.539062 L 211.171875 477.890625 L 248.242188 452.265625 L 285.351562 430.664062 L 322.421875 413.046875 L 359.53125 399.492188 L 396.601562 389.882812 L 433.710938 384.335938 L 470.820312 382.8125 L 507.890625 385.273438 L 544.960938 391.757812 L 582.070312 402.265625 L 619.179688 416.757812 L 656.25 435.3125 L 693.359375 457.8125 L 730.429688 484.375 L 767.539062 514.960938 L 804.609375 549.53125 L 841.71875 588.125 " transform="matrix(0.1,0,0,-0.1,0,65)"/>
<path style="fill:none;stroke-width:10;stroke-linecap:butt;stroke-linejoin:miter;stroke:rgb(0%,0%,0%);stroke-opacity:1;stroke-miterlimit:10;" d="M 155.507812 57.734375 L 225.078125 64.492188 L 295.3125 70.3125 L 366.484375 75 L 438.75 78.320312 L 512.265625 80.078125 L 587.109375 80.195312 L 663.203125 78.710938 L 740.390625 75.859375 L 818.515625 71.875 L 897.34375 66.992188 " transform="matrix(0.1,0,0,-0.1,0,65)"/>
<path style="fill:none;stroke-width:10;stroke-linecap:butt;stroke-linejoin:miter;stroke:rgb(0%,0%,0%);stroke-opacity:1;stroke-miterlimit:10;" d="M 44.257812 196.835938 L 54.140625 196.171875 L 64.023438 195.546875 L 73.867188 194.921875 L 83.75 194.296875 L 93.59375 193.710938 L 103.4375 193.085938 L 113.28125 192.539062 L 123.085938 191.953125 L 142.695312 190.859375 " transform="matrix(0.1,0,0,-0.1,0,65)"/>
<path style="fill:none;stroke-width:10;stroke-linecap:butt;stroke-linejoin:miter;stroke:rgb(0%,0%,0%);stroke-opacity:1;stroke-dasharray:30,30;stroke-dashoffset:15;stroke-miterlimit:10;" d="M 786.054688 206.09375 L 788.867188 246.679688 L 791.640625 284.960938 L 794.414062 320.976562 L 797.1875 354.765625 L 799.960938 386.289062 L 802.773438 415.546875 L 805.546875 442.539062 L 808.320312 467.304688 L 811.09375 489.804688 L 813.90625 510 L 816.679688 527.96875 L 819.453125 543.710938 L 822.226562 557.148438 L 825.039062 568.359375 L 827.8125 577.304688 L 830.585938 583.984375 L 833.359375 588.398438 L 836.132812 590.585938 L 838.945312 590.46875 L 841.71875 588.125 " transform="matrix(0.1,0,0,-0.1,0,65)"/>
<path style="fill:none;stroke-width:10;stroke-linecap:butt;stroke-linejoin:miter;stroke:rgb(0%,0%,0%);stroke-opacity:1;stroke-dasharray:30,30;stroke-dashoffset:15;stroke-miterlimit:10;" d="M 142.695312 190.859375 L 210.898438 187.539062 L 278.398438 185.117188 L 345.039062 183.75 L 410.742188 183.59375 L 475.429688 184.6875 L 539.140625 186.992188 L 601.914062 190.46875 L 663.90625 194.882812 L 725.273438 200.195312 L 786.054688 206.09375 " transform="matrix(0.1,0,0,-0.1,0,65)"/>
</g>
</svg>
