<?xml version="1.0" encoding="UTF-8"?>
<svg xmlns="http://www.w3.org/2000/svg" xmlns:xlink="http://www.w3.org/1999/xlink" width="55pt" height="65pt" viewBox="0 0 55 65" version="1.1">
<g id="surface1">
<path style="fill:none;stroke-width:10;stroke-linecap:butt;stroke-linejoin:miter;stroke:rgb(0%,0%,0%);stroke-opacity:1;stroke-miterlimit:10;" d="M 502.96875 234.492188 L 494.921875 232.539062 L 486.914062 230.585938 L 478.90625 228.59375 L 463.046875 224.6875 L 455.15625 222.734375 L 447.34375 220.742188 L 439.570312 218.789062 L 431.835938 216.835938 L 424.21875 214.84375 " transform="matrix(0.1,0,0,-0.1,0,65)"/>
<path style="fill:none;stroke-width:10;stroke-linecap:butt;stroke-linejoin:miter;stroke:rgb(0%,0%,0%);stroke-opacity:1;stroke-miterlimit:10;" d="M 315.078125 174.53125 L 312.265625 167.1875 L 312.929688 159.84375 L 319.765625 145.15625 L 329.882812 130.46875 L 341.445312 115.78125 L 353.710938 101.09375 L 366.40625 86.40625 L 379.375 71.71875 L 392.5 57.03125 L 405.742188 42.34375 L 419.0625 27.695312 " transform="matrix(0.1,0,0,-0.1,0,65)"/>
<path style="fill:none;stroke-width:10;stroke-linecap:butt;stroke-linejoin:miter;stroke:rgb(0%,0%,0%);stroke-opacity:1;stroke-miterlimit:10;" d="M 502.96875 504.492188 L 420.234375 483.828125 L 381.875 473.476562 L 348.515625 463.125 L 335.15625 457.96875 L 324.804688 452.8125 L 317.773438 447.617188 L 313.828125 442.460938 L 312.460938 432.109375 L 316.09375 421.757812 L 329.414062 401.09375 L 345.859375 380.390625 L 363.515625 359.726562 L 381.757812 339.0625 L 400.3125 318.359375 L 419.0625 297.695312 " transform="matrix(0.1,0,0,-0.1,0,65)"/>
<path style="fill:none;stroke-width:10;stroke-linecap:butt;stroke-linejoin:miter;stroke:rgb(0%,0%,0%);stroke-opacity:1;stroke-miterlimit:10;" d="M 226.523438 191.054688 L 220.3125 185.078125 L 209.6875 179.0625 L 194.804688 173.085938 L 176.601562 167.070312 L 156.054688 161.09375 L 133.984375 155.078125 L 110.9375 149.101562 L 87.265625 143.085938 L 63.085938 137.109375 L 38.632812 131.09375 " transform="matrix(0.1,0,0,-0.1,0,65)"/>
<path style="fill:none;stroke-width:10;stroke-linecap:butt;stroke-linejoin:miter;stroke:rgb(0%,0%,0%);stroke-opacity:1;stroke-miterlimit:10;" d="M 122.539062 607.929688 L 141.289062 587.226562 L 159.84375 566.5625 L 178.085938 545.859375 L 195.742188 525.195312 L 212.1875 504.492188 L 225.507812 483.828125 L 229.140625 473.476562 L 227.773438 463.125 L 223.828125 457.96875 L 216.796875 452.8125 L 206.445312 447.617188 L 193.085938 442.460938 L 159.726562 432.109375 L 121.367188 421.757812 L 38.632812 401.09375 " transform="matrix(0.1,0,0,-0.1,0,65)"/>
<path style="fill:none;stroke-width:10;stroke-linecap:butt;stroke-linejoin:miter;stroke:rgb(0%,0%,0%);stroke-opacity:1;stroke-dasharray:30,30;stroke-dashoffset:15;stroke-miterlimit:10;" d="M 424.21875 214.84375 L 408.789062 210.820312 L 393.75 206.796875 L 379.335938 202.773438 L 365.664062 198.710938 L 353.046875 194.6875 L 341.757812 190.664062 L 332.148438 186.640625 L 324.453125 182.578125 L 318.828125 178.554688 L 315.078125 174.53125 " transform="matrix(0.1,0,0,-0.1,0,65)"/>
<path style="fill:none;stroke-width:10;stroke-linecap:butt;stroke-linejoin:miter;stroke:rgb(0%,0%,0%);stroke-opacity:1;stroke-dasharray:30,30;stroke-dashoffset:15;stroke-miterlimit:10;" d="M 122.539062 337.929688 L 135.859375 323.242188 L 149.101562 308.554688 L 162.226562 293.867188 L 175.195312 279.179688 L 187.890625 264.492188 L 200.15625 249.804688 L 211.71875 235.117188 L 221.835938 220.429688 L 228.632812 205.742188 L 229.335938 198.398438 L 226.523438 191.054688 " transform="matrix(0.1,0,0,-0.1,0,65)"/>
<path style="fill:none;stroke-width:10;stroke-linecap:butt;stroke-linejoin:miter;stroke:rgb(0%,0%,0%);stroke-opacity:1;stroke-miterlimit:10;" d="M 419.0625 27.695312 L 419.0625 297.695312 " transform="matrix(0.1,0,0,-0.1,0,65)"/>
<path style="fill:none;stroke-width:10;stroke-linecap:butt;stroke-linejoin:miter;stroke:rgb(0%,0%,0%);stroke-opacity:1;stroke-miterlimit:10;" d="M 502.96875 234.492188 L 502.96875 504.492188 " transform="matrix(0.1,0,0,-0.1,0,65)"/>
<path style="fill:none;stroke-width:10;stroke-linecap:butt;stroke-linejoin:miter;stroke:rgb(0%,0%,0%);stroke-opacity:1;stroke-miterlimit:10;" d="M 315.078125 174.53125 L 315.078125 444.53125 " transform="matrix(0.1,0,0,-0.1,0,65)"/>
<path style="fill:none;stroke-width:10;stroke-linecap:butt;stroke-linejoin:miter;stroke:rgb(0%,0%,0%);stroke-opacity:1;stroke-miterlimit:10;" d="M 122.539062 418.945312 L 122.539062 607.929688 " transform="matrix(0.1,0,0,-0.1,0,65)"/>
<path style="fill:none;stroke-width:10;stroke-linecap:butt;stroke-linejoin:miter;stroke:rgb(0%,0%,0%);stroke-opacity:1;stroke-miterlimit:10;" d="M 38.632812 131.09375 L 38.632812 401.09375 " transform="matrix(0.1,0,0,-0.1,0,65)"/>
<path style="fill:none;stroke-width:10;stroke-linecap:butt;stroke-linejoin:miter;stroke:rgb(0%,0%,0%);stroke-opacity:1;stroke-miterlimit:10;" d="M 226.523438 191.054688 L 226.523438 461.054688 " transform="matrix(0.1,0,0,-0.1,0,65)"/>
<path style="fill:none;stroke-width:10;stroke-linecap:butt;stroke-linejoin:miter;stroke:rgb(0%,0%,0%);stroke-opacity:1;stroke-dasharray:30,30;stroke-dashoffset:15;stroke-miterlimit:10;" d="M 122.539062 337.929688 L 122.539062 418.945312 " transform="matrix(0.1,0,0,-0.1,0,65)"/>
</g>
</svg>
