<?xml version="1.0" encoding="UTF-8"?>
<svg xmlns="http://www.w3.org/2000/svg" xmlns:xlink="http://www.w3.org/1999/xlink" width="90pt" height="112pt" viewBox="0 0 90 112" version="1.1">
<g id="surface1">
<path style="fill:none;stroke-width:10;stroke-linecap:butt;stroke-linejoin:miter;stroke:rgb(92.939758%,10.978699%,14.118958%);stroke-opacity:1;stroke-miterlimit:10;" d="M 397.890625 900.625 L 462.226562 901.71875 L 526.25 904.921875 L 588.359375 910.234375 L 647.03125 917.460938 L 700.820312 926.445312 L 748.398438 936.953125 L 788.59375 948.75 L 805.585938 955.039062 L 820.429688 961.5625 L 832.96875 968.203125 L 843.125 975 L 850.859375 981.875 L 856.09375 988.789062 L 858.828125 995.703125 L 859.0625 1002.578125 L 856.71875 1009.375 L 851.875 1016.054688 L 844.570312 1022.539062 L 834.804688 1028.828125 L 822.695312 1034.882812 L 808.242188 1040.625 L 791.5625 1046.054688 L 772.8125 1051.132812 L 729.375 1060.15625 L 679.0625 1067.382812 L 623.085938 1072.65625 L 562.8125 1075.898438 L 499.726562 1076.992188 L 435.351562 1075.898438 L 371.367188 1072.65625 L 309.257812 1067.382812 L 250.585938 1060.15625 L 196.796875 1051.132812 L 149.21875 1040.625 L 109.023438 1028.828125 L 91.992188 1022.539062 L 77.1875 1016.054688 L 64.648438 1009.375 L 54.492188 1002.578125 L 46.757812 995.703125 L 41.523438 988.789062 L 38.75 981.875 L 38.554688 975 L 40.859375 968.203125 L 45.703125 961.5625 L 53.007812 955.039062 L 62.773438 948.75 L 74.921875 942.734375 L 89.375 936.953125 L 106.015625 931.523438 L 124.804688 926.445312 L 168.203125 917.460938 L 218.515625 910.234375 L 274.53125 904.921875 L 334.804688 901.71875 L 397.890625 900.625 " transform="matrix(0.1,0,0,-0.1,0,112)"/>
<path style="fill:none;stroke-width:10;stroke-linecap:butt;stroke-linejoin:miter;stroke:rgb(92.939758%,10.978699%,14.118958%);stroke-opacity:1;stroke-miterlimit:10;" d="M 397.890625 36.601562 L 462.226562 37.695312 L 526.25 40.9375 L 588.359375 46.25 L 647.03125 53.476562 L 700.820312 62.460938 L 748.398438 72.96875 L 788.59375 84.765625 L 805.585938 91.054688 L 820.429688 97.539062 L 832.96875 104.21875 L 843.125 111.015625 L 850.859375 117.890625 L 856.09375 124.804688 L 858.828125 131.71875 L 859.0625 138.59375 L 856.71875 145.390625 L 851.875 152.070312 L 844.570312 158.554688 L 834.804688 164.84375 L 822.695312 170.859375 L 808.242188 176.640625 L 791.5625 182.070312 L 772.8125 187.148438 L 729.375 196.132812 L 679.0625 203.359375 L 623.085938 208.671875 L 562.8125 211.914062 L 499.726562 212.96875 L 435.351562 211.914062 L 371.367188 208.671875 L 309.257812 203.359375 L 250.585938 196.132812 L 196.796875 187.148438 L 149.21875 176.640625 L 109.023438 164.84375 L 91.992188 158.554688 L 77.1875 152.070312 L 64.648438 145.390625 L 54.492188 138.59375 L 46.757812 131.71875 L 41.523438 124.804688 L 38.75 117.890625 L 38.554688 111.015625 L 40.859375 104.21875 L 45.703125 97.539062 L 53.007812 91.054688 L 62.773438 84.765625 L 74.921875 78.710938 L 89.375 72.96875 L 106.015625 67.539062 L 124.804688 62.460938 L 168.203125 53.476562 L 218.515625 46.25 L 274.53125 40.9375 L 334.804688 37.695312 L 397.890625 36.601562 " transform="matrix(0.1,0,0,-0.1,0,112)"/>
<path style="fill:none;stroke-width:10;stroke-linecap:butt;stroke-linejoin:miter;stroke:rgb(92.939758%,10.978699%,14.118958%);stroke-opacity:1;stroke-miterlimit:10;" d="M 448.789062 700.820312 L 454.492188 700.898438 L 456.835938 701.015625 L 460.195312 701.25 L 464.921875 701.679688 L 471.640625 702.617188 L 481.210938 704.414062 L 494.882812 708.007812 L 514.804688 715.195312 L 530.585938 722.382812 L 544.335938 729.609375 L 568.398438 743.984375 L 589.882812 758.398438 L 628.671875 787.1875 L 664.335938 816.015625 L 698.203125 844.804688 L 730.976562 873.59375 L 762.96875 902.382812 L 794.414062 931.210938 L 825.390625 960 L 856.09375 988.789062 " transform="matrix(0.1,0,0,-0.1,0,112)"/>
<path style="fill:none;stroke-width:10;stroke-linecap:butt;stroke-linejoin:miter;stroke:rgb(92.939758%,10.978699%,14.118958%);stroke-opacity:1;stroke-miterlimit:10;" d="M 448.789062 700.820312 L 443.085938 700.898438 L 440.742188 701.015625 L 437.421875 701.25 L 432.695312 701.679688 L 425.976562 702.617188 L 416.40625 704.414062 L 402.695312 708.007812 L 382.8125 715.195312 L 367.03125 722.382812 L 353.28125 729.609375 L 329.179688 743.984375 L 307.695312 758.398438 L 268.945312 787.1875 L 233.28125 816.015625 L 199.375 844.804688 L 166.601562 873.59375 L 134.648438 902.382812 L 103.203125 931.210938 L 72.1875 960 L 41.523438 988.789062 " transform="matrix(0.1,0,0,-0.1,0,112)"/>
<path style="fill:none;stroke-width:10;stroke-linecap:butt;stroke-linejoin:miter;stroke:rgb(92.939758%,10.978699%,14.118958%);stroke-opacity:1;stroke-miterlimit:10;" d="M 448.789062 412.8125 L 454.492188 412.695312 L 456.835938 412.578125 L 460.195312 412.34375 L 464.921875 411.914062 L 471.640625 411.015625 L 481.210938 409.179688 L 494.882812 405.585938 L 514.804688 398.398438 L 530.585938 391.210938 L 544.335938 383.984375 L 568.398438 369.609375 L 589.882812 355.195312 L 628.671875 326.40625 L 664.335938 297.617188 L 698.203125 268.789062 L 730.976562 240 L 762.96875 211.210938 L 794.414062 182.382812 L 825.390625 153.59375 L 856.09375 124.804688 " transform="matrix(0.1,0,0,-0.1,0,112)"/>
<path style="fill:none;stroke-width:10;stroke-linecap:butt;stroke-linejoin:miter;stroke:rgb(92.939758%,10.978699%,14.118958%);stroke-opacity:1;stroke-miterlimit:10;" d="M 448.789062 412.8125 L 443.085938 412.695312 L 440.742188 412.578125 L 437.421875 412.34375 L 432.695312 411.914062 L 425.976562 411.015625 L 416.40625 409.179688 L 402.695312 405.585938 L 382.8125 398.398438 L 367.03125 391.210938 L 353.28125 383.984375 L 329.179688 369.609375 L 307.695312 355.195312 L 268.945312 326.40625 L 233.28125 297.617188 L 199.375 268.789062 L 166.601562 240 L 134.648438 211.210938 L 103.203125 182.382812 L 72.1875 153.59375 L 41.523438 124.804688 " transform="matrix(0.1,0,0,-0.1,0,112)"/>
</g>
</svg>
