<?xml version="1.0" encoding="UTF-8"?>
<svg xmlns="http://www.w3.org/2000/svg" xmlns:xlink="http://www.w3.org/1999/xlink" width="64pt" height="65pt" viewBox="0 0 64 65" version="1.1">
<g id="surface1">
<path style="fill:none;stroke-width:10;stroke-linecap:butt;stroke-linejoin:miter;stroke:rgb(0%,0%,0%);stroke-opacity:1;stroke-miterlimit:10;" d="M 613.632812 233.046875 L 605.507812 232.304688 L 597.421875 231.5625 L 589.453125 230.859375 L 581.484375 230.117188 L 573.59375 229.375 L 565.78125 228.632812 L 558.007812 227.890625 L 550.3125 227.148438 L 542.65625 226.445312 L 535.039062 225.703125 " transform="matrix(0.1,0,0,-0.1,0,65)"/>
<path style="fill:none;stroke-width:10;stroke-linecap:butt;stroke-linejoin:miter;stroke:rgb(0%,0%,0%);stroke-opacity:1;stroke-miterlimit:10;" d="M 37.617188 130.078125 L 38.320312 125.3125 L 41.445312 120.546875 L 46.992188 115.742188 L 54.960938 110.976562 L 65.390625 106.171875 L 78.242188 101.40625 L 93.515625 96.640625 L 111.25 91.835938 L 131.40625 87.070312 L 153.984375 82.304688 L 178.984375 77.5 L 206.445312 72.734375 L 236.328125 67.929688 L 268.632812 63.164062 L 303.398438 58.398438 L 340.585938 53.59375 L 380.234375 48.828125 L 422.265625 44.0625 L 466.757812 39.257812 L 513.671875 34.492188 " transform="matrix(0.1,0,0,-0.1,0,65)"/>
<path style="fill:none;stroke-width:10;stroke-linecap:butt;stroke-linejoin:miter;stroke:rgb(0%,0%,0%);stroke-opacity:1;stroke-miterlimit:10;" d="M 613.632812 617.03125 L 559.960938 612.070312 L 508.90625 607.109375 L 460.46875 602.148438 L 414.6875 597.1875 L 371.484375 592.226562 L 330.9375 587.265625 L 293.007812 582.304688 L 257.695312 577.34375 L 225.039062 572.382812 L 194.960938 567.421875 L 167.539062 562.460938 L 142.734375 557.460938 L 120.546875 552.5 L 101.015625 547.539062 L 84.0625 542.578125 L 69.765625 537.617188 L 58.085938 532.65625 L 49.023438 527.695312 L 42.578125 522.734375 L 38.75 517.773438 L 37.578125 512.8125 L 39.023438 507.851562 L 43.085938 502.890625 L 49.765625 497.929688 L 59.0625 492.929688 L 71.015625 487.96875 L 85.585938 483.007812 L 102.773438 478.046875 L 122.578125 473.085938 L 145 468.125 L 170.078125 463.164062 L 197.734375 458.203125 L 228.046875 453.242188 L 260.976562 448.28125 L 296.523438 443.320312 L 334.726562 438.359375 L 375.507812 433.398438 L 418.945312 428.4375 L 465 423.4375 L 513.671875 418.476562 " transform="matrix(0.1,0,0,-0.1,0,65)"/>
<path style="fill:none;stroke-width:10;stroke-linecap:butt;stroke-linejoin:miter;stroke:rgb(0%,0%,0%);stroke-opacity:1;stroke-dasharray:30,30;stroke-dashoffset:15;stroke-miterlimit:10;" d="M 535.039062 225.703125 L 487.03125 220.898438 L 441.484375 216.132812 L 398.359375 211.367188 L 357.695312 206.5625 L 319.414062 201.796875 L 283.59375 197.03125 L 250.234375 192.226562 L 219.257812 187.460938 L 190.742188 182.65625 L 164.648438 177.890625 L 141.015625 173.125 L 119.765625 168.320312 L 101.015625 163.554688 L 84.648438 158.789062 L 70.742188 153.984375 L 59.257812 149.21875 L 50.195312 144.453125 L 43.554688 139.648438 L 39.375 134.882812 L 37.617188 130.078125 " transform="matrix(0.1,0,0,-0.1,0,65)"/>
<path style="fill:none;stroke-width:10;stroke-linecap:butt;stroke-linejoin:miter;stroke:rgb(0%,0%,0%);stroke-opacity:1;stroke-miterlimit:10;" d="M 513.671875 34.492188 L 513.671875 418.476562 " transform="matrix(0.1,0,0,-0.1,0,65)"/>
<path style="fill:none;stroke-width:10;stroke-linecap:butt;stroke-linejoin:miter;stroke:rgb(0%,0%,0%);stroke-opacity:1;stroke-miterlimit:10;" d="M 613.632812 233.046875 L 613.632812 617.03125 " transform="matrix(0.1,0,0,-0.1,0,65)"/>
<path style="fill:none;stroke-width:10;stroke-linecap:butt;stroke-linejoin:miter;stroke:rgb(0%,0%,0%);stroke-opacity:1;stroke-miterlimit:10;" d="M 37.617188 130.078125 L 37.617188 514.101562 " transform="matrix(0.1,0,0,-0.1,0,65)"/>
</g>
</svg>
