<?xml version="1.0" encoding="UTF-8"?>
<svg xmlns="http://www.w3.org/2000/svg" xmlns:xlink="http://www.w3.org/1999/xlink" width="62pt" height="65pt" viewBox="0 0 62 65" version="1.1">
<g id="surface1">
<path style="fill:none;stroke-width:10;stroke-linecap:butt;stroke-linejoin:miter;stroke:rgb(0%,0%,0%);stroke-opacity:1;stroke-miterlimit:10;" d="M 615.195312 322.382812 L 611.601562 370.9375 L 600.898438 418.28125 L 583.359375 463.242188 L 559.453125 504.765625 L 529.6875 541.796875 L 494.84375 573.398438 L 455.78125 598.828125 L 413.4375 617.460938 L 368.867188 628.828125 L 323.203125 632.65625 L 277.539062 628.828125 L 232.96875 617.460938 L 190.625 598.828125 L 151.5625 573.398438 L 116.71875 541.796875 L 86.953125 504.765625 L 63.007812 463.242188 L 45.507812 418.28125 L 34.804688 370.9375 L 31.210938 322.382812 L 34.804688 273.867188 L 45.507812 226.523438 L 63.007812 181.5625 L 86.953125 140.039062 L 116.71875 103.007812 L 151.5625 71.40625 L 190.625 45.976562 L 232.96875 27.34375 L 277.539062 15.976562 L 323.203125 12.148438 L 368.867188 15.976562 L 413.4375 27.34375 L 455.78125 45.976562 L 494.84375 71.40625 L 529.6875 103.007812 L 559.453125 140.039062 L 583.359375 181.5625 L 600.898438 226.523438 L 611.601562 273.867188 L 615.195312 322.382812 " transform="matrix(0.1,0,0,-0.1,0,65)"/>
<path style="fill:none;stroke-width:10;stroke-linecap:butt;stroke-linejoin:miter;stroke:rgb(0%,0%,0%);stroke-opacity:1;stroke-miterlimit:10;" d="M 323.203125 29.140625 L 304.492188 21.289062 L 286.289062 20.859375 L 268.945312 27.8125 L 252.96875 42.070312 L 238.671875 63.203125 L 226.523438 90.742188 L 216.71875 123.945312 L 209.53125 162.070312 L 205.15625 204.101562 L 203.671875 249.101562 L 205.15625 295.859375 L 209.53125 343.28125 L 216.71875 390.195312 L 226.523438 435.46875 L 238.671875 477.929688 L 252.96875 516.5625 L 268.945312 550.390625 L 286.289062 578.632812 L 304.492188 600.585938 L 323.203125 615.664062 " transform="matrix(0.1,0,0,-0.1,0,65)"/>
<path style="fill:none;stroke-width:10;stroke-linecap:butt;stroke-linejoin:miter;stroke:rgb(0%,0%,0%);stroke-opacity:1;stroke-miterlimit:10;" d="M 53.203125 322.382812 L 38.242188 311.171875 L 30.273438 300.234375 L 29.570312 289.84375 L 36.054688 280.234375 L 49.609375 271.679688 L 69.921875 264.375 L 96.445312 258.515625 L 128.554688 254.179688 L 165.46875 251.5625 L 206.289062 250.664062 L 249.960938 251.5625 L 295.429688 254.179688 L 387.304688 264.375 L 431.445312 271.679688 L 472.929688 280.234375 L 510.703125 289.84375 L 543.867188 300.234375 L 571.601562 311.171875 L 593.203125 322.382812 " transform="matrix(0.1,0,0,-0.1,0,65)"/>
<path style="fill:none;stroke-width:10;stroke-linecap:butt;stroke-linejoin:miter;stroke:rgb(0%,0%,0%);stroke-opacity:1;stroke-dasharray:30,30;stroke-dashoffset:15;stroke-miterlimit:10;" d="M 593.203125 322.382812 L 608.164062 333.632812 L 616.09375 344.570312 L 616.835938 354.960938 L 610.351562 364.570312 L 596.796875 373.125 L 576.484375 380.429688 L 549.960938 386.289062 L 517.8125 390.625 L 480.898438 393.242188 L 440.117188 394.101562 L 396.445312 393.242188 L 350.9375 390.625 L 259.0625 380.429688 L 214.960938 373.125 L 173.476562 364.570312 L 135.703125 354.960938 L 102.539062 344.570312 L 74.804688 333.632812 L 53.203125 322.382812 " transform="matrix(0.1,0,0,-0.1,0,65)"/>
<path style="fill:none;stroke-width:10;stroke-linecap:butt;stroke-linejoin:miter;stroke:rgb(0%,0%,0%);stroke-opacity:1;stroke-dasharray:30,30;stroke-dashoffset:15;stroke-miterlimit:10;" d="M 323.203125 615.664062 L 341.914062 623.515625 L 360.117188 623.945312 L 377.460938 616.992188 L 393.4375 602.734375 L 407.695312 581.601562 L 419.882812 554.0625 L 429.6875 520.859375 L 436.875 482.734375 L 441.25 440.703125 L 442.695312 395.703125 L 441.25 348.945312 L 436.875 301.523438 L 429.6875 254.609375 L 419.882812 209.335938 L 407.695312 166.875 L 393.4375 128.242188 L 377.460938 94.375 L 360.117188 66.171875 L 341.914062 44.21875 L 323.203125 29.140625 " transform="matrix(0.1,0,0,-0.1,0,65)"/>
</g>
</svg>
