<?xml version="1.0" encoding="UTF-8"?>
<svg xmlns="http://www.w3.org/2000/svg" xmlns:xlink="http://www.w3.org/1999/xlink" width="187pt" height="154pt" viewBox="0 0 187 154" version="1.1">
<g id="surface1">
<path style="fill:none;stroke-width:5;stroke-linecap:butt;stroke-linejoin:miter;stroke:rgb(0%,0%,0%);stroke-opacity:1;stroke-miterlimit:10;" d="M -170.585938 756.484375 L -106.445312 786.09375 L -42.265625 808.789062 L 21.875 824.492188 L 86.054688 833.242188 L 150.195312 835.039062 L 214.375 829.882812 L 278.515625 817.8125 L 342.695312 798.75 L 406.835938 772.734375 L 470.976562 739.765625 L 535.15625 699.882812 L 599.296875 653.007812 L 663.476562 599.21875 L 727.617188 538.4375 L 791.796875 470.742188 L 855.9375 396.054688 L 920.117188 314.453125 L 984.257812 225.859375 L 1048.4375 130.351562 L 1112.578125 27.851562 " transform="matrix(0.1,0,0,-0.1,0,154)"/>
<path style="fill:none;stroke-width:5;stroke-linecap:butt;stroke-linejoin:miter;stroke:rgb(0%,0%,0%);stroke-opacity:1;stroke-miterlimit:10;" d="M 535.15625 1407.265625 L 599.296875 1436.875 L 663.476562 1459.53125 L 727.617188 1475.234375 L 791.796875 1483.984375 L 855.9375 1485.78125 L 920.117188 1480.664062 L 984.257812 1468.554688 L 1048.4375 1449.492188 L 1112.578125 1423.515625 L 1176.757812 1390.546875 L 1240.898438 1350.625 L 1305.078125 1303.789062 L 1369.21875 1249.960938 L 1433.398438 1189.21875 L 1497.539062 1121.484375 L 1561.679688 1046.796875 L 1625.859375 965.195312 L 1690 876.601562 L 1754.179688 781.09375 L 1818.320312 678.632812 " transform="matrix(0.1,0,0,-0.1,0,154)"/>
<path style="fill:none;stroke-width:5;stroke-linecap:butt;stroke-linejoin:miter;stroke:rgb(0%,0%,0%);stroke-opacity:1;stroke-miterlimit:10;" d="M 1818.320312 678.632812 L 1783.046875 621.09375 L 1747.734375 566.210938 L 1712.460938 513.984375 L 1677.1875 464.335938 L 1641.875 417.34375 L 1606.601562 372.96875 L 1571.328125 331.25 L 1536.015625 292.148438 L 1500.742188 255.664062 L 1465.46875 221.796875 L 1430.15625 190.585938 L 1394.882812 161.992188 L 1359.609375 136.015625 L 1324.296875 112.695312 L 1289.023438 91.992188 L 1253.710938 73.90625 L 1218.4375 58.4375 L 1183.164062 45.625 L 1147.851562 35.429688 L 1112.578125 27.851562 " transform="matrix(0.1,0,0,-0.1,0,154)"/>
<path style="fill:none;stroke-width:5;stroke-linecap:butt;stroke-linejoin:miter;stroke:rgb(0%,0%,0%);stroke-opacity:1;stroke-miterlimit:10;" d="M 535.15625 1407.265625 L 499.882812 1349.726562 L 464.570312 1294.84375 L 429.296875 1242.617188 L 394.023438 1192.96875 L 358.710938 1145.976562 L 323.4375 1101.601562 L 288.164062 1059.882812 L 252.851562 1020.78125 L 217.578125 984.296875 L 182.265625 950.429688 L 146.992188 919.21875 L 111.71875 890.625 L 76.40625 864.648438 L 41.132812 841.328125 L 5.859375 820.585938 L -29.453125 802.539062 L -64.726562 787.070312 L -100 774.257812 L -135.3125 764.0625 L -170.585938 756.484375 " transform="matrix(0.1,0,0,-0.1,0,154)"/>
<path style="fill:none;stroke-width:10;stroke-linecap:butt;stroke-linejoin:miter;stroke:rgb(18.03894%,19.219971%,57.249451%);stroke-opacity:1;stroke-miterlimit:10;" d="M 823.867188 1433.398438 L 766.132812 1344.570312 L 708.398438 1262.773438 L 650.625 1188.046875 L 592.890625 1120.3125 L 535.15625 1059.648438 L 477.421875 1006.015625 L 419.6875 959.414062 L 361.914062 919.84375 L 304.179688 887.34375 L 246.445312 861.875 " transform="matrix(0.1,0,0,-0.1,0,154)"/>
<path style="fill:none;stroke-width:10;stroke-linecap:butt;stroke-linejoin:miter;stroke:rgb(18.03894%,19.219971%,57.249451%);stroke-opacity:1;stroke-miterlimit:10;" d="M 984.257812 1407.5 L 926.523438 1318.671875 L 868.789062 1236.875 L 811.054688 1162.148438 L 753.28125 1094.414062 L 695.546875 1033.75 L 637.8125 980.117188 L 580.078125 933.515625 L 522.304688 893.945312 L 464.570312 861.445312 L 406.835938 835.976562 " transform="matrix(0.1,0,0,-0.1,0,154)"/>
<path style="fill:none;stroke-width:10;stroke-linecap:butt;stroke-linejoin:miter;stroke:rgb(18.03894%,19.219971%,57.249451%);stroke-opacity:1;stroke-miterlimit:10;" d="M 1144.648438 1338.164062 L 1086.914062 1249.335938 L 1029.179688 1167.539062 L 971.445312 1092.773438 L 913.671875 1025.078125 L 855.9375 964.375 L 798.203125 910.742188 L 740.46875 864.140625 L 682.734375 824.609375 L 624.960938 792.070312 L 567.226562 766.601562 " transform="matrix(0.1,0,0,-0.1,0,154)"/>
<path style="fill:none;stroke-width:10;stroke-linecap:butt;stroke-linejoin:miter;stroke:rgb(18.03894%,19.219971%,57.249451%);stroke-opacity:1;stroke-miterlimit:10;" d="M 1272.96875 1251.367188 L 1215.234375 1162.539062 L 1157.5 1080.742188 L 1099.765625 1006.015625 L 1041.992188 938.28125 L 984.257812 877.617188 L 926.523438 823.984375 L 868.789062 777.382812 L 811.054688 737.851562 L 753.28125 705.3125 L 695.546875 679.84375 " transform="matrix(0.1,0,0,-0.1,0,154)"/>
<path style="fill:none;stroke-width:10;stroke-linecap:butt;stroke-linejoin:miter;stroke:rgb(18.03894%,19.219971%,57.249451%);stroke-opacity:1;stroke-miterlimit:10;" d="M 1401.289062 1136.796875 L 1343.554688 1047.96875 L 1285.820312 966.171875 L 1228.085938 891.445312 L 1170.3125 823.710938 L 1112.578125 763.046875 L 1054.84375 709.414062 L 997.109375 662.8125 L 939.335938 623.242188 L 881.601562 590.742188 L 823.867188 565.273438 " transform="matrix(0.1,0,0,-0.1,0,154)"/>
<path style="fill:none;stroke-width:10;stroke-linecap:butt;stroke-linejoin:miter;stroke:rgb(18.03894%,19.219971%,57.249451%);stroke-opacity:1;stroke-miterlimit:10;" d="M 1513.554688 1013.75 L 1455.820312 924.921875 L 1398.085938 843.125 L 1340.351562 768.359375 L 1282.617188 700.664062 L 1224.84375 639.960938 L 1167.109375 586.367188 L 1109.375 539.765625 L 1051.640625 500.195312 L 993.90625 467.695312 L 936.132812 442.1875 " transform="matrix(0.1,0,0,-0.1,0,154)"/>
<path style="fill:none;stroke-width:10;stroke-linecap:butt;stroke-linejoin:miter;stroke:rgb(18.03894%,19.219971%,57.249451%);stroke-opacity:1;stroke-miterlimit:10;" d="M 1625.859375 869.375 L 1568.125 780.546875 L 1510.351562 698.75 L 1452.617188 624.023438 L 1394.882812 556.289062 L 1337.148438 495.625 L 1279.375 441.992188 L 1221.640625 395.390625 L 1163.90625 355.820312 L 1106.171875 323.320312 L 1048.4375 297.851562 " transform="matrix(0.1,0,0,-0.1,0,154)"/>
<path style="fill:none;stroke-width:10;stroke-linecap:butt;stroke-linejoin:miter;stroke:rgb(92.939758%,10.978699%,14.118958%);stroke-opacity:1;stroke-miterlimit:10;" d="M 823.867188 1433.398438 L 863.984375 1431.015625 L 904.0625 1425.898438 L 944.179688 1418.046875 L 984.257812 1407.5 L 1024.375 1394.257812 L 1064.453125 1378.242188 L 1104.570312 1359.570312 L 1144.648438 1338.164062 L 1184.765625 1314.023438 L 1224.84375 1287.1875 L 1264.960938 1257.617188 L 1305.078125 1225.351562 L 1345.15625 1190.351562 L 1385.234375 1152.65625 L 1425.351562 1112.226562 L 1465.46875 1069.101562 L 1505.546875 1023.242188 L 1545.664062 974.6875 L 1585.742188 923.398438 L 1625.859375 869.375 " transform="matrix(0.1,0,0,-0.1,0,154)"/>
<path style="fill:none;stroke-width:10;stroke-linecap:butt;stroke-linejoin:miter;stroke:rgb(92.939758%,10.978699%,14.118958%);stroke-opacity:1;stroke-miterlimit:10;" d="M 727.617188 1289.257812 L 767.734375 1286.875 L 807.8125 1281.757812 L 847.929688 1273.90625 L 888.007812 1263.359375 L 928.125 1250.117188 L 968.242188 1234.101562 L 1008.320312 1215.429688 L 1048.4375 1194.023438 L 1088.515625 1169.882812 L 1128.632812 1143.046875 L 1168.710938 1113.476562 L 1208.828125 1081.210938 L 1248.90625 1046.210938 L 1289.023438 1008.515625 L 1329.101562 968.085938 L 1369.21875 924.960938 L 1409.296875 879.101562 L 1449.414062 830.507812 L 1489.492188 779.257812 L 1529.609375 725.234375 " transform="matrix(0.1,0,0,-0.1,0,154)"/>
<path style="fill:none;stroke-width:10;stroke-linecap:butt;stroke-linejoin:miter;stroke:rgb(92.939758%,10.978699%,14.118958%);stroke-opacity:1;stroke-miterlimit:10;" d="M 631.40625 1164.6875 L 671.484375 1162.265625 L 711.601562 1157.148438 L 751.679688 1149.335938 L 791.796875 1138.789062 L 831.875 1125.507812 L 871.992188 1109.53125 L 912.070312 1090.859375 L 952.1875 1069.414062 L 992.265625 1045.3125 L 1032.382812 1018.4375 L 1072.460938 988.90625 L 1112.578125 956.601562 L 1152.695312 921.640625 L 1192.773438 883.90625 L 1232.890625 843.515625 L 1272.96875 800.351562 L 1313.085938 754.53125 L 1353.164062 705.9375 L 1393.28125 654.648438 L 1433.398438 600.664062 " transform="matrix(0.1,0,0,-0.1,0,154)"/>
<path style="fill:none;stroke-width:10;stroke-linecap:butt;stroke-linejoin:miter;stroke:rgb(92.939758%,10.978699%,14.118958%);stroke-opacity:1;stroke-miterlimit:10;" d="M 503.085938 1028.984375 L 543.164062 1026.5625 L 583.28125 1021.445312 L 623.359375 1013.632812 L 663.476562 1003.085938 L 703.554688 989.804688 L 743.671875 973.828125 L 783.789062 955.15625 L 823.867188 933.710938 L 863.984375 909.609375 L 904.0625 882.773438 L 944.179688 853.203125 L 984.257812 820.9375 L 1024.375 785.9375 L 1064.453125 748.242188 L 1104.570312 707.8125 L 1144.648438 664.648438 L 1184.765625 618.828125 L 1224.84375 570.234375 L 1264.960938 518.945312 L 1305.078125 464.960938 " transform="matrix(0.1,0,0,-0.1,0,154)"/>
<path style="fill:none;stroke-width:10;stroke-linecap:butt;stroke-linejoin:miter;stroke:rgb(92.939758%,10.978699%,14.118958%);stroke-opacity:1;stroke-miterlimit:10;" d="M 374.765625 928.046875 L 414.84375 925.625 L 454.960938 920.507812 L 495.078125 912.695312 L 535.15625 902.148438 L 575.273438 888.867188 L 615.351562 872.890625 L 655.46875 854.179688 L 695.546875 832.773438 L 735.664062 808.671875 L 775.742188 781.796875 L 815.859375 752.265625 L 855.9375 719.960938 L 896.054688 685 L 936.132812 647.265625 L 976.25 606.875 L 1016.328125 563.710938 L 1056.445312 517.851562 L 1096.523438 469.296875 L 1136.640625 418.007812 L 1176.757812 364.023438 " transform="matrix(0.1,0,0,-0.1,0,154)"/>
<path style="fill:none;stroke-width:10;stroke-linecap:butt;stroke-linejoin:miter;stroke:rgb(92.939758%,10.978699%,14.118958%);stroke-opacity:1;stroke-miterlimit:10;" d="M 246.445312 861.875 L 286.5625 859.453125 L 326.640625 854.335938 L 366.757812 846.523438 L 406.835938 835.976562 L 446.953125 822.695312 L 487.03125 806.71875 L 527.148438 788.007812 L 567.226562 766.601562 L 607.34375 742.460938 L 647.421875 715.625 L 687.539062 686.054688 L 727.617188 653.789062 L 767.734375 618.828125 L 807.8125 581.09375 L 847.929688 540.703125 L 888.007812 497.539062 L 928.125 451.679688 L 968.242188 403.125 L 1008.320312 351.835938 L 1048.4375 297.851562 " transform="matrix(0.1,0,0,-0.1,0,154)"/>
</g>
</svg>
